<?xml version="1.0" standalone="no"?>
<!DOCTYPE svg PUBLIC "-//W3C//DTD SVG 1.1//EN" "http://www.w3.org/Graphics/SVG/1.1/DTD/svg11.dtd" >
<svg xmlns="http://www.w3.org/2000/svg" xmlns:xlink="http://www.w3.org/1999/xlink" version="1.1">
<metadata>
Created by FontForge 20170910 at Mon Jun 27 13:35:42 2016
 By Jimmy Wärting
Copyright 2016 Dalton Maag Ltd. Modification of this file requires prior written permission from Dalton Maag Ltd.
</metadata>
<defs>
<font id="InterFace-Bold" horiz-adv-x="0" >
  <font-face 
    font-family="InterFace"
    font-weight="700"
    font-stretch="normal"
    units-per-em="1000"
    panose-1="2 11 7 3 2 2 3 2 2 4"
    ascent="667"
    descent="-333"
    x-height="482"
    cap-height="667"
    bbox="-252 -432 1415 920"
    underline-thickness="60"
    underline-position="-280"
    unicode-range="U+0008-FEFC"
  />
<missing-glyph horiz-adv-x="500" 
d="M50 0v750h400v-750h-400zM400 50v650h-300v-650h300z" />
    <glyph glyph-name="f_b" unicode="fb" horiz-adv-x="858" 
d="M83 0v382h-67v100h68v15q0 55 23.5 91t60 56t81.5 28t88 8q38 0 82.5 -4t81.5 -11v-182q21 5 40 8t45 3q60 0 104.5 -21t74 -55.5t44 -78t14.5 -89.5q0 -70 -21 -119.5t-57 -81t-83.5 -46t-100.5 -14.5q-49 0 -97 11t-94 30v535q-12 2 -27 2.5t-26 0.5q-44 0 -74 -16.5
t-30 -57.5v-12h102v-100h-101v-382h-131zM501 103l28 -6t27 -3q62 0 101 39t39 114q0 36 -10 62.5t-28 44t-42 26.5t-51 9q-29 0 -64 -11v-275z" />
    <glyph glyph-name="f_j" unicode="fj" horiz-adv-x="559" 
d="M83 0v382h-67v100h67v17q0 50 17.5 85t46.5 56.5t66.5 31t78.5 9.5q65 0 106.5 -13.5t68.5 -32.5l-61 -95q-18 14 -44 22.5t-61 8.5t-61.5 -17t-26.5 -60v-12h109v-100h-108v-382h-131zM294 -116q25 17 41.5 31.5t25.5 30t12.5 33t3.5 40.5v463h130v-463
q0 -39 -8.5 -70.5t-26 -57.5t-44 -47t-62.5 -40z" />
    <glyph glyph-name="f_k" unicode="fk" horiz-adv-x="826" 
d="M83 0v382h-67v100h68v15q0 55 23.5 91t60 56t81.5 28t88 8q38 0 82 -4t81 -11v-319l151 136h157l-166 -149l190 -333h-147l-138 249l-47 -44v-205h-130v565q-12 2 -27 2.5t-26 0.5q-44 0 -74 -16.5t-30 -57.5v-12h102v-100h-101v-382h-131z" />
    <glyph glyph-name="f_t" unicode="ft" horiz-adv-x="706" 
d="M83 0v382h-67v100h67v17q0 48 13 82t35.5 56.5t53 33t66.5 10.5q48 0 83.5 -7.5t64.5 -21.5l-38 -100q-40 20 -89 20q-25 0 -42 -16.5t-17 -57.5v-16h211v125h130v-125h117v-100h-117v-246q0 -23 10.5 -31.5t20.5 -8.5q20 0 39 10t33 21l47 -89q-33 -22 -69.5 -35.5
t-77.5 -13.5q-25 0 -49 7t-42.5 22t-30 39.5t-11.5 59.5v265h-210v-382h-131z" />
    <glyph glyph-name="f_h" unicode="fh" horiz-adv-x="881" 
d="M83 0v382h-67v100h68v15q0 55 23.5 91t60 56t81.5 28t88 8q38 0 82 -4t81 -11v-215q24 18 57.5 31t80.5 13q49 0 83 -15t56 -42t32 -65.5t10 -85.5v-286h-131v277q0 60 -24.5 86.5t-56.5 26.5t-61 -16.5t-46 -30.5v-343h-130v565q-12 2 -27 2.5t-26 0.5q-44 0 -74 -16.5
t-30 -57.5v-12h102v-100h-101v-382h-131z" />
    <glyph glyph-name="f_f" unicode="ff" horiz-adv-x="675" 
d="M83 0v382h-67v100h67v17q0 48 13 82t35.5 56.5t53 33t66.5 10.5q48 0 83.5 -7.5t64.5 -21.5l-38 -100q-40 20 -89 20q-25 0 -42 -16.5t-17 -57.5v-16h210v17q0 48 13 82t35.5 56.5t53 33t66.5 10.5q48 0 83.5 -7.5t64.5 -21.5l-38 -100q-40 20 -89 20q-25 0 -42 -16.5
t-17 -57.5v-16h109v-100h-108v-382h-131v382h-209v-382h-131z" />
    <glyph glyph-name="f_i" unicode="fi" horiz-adv-x="566" 
d="M371 0v482h130v-482h-130zM83 0v382h-67v100h67v17q0 50 17.5 85t46.5 56.5t66.5 31t78.5 9.5q65 0 106.5 -13.5t68.5 -32.5l-61 -95q-18 14 -44 22.5t-61 8.5t-61.5 -17t-26.5 -60v-12h109v-100h-108v-382h-131z" />
    <glyph glyph-name="f_l" unicode="fl" horiz-adv-x="565" 
d="M83 0v382h-67v100h68v15q0 55 23.5 91t60 56t81.5 28t88 8q38 0 82 -4t81 -11v-665h-130v565q-12 2 -27 2.5t-26 0.5q-44 0 -74 -16.5t-30 -57.5v-12h102v-100h-101v-382h-131z" />
    <glyph glyph-name="f_f_i" unicode="ffi" horiz-adv-x="904" 
d="M83 0v382h-67v100h67v17q0 48 13 82t35.5 56.5t53 33t66.5 10.5q48 0 83.5 -7.5t64.5 -21.5l-38 -100q-40 20 -89 20q-25 0 -42 -16.5t-17 -57.5v-16h208v17q0 50 17.5 85t46.5 56.5t66.5 31t78.5 9.5q65 0 106.5 -13.5t68.5 -32.5l-61 -95q-18 14 -44 22.5t-61 8.5
t-61.5 -17t-26.5 -60v-12h109v-100h-108v-382h-131v382h-207v-382h-131zM709 0v482h130v-482h-130z" />
    <glyph glyph-name="f_f_l" unicode="ffl" horiz-adv-x="903" 
d="M83 0v382h-67v100h67v17q0 48 13 82t35.5 56.5t53 33t66.5 10.5q48 0 83.5 -7.5t64.5 -21.5l-38 -100q-40 20 -89 20q-25 0 -42 -16.5t-17 -57.5v-16h209v15q0 55 23.5 91t60 56t81.5 28t88 8q38 0 82 -4t81 -11v-665h-130v565q-12 2 -27 2.5t-26 0.5q-44 0 -74 -16.5
t-30 -57.5v-12h102v-100h-101v-382h-131v382h-207v-382h-131z" />
    <glyph glyph-name="aAllah" unicode="&#x627;&#xfedf;&#xfee0;&#xfeea;" horiz-adv-x="1235" arabic-form="isolated" 
d="M477 0q-47 0 -82.5 16t-59.5 44q-21 -32 -58.5 -51t-88.5 -19q-75 0 -119 42.5t-44 118.5q0 31 8 59t26.5 52.5t49 46.5t75.5 43q26 11 53.5 20.5t54.5 17.5v69h105v-271q0 -29 25.5 -43t63.5 -14q42 0 65.5 12.5t23.5 44.5v341h107v-338q0 -29 21.5 -44.5t70.5 -15.5
q47 0 68.5 15.5t21.5 50.5v365h107v-360q0 -99 -50.5 -150.5t-146.5 -51.5q-66 0 -103.5 16t-53.5 47q-15 -29 -49 -46t-91 -17zM292 279q-38 -8 -70 -19q-54 -18 -73.5 -39.5t-19.5 -47.5t19 -39.5t53 -13.5q25 0 50 8t41 22v129zM1181 -22h-104l-2 689h107zM572 597
q-28 0 -44 18t-16 50q0 18 5.5 37t15.5 33l40 -17q-6 -11 -9.5 -23.5t-3.5 -21.5q0 -23 21 -23q14 0 19.5 7.5t5.5 25.5v32h44v-31q0 -34 27 -34q21 0 21 20q0 12 -7 26t-13 22l41 25q11 -14 19 -33t8 -42q0 -32 -17 -51.5t-46 -19.5q-21 0 -35.5 9.5t-19.5 25.5
q-6 -16 -21 -25.5t-35 -9.5zM654 773h-51l-4 147h60z" />
    <glyph glyph-name="aLam_aAlifMadda.isol" unicode="&#xfedf;&#xfe82;" horiz-adv-x="695" arabic-form="isolated" 
d="M629 669q6 -20 10.5 -48.5t4.5 -69.5q0 -60 -17.5 -117t-49.5 -111q35 -43 55.5 -89t20.5 -92q0 -37 -12 -68.5t-34.5 -54.5t-56 -36t-76.5 -13q-60 0 -112.5 23.5t-80.5 58.5q-52 -25 -105 -38.5t-104 -13.5q-31 0 -49 6l-7 127q8 -1 25 -1.5t37 -0.5q55 0 109 12.5
t102 35.5t89.5 56t73.5 74q-54 40 -126.5 65.5t-153.5 25.5q-24 0 -51 -4t-45 -11v115q21 9 49 14t57 5q85 0 169 -34.5t152 -88.5q29 66 29 141q0 38 -4.5 72.5t-10.5 59.5h112zM391 118q20 -12 42.5 -19.5t44.5 -7.5q79 0 79 56q0 23 -9.5 47t-26.5 47q-29 -35 -61.5 -66
t-68.5 -57zM310 649q-5 -29 -27 -46.5t-54 -17.5q-14 0 -26 3t-24 8q-17 9 -27.5 13t-24.5 4q-13 0 -25.5 -6.5t-20.5 -17.5l-27 22q7 32 27 50.5t49 18.5q16 0 28.5 -3.5t25.5 -10.5q14 -7 25.5 -10.5t28.5 -3.5q14 0 29 6.5t23 16.5z" />
    <glyph glyph-name="aLam_aAlifMadda.fina" unicode="&#xfee0;&#xfe82;" horiz-adv-x="738" arabic-form="final" 
d="M629 669q6 -20 10.5 -48.5t4.5 -69.5q0 -60 -17.5 -117t-49.5 -111q30 -37 49.5 -76.5t24.5 -79.5q9 -14 28.5 -25t47.5 -11h11l16 -11v-110l-16 -10h-10q-37 0 -61.5 13t-38.5 33q-22 -35 -60.5 -55.5t-93.5 -20.5q-60 0 -112.5 23.5t-80.5 58.5q-52 -25 -105 -38.5
t-104 -13.5q-31 0 -49 6l-7 127q8 -1 25 -1.5t37 -0.5q55 0 109 12.5t102 35.5t89.5 56t73.5 74q-54 40 -126.5 65.5t-153.5 25.5q-24 0 -51.5 -4t-44.5 -11v115q21 9 49 14t57 5q85 0 169 -34.5t152 -88.5q29 66 29 141q0 38 -4.5 72.5t-10.5 59.5h112zM391 118
q20 -12 42.5 -19.5t44.5 -7.5q79 0 79 56q0 23 -9.5 47t-26.5 47q-29 -35 -61.5 -66t-68.5 -57zM310 649q-5 -29 -27 -46.5t-54 -17.5q-14 0 -26 3t-24 8q-17 9 -27.5 13t-24.5 4q-13 0 -25.5 -6.5t-20.5 -17.5l-27 22q7 32 27 50.5t49 18.5q16 0 28.5 -3.5t25.5 -10.5
q14 -7 25.5 -10.5t28.5 -3.5q14 0 29 6.5t23 16.5z" />
    <glyph glyph-name="aLam_aAlifHamza.isol" unicode="&#xfedf;&#xfe84;" horiz-adv-x="695" arabic-form="isolated" 
d="M629 669q6 -20 10.5 -48.5t4.5 -69.5q0 -60 -17.5 -117t-49.5 -111q35 -43 55.5 -89t20.5 -92q0 -37 -12 -68.5t-34.5 -54.5t-56 -36t-76.5 -13q-60 0 -112.5 23.5t-80.5 58.5q-52 -25 -105 -38.5t-104 -13.5q-31 0 -49 6l-7 127q8 -1 25 -1.5t37 -0.5q55 0 109 12.5
t102 35.5t89.5 56t73.5 74q-54 40 -126.5 65.5t-153.5 25.5q-24 0 -51 -4t-45 -11v115q21 9 49 14t57 5q85 0 169 -34.5t152 -88.5q29 66 29 141q0 38 -4.5 72.5t-10.5 59.5h112zM391 118q20 -12 42.5 -19.5t44.5 -7.5q79 0 79 56q0 23 -9.5 47t-26.5 47q-29 -35 -61.5 -66
t-68.5 -57zM279 589h-194v50h43q-17 15 -17 44q0 32 21 53t58 21q35 0 56 -19t21 -50q0 -10 -1 -14h-45v4q0 12 -9 19t-22 7q-14 0 -22 -7.5t-8 -19.5q0 -38 77 -38h42v-50z" />
    <glyph glyph-name="aLam_aAlifHamza.fina" unicode="&#xfee0;&#xfe84;" horiz-adv-x="738" arabic-form="final" 
d="M629 669q6 -20 10.5 -48.5t4.5 -69.5q0 -60 -17.5 -117t-49.5 -111q30 -37 49.5 -76.5t24.5 -79.5q9 -14 28.5 -25t47.5 -11h11l16 -11v-110l-16 -10h-10q-37 0 -61.5 13t-38.5 33q-22 -35 -60.5 -55.5t-93.5 -20.5q-60 0 -112.5 23.5t-80.5 58.5q-52 -25 -105 -38.5
t-104 -13.5q-31 0 -49 6l-7 127q8 -1 25 -1.5t37 -0.5q55 0 109 12.5t102 35.5t89.5 56t73.5 74q-54 40 -126.5 65.5t-153.5 25.5q-24 0 -51.5 -4t-44.5 -11v115q21 9 49 14t57 5q85 0 169 -34.5t152 -88.5q29 66 29 141q0 38 -4.5 72.5t-10.5 59.5h112zM391 118
q20 -12 42.5 -19.5t44.5 -7.5q79 0 79 56q0 23 -9.5 47t-26.5 47q-29 -35 -61.5 -66t-68.5 -57zM279 589h-194v50h43q-17 15 -17 44q0 32 21 53t58 21q35 0 56 -19t21 -50q0 -10 -1 -14h-45v4q0 12 -9 19t-22 7q-14 0 -22 -7.5t-8 -19.5q0 -38 77 -38h42v-50z" />
    <glyph glyph-name="aLam_aAlifHamzabelow.isol" unicode="&#xfedf;&#xfe88;" horiz-adv-x="695" arabic-form="isolated" 
d="M629 669q6 -20 10.5 -48.5t4.5 -69.5q0 -60 -17.5 -117t-49.5 -111q35 -43 55.5 -89t20.5 -92q0 -37 -12 -68.5t-34.5 -54.5t-56 -36t-76.5 -13q-60 0 -112.5 23.5t-80.5 58.5q-52 -25 -105 -38.5t-104 -13.5q-31 0 -49 6l-7 127q8 -1 25 -1.5t37 -0.5q55 0 109 12.5
t102 35.5t89.5 56t73.5 74q-54 40 -126.5 65.5t-153.5 25.5q-24 0 -51 -4t-45 -11v115q21 9 49 14t57 5q85 0 169 -34.5t152 -88.5q29 66 29 141q0 38 -4.5 72.5t-10.5 59.5h112zM391 118q20 -12 42.5 -19.5t44.5 -7.5q79 0 79 56q0 23 -9.5 47t-26.5 47q-29 -35 -61.5 -66
t-68.5 -57zM378 -231h-194v50h43q-17 15 -17 44q0 32 21 53t58 21q35 0 56 -19t21 -50q0 -10 -1 -14h-45v4q0 12 -9 19t-22 7q-14 0 -22 -7.5t-8 -19.5q0 -38 77 -38h42v-50z" />
    <glyph glyph-name="aLam_aAlifHamzabelow.fina" unicode="&#xfee0;&#xfe88;" horiz-adv-x="738" arabic-form="final" 
d="M629 669q6 -20 10.5 -48.5t4.5 -69.5q0 -60 -17.5 -117t-49.5 -111q30 -37 49.5 -76.5t24.5 -79.5q9 -14 28.5 -25t47.5 -11h11l16 -11v-110l-16 -10h-10q-37 0 -61.5 13t-38.5 33q-22 -35 -60.5 -55.5t-93.5 -20.5q-60 0 -112.5 23.5t-80.5 58.5q-52 -25 -105 -38.5
t-104 -13.5q-31 0 -49 6l-7 127q8 -1 25 -1.5t37 -0.5q55 0 109 12.5t102 35.5t89.5 56t73.5 74q-54 40 -126.5 65.5t-153.5 25.5q-24 0 -51.5 -4t-44.5 -11v115q21 9 49 14t57 5q85 0 169 -34.5t152 -88.5q29 66 29 141q0 38 -4.5 72.5t-10.5 59.5h112zM391 118
q20 -12 42.5 -19.5t44.5 -7.5q79 0 79 56q0 23 -9.5 47t-26.5 47q-29 -35 -61.5 -66t-68.5 -57zM378 -231h-194v50h43q-17 15 -17 44q0 32 21 53t58 21q35 0 56 -19t21 -50q0 -10 -1 -14h-45v4q0 12 -9 19t-22 7q-14 0 -22 -7.5t-8 -19.5q0 -38 77 -38h42v-50z" />
    <glyph glyph-name="aLam_aAlif.isol" unicode="&#xfedf;&#xfe8e;" horiz-adv-x="695" arabic-form="isolated" 
d="M629 669q6 -20 10.5 -48.5t4.5 -69.5q0 -60 -17.5 -117t-49.5 -111q35 -43 55.5 -89t20.5 -92q0 -37 -12 -68.5t-34.5 -54.5t-56 -36t-76.5 -13q-60 0 -112.5 23.5t-80.5 58.5q-52 -25 -105 -38.5t-104 -13.5q-31 0 -49 6l-7 127q8 -1 25 -1.5t37 -0.5q55 0 109 12.5
t102 35.5t89.5 56t73.5 74q-54 40 -126.5 65.5t-153.5 25.5q-24 0 -51 -4t-45 -11v115q21 9 49 14t57 5q85 0 169 -34.5t152 -88.5q29 66 29 141q0 38 -4.5 72.5t-10.5 59.5h112zM391 118q20 -12 42.5 -19.5t44.5 -7.5q79 0 79 56q0 23 -9.5 47t-26.5 47q-29 -35 -61.5 -66
t-68.5 -57z" />
    <glyph glyph-name="aLam_aAlif.fina" unicode="&#xfee0;&#xfe8e;" horiz-adv-x="738" arabic-form="final" 
d="M629 669q6 -20 10.5 -48.5t4.5 -69.5q0 -60 -17.5 -117t-49.5 -111q30 -37 49.5 -76.5t24.5 -79.5q9 -14 28.5 -25t47.5 -11h11l16 -11v-110l-16 -10h-10q-37 0 -61.5 13t-38.5 33q-22 -35 -60.5 -55.5t-93.5 -20.5q-60 0 -112.5 23.5t-80.5 58.5q-52 -25 -105 -38.5
t-104 -13.5q-31 0 -49 6l-7 127q8 -1 25 -1.5t37 -0.5q55 0 109 12.5t102 35.5t89.5 56t73.5 74q-54 40 -126.5 65.5t-153.5 25.5q-24 0 -51.5 -4t-44.5 -11v115q21 9 49 14t57 5q85 0 169 -34.5t152 -88.5q29 66 29 141q0 38 -4.5 72.5t-10.5 59.5h112zM391 118
q20 -12 42.5 -19.5t44.5 -7.5q79 0 79 56q0 23 -9.5 47t-26.5 47q-29 -35 -61.5 -66t-68.5 -57z" />
    <glyph glyph-name="aLam_aLam_aHeh.isol" unicode="&#xfedf;&#xfee0;&#xfeea;" horiz-adv-x="1024" 
d="M477 0q-47 0 -82.5 16t-59.5 44q-21 -32 -58.5 -51t-88.5 -19q-75 0 -119 42.5t-44 118.5q0 31 8 59t26.5 52.5t49 46.5t75.5 43q26 11 53.5 20.5t54.5 17.5v69h105v-271q0 -29 25.5 -43t63.5 -14q42 0 65.5 12.5t23.5 44.5v341h107v-338q0 -29 21.5 -44.5t70.5 -15.5
q47 0 68.5 15.5t21.5 50.5v365h107v-360q0 -99 -50.5 -150.5t-146.5 -51.5q-66 0 -103.5 16t-53.5 47q-15 -29 -49 -46t-91 -17zM292 279q-38 -8 -70 -19q-54 -18 -73.5 -39.5t-19.5 -47.5t19 -39.5t53 -13.5q25 0 50 8t41 22v129z" />
    <glyph glyph-name="aLam_aAlifWasla.fina" unicode="&#xfee0;&#xfb51;" horiz-adv-x="738" 
d="M629 669q6 -20 10.5 -48.5t4.5 -69.5q0 -60 -17.5 -117t-49.5 -111q30 -37 49.5 -76.5t24.5 -79.5q9 -14 28.5 -25t47.5 -11h11l16 -11v-110l-16 -10h-10q-37 0 -61.5 13t-38.5 33q-22 -35 -60.5 -55.5t-93.5 -20.5q-60 0 -112.5 23.5t-80.5 58.5q-52 -25 -105 -38.5
t-104 -13.5q-31 0 -49 6l-7 127q8 -1 25 -1.5t37 -0.5q55 0 109 12.5t102 35.5t89.5 56t73.5 74q-54 40 -126.5 65.5t-153.5 25.5q-24 0 -51.5 -4t-44.5 -11v115q21 9 49 14t57 5q85 0 169 -34.5t152 -88.5q29 66 29 141q0 38 -4.5 72.5t-10.5 59.5h112zM391 118
q20 -12 42.5 -19.5t44.5 -7.5q79 0 79 56q0 23 -9.5 47t-26.5 47q-29 -35 -61.5 -66t-68.5 -57zM206 726q36 0 58.5 -21t22.5 -57q0 -16 -5 -27.5t-18.5 -18.5t-36.5 -10t-59 -3h-88l-3 50h26q9 38 37 62.5t66 24.5zM195 639q21 0 33.5 2.5t12.5 7.5q0 11 -9.5 18.5
t-29.5 7.5t-37.5 -9.5t-28.5 -26.5h59z" />
    <glyph glyph-name="aLam_aAlifWasla.isol" unicode="&#xfedf;&#xfb51;" horiz-adv-x="695" 
d="M629 669q6 -20 10.5 -48.5t4.5 -69.5q0 -60 -17.5 -117t-49.5 -111q35 -43 55.5 -89t20.5 -92q0 -37 -12 -68.5t-34.5 -54.5t-56 -36t-76.5 -13q-60 0 -112.5 23.5t-80.5 58.5q-52 -25 -105 -38.5t-104 -13.5q-31 0 -49 6l-7 127q8 -1 25 -1.5t37 -0.5q55 0 109 12.5
t102 35.5t89.5 56t73.5 74q-54 40 -126.5 65.5t-153.5 25.5q-24 0 -51 -4t-45 -11v115q21 9 49 14t57 5q85 0 169 -34.5t152 -88.5q29 66 29 141q0 38 -4.5 72.5t-10.5 59.5h112zM391 118q20 -12 42.5 -19.5t44.5 -7.5q79 0 79 56q0 23 -9.5 47t-26.5 47q-29 -35 -61.5 -66
t-68.5 -57zM206 726q36 0 58.5 -21t22.5 -57q0 -16 -5 -27.5t-18.5 -18.5t-36.5 -10t-59 -3h-88l-3 50h26q9 38 37 62.5t66 24.5zM195 639q21 0 33.5 2.5t12.5 7.5q0 11 -9.5 18.5t-29.5 7.5t-37.5 -9.5t-28.5 -26.5h59z" />
    <glyph glyph-name="aFehdotless.init" unicode="&#x6a1;" horiz-adv-x="461" 
d="M196 206q-81 0 -128 44t-47 120q0 42 14 79t38 64t56 43t69 16q46 0 86 -24.5t70 -67.5t47.5 -100t17.5 -122q0 -133 -77 -195.5t-243 -62.5h-99l-16 10v110l16 11h88q64 0 108.5 5.5t72 18t40.5 33t14 49.5q-25 -14 -58.5 -22.5t-68.5 -8.5zM197 455q-35 0 -58.5 -23.5
t-23.5 -60.5q0 -61 96 -61q26 0 54.5 6t48.5 16q-13 55 -44.5 89t-72.5 34z" />
    <glyph glyph-name="aFehdotless.medi" unicode="&#x6a1;" horiz-adv-x="486" 
d="M502 10l-16 -10h-24q-60 0 -116.5 14t-107.5 38q-51 -24 -109 -38t-117 -14h-12l-16 10v111l16 10h45q20 0 39 1t37 3q-31 32 -48 67.5t-17 72.5q0 39 14.5 73t39 59t58.5 39t73 14q40 0 74 -14.5t59 -40.5t39 -62t14 -78q0 -34 -17.5 -67.5t-49.5 -63.5q30 -3 62 -3h64
l16 -10v-111zM332 261q0 34 -27 57t-66 23q-38 0 -62.5 -19.5t-24.5 -50.5q0 -32 24.5 -59.5t67.5 -47.5q42 18 65 42.5t23 54.5z" />
    <glyph glyph-name="aFehdotless.fina" unicode="&#x6a1;" horiz-adv-x="887" 
d="M903 10l-16 -10h-25q-60 0 -117 13.5t-107 38.5q-54 -25 -116 -38.5t-128 -13.5h-19q-163 1 -251.5 66.5t-88.5 186.5q0 117 76 202l85 -50q-51 -62 -51 -132q0 -69 63.5 -105.5t181.5 -36.5h24q57 0 107 6q-30 32 -47 68t-17 74q0 37 14.5 70t39.5 58t58.5 39t71.5 14
q39 0 73 -14.5t59 -40t39.5 -60.5t14.5 -75q0 -36 -17 -70.5t-48 -65.5q28 -3 60 -3h65l16 -10v-111zM732 260q0 35 -26 58t-68 23q-38 0 -62 -19.5t-24 -51.5t23.5 -58.5t65.5 -46.5q44 17 67.5 41.5t23.5 53.5z" />
    <glyph glyph-name="aFeh1belowright.init" unicode="&#x6a2;" horiz-adv-x="461" 
d="M196 206q-81 0 -128 44t-47 120q0 42 14 79t38 64t56 43t69 16q46 0 86 -24.5t70 -67.5t47.5 -100t17.5 -122q0 -133 -77 -195.5t-243 -62.5h-99l-16 10v110l16 11h88q64 0 108.5 5.5t72 18t40.5 33t14 49.5q-25 -14 -58.5 -22.5t-68.5 -8.5zM197 455q-35 0 -58.5 -23.5
t-23.5 -60.5q0 -61 96 -61q26 0 54.5 6t48.5 16q-13 55 -44.5 89t-72.5 34zM267 -116q0 -24 -16 -37t-43 -13t-43 13t-16 37q0 23 16 36.5t43 13.5t43 -13.5t16 -36.5z" />
    <glyph glyph-name="aFeh1belowright.medi" unicode="&#x6a2;" horiz-adv-x="486" 
d="M502 10l-16 -10h-24q-60 0 -116.5 14t-107.5 38q-51 -24 -109 -38t-117 -14h-12l-16 10v111l16 10h45q20 0 39 1t37 3q-31 32 -48 67.5t-17 72.5q0 39 14.5 73t39 59t58.5 39t73 14q40 0 74 -14.5t59 -40.5t39 -62t14 -78q0 -34 -17.5 -67.5t-49.5 -63.5q30 -3 62 -3h64
l16 -10v-111zM332 261q0 34 -27 57t-66 23q-38 0 -62.5 -19.5t-24.5 -50.5q0 -32 24.5 -59.5t67.5 -47.5q42 18 65 42.5t23 54.5zM302 -116q0 -24 -16 -37t-43 -13t-43 13t-16 37q0 23 16 36.5t43 13.5t43 -13.5t16 -36.5z" />
    <glyph glyph-name="aFeh1belowright.fina" unicode="&#x6a2;" horiz-adv-x="887" 
d="M903 10l-16 -10h-25q-60 0 -117 13.5t-107 38.5q-54 -25 -116 -38.5t-128 -13.5h-19q-163 1 -251.5 66.5t-88.5 186.5q0 117 76 202l85 -50q-51 -62 -51 -132q0 -69 63.5 -105.5t181.5 -36.5h24q57 0 107 6q-30 32 -47 68t-17 74q0 37 14.5 70t39.5 58t58.5 39t71.5 14
q39 0 73 -14.5t59 -40t39.5 -60.5t14.5 -75q0 -36 -17 -70.5t-48 -65.5q28 -3 60 -3h65l16 -10v-111zM732 260q0 35 -26 58t-68 23q-38 0 -62 -19.5t-24 -51.5t23.5 -58.5t65.5 -46.5q44 17 67.5 41.5t23.5 53.5zM464 -116q0 -24 -16 -37t-43 -13t-43 13t-16 37
q0 23 16 36.5t43 13.5t43 -13.5t16 -36.5z" />
    <glyph glyph-name="aFeh3dbelow.init" unicode="&#x6a5;" horiz-adv-x="461" 
d="M196 206q-81 0 -128 44t-47 120q0 42 14 79t38 64t56 43t69 16q46 0 86 -24.5t70 -67.5t47.5 -100t17.5 -122q0 -133 -77 -195.5t-243 -62.5h-99l-16 10v110l16 11h88q64 0 108.5 5.5t72 18t40.5 33t14 49.5q-25 -14 -58.5 -22.5t-68.5 -8.5zM197 455q-35 0 -58.5 -23.5
t-23.5 -60.5q0 -61 96 -61q26 0 54.5 6t48.5 16q-13 55 -44.5 89t-72.5 34zM337 -114q0 -23 -15 -35.5t-41 -12.5q-24 0 -40 12t-16 36q0 23 15 35t41 12t41 -12t15 -35zM190 -114q0 -23 -15 -35.5t-41 -12.5q-24 0 -40 12t-16 36q0 23 15 35t41 12t41 -12t15 -35zM264 -227
q0 -23 -15 -35.5t-41 -12.5q-24 0 -40 12t-16 36q0 23 15 35t41 12t41 -12t15 -35z" />
    <glyph glyph-name="aFeh3dbelow.medi" unicode="&#x6a5;" horiz-adv-x="486" 
d="M502 10l-16 -10h-24q-60 0 -116.5 14t-107.5 38q-51 -24 -109 -38t-117 -14h-12l-16 10v111l16 10h45q20 0 39 1t37 3q-31 32 -48 67.5t-17 72.5q0 39 14.5 73t39 59t58.5 39t73 14q40 0 74 -14.5t59 -40.5t39 -62t14 -78q0 -34 -17.5 -67.5t-49.5 -63.5q30 -3 62 -3h64
l16 -10v-111zM332 261q0 34 -27 57t-66 23q-38 0 -62.5 -19.5t-24.5 -50.5q0 -32 24.5 -59.5t67.5 -47.5q42 18 65 42.5t23 54.5zM372 -114q0 -23 -15 -35.5t-41 -12.5q-24 0 -40 12t-16 36q0 23 15 35t41 12t41 -12t15 -35zM225 -114q0 -23 -15 -35.5t-41 -12.5
q-24 0 -40 12t-16 36q0 23 15 35t41 12t41 -12t15 -35zM299 -227q0 -23 -15 -35.5t-41 -12.5q-24 0 -40 12t-16 36q0 23 15 35t41 12t41 -12t15 -35z" />
    <glyph glyph-name="aFeh3dbelow.fina" unicode="&#x6a5;" horiz-adv-x="887" 
d="M903 10l-16 -10h-25q-60 0 -117 13.5t-107 38.5q-54 -25 -116 -38.5t-128 -13.5h-19q-163 1 -251.5 66.5t-88.5 186.5q0 117 76 202l85 -50q-51 -62 -51 -132q0 -69 63.5 -105.5t181.5 -36.5h24q57 0 107 6q-30 32 -47 68t-17 74q0 37 14.5 70t39.5 58t58.5 39t71.5 14
q39 0 73 -14.5t59 -40t39.5 -60.5t14.5 -75q0 -36 -17 -70.5t-48 -65.5q28 -3 60 -3h65l16 -10v-111zM732 260q0 35 -26 58t-68 23q-38 0 -62 -19.5t-24 -51.5t23.5 -58.5t65.5 -46.5q44 17 67.5 41.5t23.5 53.5zM534 -114q0 -23 -15 -35.5t-41 -12.5q-24 0 -40 12t-16 36
q0 23 15 35t41 12t41 -12t15 -35zM387 -114q0 -23 -15 -35.5t-41 -12.5q-24 0 -40 12t-16 36q0 23 15 35t41 12t41 -12t15 -35zM461 -227q0 -23 -15 -35.5t-41 -12.5q-24 0 -40 12t-16 36q0 23 15 35t41 12t41 -12t15 -35z" />
    <glyph glyph-name="aQaf1above.init" unicode="&#x6a7;" horiz-adv-x="461" 
d="M196 206q-81 0 -128 44t-47 120q0 42 14 79t38 64t56 43t69 16q46 0 86 -24.5t70 -67.5t47.5 -100t17.5 -122q0 -133 -77 -195.5t-243 -62.5h-99l-16 10v110l16 11h88q64 0 108.5 5.5t72 18t40.5 33t14 49.5q-25 -14 -58.5 -22.5t-68.5 -8.5zM197 455q-35 0 -58.5 -23.5
t-23.5 -60.5q0 -61 96 -61q26 0 54.5 6t48.5 16q-13 55 -44.5 89t-72.5 34zM258 693q0 -24 -16 -37t-43 -13t-43 13t-16 37q0 23 16 36t43 13t43 -13t16 -36z" />
    <glyph glyph-name="aQaf1above.medi" unicode="&#x6a7;" horiz-adv-x="486" 
d="M502 10l-16 -10h-24q-60 0 -116.5 14t-107.5 38q-51 -24 -109 -38t-117 -14h-12l-16 10v111l16 10h45q20 0 39 1t37 3q-31 32 -48 67.5t-17 72.5q0 39 14.5 73t39 59t58.5 39t73 14q40 0 74 -14.5t59 -40.5t39 -62t14 -78q0 -34 -17.5 -67.5t-49.5 -63.5q30 -3 62 -3h64
l16 -10v-111zM332 261q0 34 -27 57t-66 23q-38 0 -62.5 -19.5t-24.5 -50.5q0 -32 24.5 -59.5t67.5 -47.5q42 18 65 42.5t23 54.5zM300 577q0 -24 -16 -37t-43 -13t-43 13t-16 37q0 23 16 36t43 13t43 -13t16 -36z" />
    <glyph glyph-name="aQaf1above.fina" unicode="&#x6a7;" horiz-adv-x="733" 
d="M749 10l-16 -10h-72q-30 -91 -114 -141.5t-209 -50.5q-145 0 -224 73t-79 208q0 63 25 124t72 113l83 -61q-37 -45 -53.5 -85t-16.5 -83q0 -74 50 -115.5t141 -41.5q81 0 138.5 19.5t85.5 53.5h-104q-41 0 -73.5 13t-55.5 36.5t-35.5 57t-12.5 75.5q0 44 14 83t38 67.5
t56 45t68 16.5q43 0 81 -21.5t67.5 -58.5t48.5 -87.5t24 -108.5h57l16 -11v-110zM457 287q-36 0 -59.5 -25t-23.5 -64q0 -67 102 -67h101q-5 33 -16 61.5t-27 49.5t-35.5 33t-41.5 12zM514 548q0 -24 -16 -37t-43 -13t-43 13t-16 37q0 23 16 36t43 13t43 -13t16 -36z" />
    <glyph glyph-name="aQaf3uabove.init" unicode="&#x6a8;" horiz-adv-x="461" 
d="M196 206q-81 0 -128 44t-47 120q0 42 14 79t38 64t56 43t69 16q46 0 86 -24.5t70 -67.5t47.5 -100t17.5 -122q0 -133 -77 -195.5t-243 -62.5h-99l-16 10v110l16 11h88q64 0 108.5 5.5t72 18t40.5 33t14 49.5q-25 -14 -58.5 -22.5t-68.5 -8.5zM197 455q-35 0 -58.5 -23.5
t-23.5 -60.5q0 -61 96 -61q26 0 54.5 6t48.5 16q-13 55 -44.5 89t-72.5 34zM255 802q0 -23 -15 -35.5t-41 -12.5q-24 0 -40 12.5t-16 35.5t15 35t41 12t41 -12t15 -35zM182 691q0 -23 -15 -35.5t-41 -12.5q-24 0 -40 12t-16 36q0 23 15 35t41 12t41 -12t15 -35zM328 691
q0 -23 -15 -35.5t-41 -12.5q-24 0 -40 12t-16 36q0 23 15 35t41 12t41 -12t15 -35z" />
    <glyph glyph-name="aQaf3uabove.medi" unicode="&#x6a8;" horiz-adv-x="486" 
d="M502 10l-16 -10h-24q-60 0 -116.5 14t-107.5 38q-51 -24 -109 -38t-117 -14h-12l-16 10v111l16 10h45q20 0 39 1t37 3q-31 32 -48 67.5t-17 72.5q0 39 14.5 73t39 59t58.5 39t73 14q40 0 74 -14.5t59 -40.5t39 -62t14 -78q0 -34 -17.5 -67.5t-49.5 -63.5q30 -3 62 -3h64
l16 -10v-111zM332 261q0 34 -27 57t-66 23q-38 0 -62.5 -19.5t-24.5 -50.5q0 -32 24.5 -59.5t67.5 -47.5q42 18 65 42.5t23 54.5zM297 686q0 -23 -15 -35.5t-41 -12.5q-24 0 -40 12.5t-16 35.5t15 35t41 12t41 -12t15 -35zM224 575q0 -23 -15 -35.5t-41 -12.5q-24 0 -40 12
t-16 36q0 23 15 35t41 12t41 -12t15 -35zM370 575q0 -23 -15 -35.5t-41 -12.5q-24 0 -40 12t-16 36q0 23 15 35t41 12t41 -12t15 -35z" />
    <glyph glyph-name="aQaf3uabove.fina" unicode="&#x6a8;" horiz-adv-x="733" 
d="M749 10l-16 -10h-72q-30 -91 -114 -141.5t-209 -50.5q-145 0 -224 73t-79 208q0 63 25 124t72 113l83 -61q-37 -45 -53.5 -85t-16.5 -83q0 -74 50 -115.5t141 -41.5q81 0 138.5 19.5t85.5 53.5h-104q-41 0 -73.5 13t-55.5 36.5t-35.5 57t-12.5 75.5q0 44 14 83t38 67.5
t56 45t68 16.5q43 0 81 -21.5t67.5 -58.5t48.5 -87.5t24 -108.5h57l16 -11v-110zM457 287q-36 0 -59.5 -25t-23.5 -64q0 -67 102 -67h101q-5 33 -16 61.5t-27 49.5t-35.5 33t-41.5 12zM511 657q0 -23 -15 -35.5t-41 -12.5q-24 0 -40 12.5t-16 35.5t15 35t41 12t41 -12
t15 -35zM438 546q0 -23 -15 -35.5t-41 -12.5q-24 0 -40 12t-16 36q0 23 15 35t41 12t41 -12t15 -35zM584 546q0 -23 -15 -35.5t-41 -12.5q-24 0 -40 12t-16 36q0 23 15 35t41 12t41 -12t15 -35z" />
    <glyph glyph-name="aNunGhunna.init" unicode="&#x6ba;" horiz-adv-x="275" 
d="M0 0l-16 10v110l16 11h20q107 0 107 93q0 33 -15.5 77.5t-45.5 95.5l94 54q35 -50 55 -111t20 -115q0 -107 -54 -166t-154 -59h-27z" />
    <glyph glyph-name="aNunGhunna.medi" unicode="&#x6ba;" horiz-adv-x="328" 
d="M344 10l-17 -10h-9q-54 0 -93 20t-56 54q-14 -32 -56 -53t-97 -21h-16l-16 10v110l16 11h15q96 0 96 79v160h105v-151q0 -88 99 -88h12l17 -11v-110z" />
    <glyph glyph-name="aHehGoalHamzaabove.fina" unicode="&#x6c2;" horiz-adv-x="542" 
d="M558 11l-16 -11h-12q-32 0 -58.5 7.5t-50 24t-46 43t-46.5 65.5q-28 46 -50 63.5t-47 17.5q-61 0 -114 -100l-91 44q38 91 89 135t120 44q47 0 84 -24t79 -82q22 -31 39.5 -51.5t32.5 -32.5t30 -17.5t33 -5.5h8l16 -11v-109zM333 429h-194v50h43q-17 15 -17 44
q0 32 21 53t58 21q35 0 56 -19t21 -50q0 -10 -1 -14h-45v4q0 12 -9 19t-22 7q-14 0 -22 -7.5t-8 -19.5q0 -38 77 -38h42v-50z" />
    <glyph glyph-name="aTehMarbutaGoal.fina" unicode="&#x6c3;" horiz-adv-x="542" 
d="M558 11l-16 -11h-12q-32 0 -58.5 7.5t-50 24t-46 43t-46.5 65.5q-28 46 -50 63.5t-47 17.5q-61 0 -114 -100l-91 44q38 91 89 135t120 44q47 0 84 -24t79 -82q22 -31 39.5 -51.5t32.5 -32.5t30 -17.5t33 -5.5h8l16 -11v-109zM218 477q0 -24 -15.5 -36.5t-41.5 -12.5
q-25 0 -41 12t-16 37q0 23 15.5 35.5t41.5 12.5t41.5 -12.5t15.5 -35.5zM368 477q0 -24 -15.5 -36.5t-42.5 -12.5q-24 0 -40 12t-16 37q0 23 15 35.5t41 12.5q27 0 42.5 -12.5t15.5 -35.5z" />
    <glyph glyph-name="aAe.fina" unicode="&#x6d5;" horiz-adv-x="492" 
d="M508 10l-16 -10h-14q-46 0 -82.5 15.5t-61.5 44.5q-22 -33 -60 -51.5t-87 -18.5q-75 0 -118.5 43t-43.5 118q0 69 37 115.5t122 85.5q22 10 47.5 18.5t60.5 18.5v70h105v-271q0 -27 23 -42t66 -15h6l16 -10v-111zM292 279q-20 -5 -36.5 -10t-33.5 -10q-50 -17 -72 -37
t-22 -49q0 -26 19 -39.5t54 -13.5q27 0 52 9t39 21v129z" />
    <glyph glyph-name="aAlifWasla.isol" unicode="&#x671;" horiz-adv-x="213" arabic-form="isolated" 
d="M159 -22h-104l-2 689h107zM130 877q36 0 58.5 -21t22.5 -57q0 -16 -5 -27.5t-18.5 -18.5t-36.5 -10t-59 -3h-88l-3 50h26q9 38 37 62.5t66 24.5zM119 790q21 0 33.5 2.5t12.5 7.5q0 11 -9.5 18.5t-29.5 7.5t-37.5 -9.5t-28.5 -26.5h59z" />
    <glyph glyph-name="aAlifWasla.fina" unicode="&#x671;" horiz-adv-x="261" arabic-form="final" 
d="M277 10l-16 -10h-7q-38 0 -69 15.5t-43 38.5q-2 -24 -5.5 -46.5t-6.5 -33.5l-96 10q5 27 9.5 67t7.5 90.5t5 108.5t2 121v101.5v77.5t-0.5 62t-0.5 55h107v-465q0 -32 23 -51.5t62 -19.5h12l16 -11v-110zM131 877q36 0 58.5 -21t22.5 -57q0 -16 -5 -27.5t-18.5 -18.5
t-36.5 -10t-59 -3h-88l-3 50h26q9 38 37 62.5t66 24.5zM120 790q21 0 33.5 2.5t12.5 7.5q0 11 -9.5 18.5t-29.5 7.5t-37.5 -9.5t-28.5 -26.5h59z" />
    <glyph glyph-name="aPeh.isol" unicode="&#x67e;" horiz-adv-x="796" arabic-form="isolated" 
d="M370 0q-163 2 -249 67.5t-86 185.5q0 117 76 202l85 -50q-23 -29 -37 -62.5t-14 -70.5q0 -67 63 -104t183 -37h41q106 0 161 24.5t55 75.5q0 29 -11.5 67t-30.5 76l95 52q26 -39 40.5 -92t14.5 -104q0 -114 -87 -172t-261 -58h-38zM523 -114q0 -23 -15 -35.5t-41 -12.5
q-24 0 -40 12t-16 36q0 23 15 35t41 12t41 -12t15 -35zM376 -114q0 -23 -15 -35.5t-41 -12.5q-24 0 -40 12t-16 36q0 23 15 35t41 12t41 -12t15 -35zM450 -227q0 -23 -15 -35.5t-41 -12.5q-24 0 -40 12t-16 36q0 23 15 35t41 12t41 -12t15 -35z" />
    <glyph glyph-name="aPeh.fina" unicode="&#x67e;" horiz-adv-x="869" arabic-form="final" 
d="M885 10l-16 -10h-9q-51 0 -94.5 18.5t-59.5 59.5q-19 -37 -80 -57.5t-181 -20.5h-69q-84 0 -147.5 17.5t-106.5 50.5t-65 79.5t-22 104.5q0 62 19.5 111.5t56.5 91.5l85 -50q-21 -26 -36 -59.5t-15 -73.5q0 -67 63.5 -104t181.5 -37h46q61 0 102.5 5t67 16t36.5 29t11 45
v144h105v-151q0 -27 8.5 -44.5t22.5 -27t31.5 -13t36.5 -3.5h12l16 -11v-110zM543 -114q0 -23 -15 -35.5t-41 -12.5q-24 0 -40 12t-16 36q0 23 15 35t41 12t41 -12t15 -35zM396 -114q0 -23 -15 -35.5t-41 -12.5q-24 0 -40 12t-16 36q0 23 15 35t41 12t41 -12t15 -35z
M470 -227q0 -23 -15 -35.5t-41 -12.5q-24 0 -40 12t-16 36q0 23 15 35t41 12t41 -12t15 -35z" />
    <glyph glyph-name="aPeh.init" unicode="&#x67e;" horiz-adv-x="275" arabic-form="initial" 
d="M0 0l-16 10v110l16 11h20q107 0 107 93q0 33 -15.5 77.5t-45.5 95.5l94 54q35 -50 55 -111t20 -115q0 -107 -54 -166t-154 -59h-27zM265 -114q0 -23 -15 -35.5t-41 -12.5q-24 0 -40 12t-16 36q0 23 15 35t41 12t41 -12t15 -35zM118 -114q0 -23 -15 -35.5t-41 -12.5
q-24 0 -40 12t-16 36q0 23 15 35t41 12t41 -12t15 -35zM192 -227q0 -23 -15 -35.5t-41 -12.5q-24 0 -40 12t-16 36q0 23 15 35t41 12t41 -12t15 -35z" />
    <glyph glyph-name="aPeh.medi" unicode="&#x67e;" horiz-adv-x="328" arabic-form="medial" 
d="M344 10l-17 -10h-9q-54 0 -93 20t-56 54q-14 -32 -56 -53t-97 -21h-16l-16 10v110l16 11h15q96 0 96 79v160h105v-151q0 -88 99 -88h12l17 -11v-110zM293 -114q0 -23 -15 -35.5t-41 -12.5q-24 0 -40 12t-16 36q0 23 15 35t41 12t41 -12t15 -35zM146 -114q0 -23 -15 -35.5
t-41 -12.5q-24 0 -40 12t-16 36q0 23 15 35t41 12t41 -12t15 -35zM220 -227q0 -23 -15 -35.5t-41 -12.5q-24 0 -40 12t-16 36q0 23 15 35t41 12t41 -12t15 -35z" />
    <glyph glyph-name="aTteh.isol" unicode="&#x679;" horiz-adv-x="796" arabic-form="isolated" 
d="M370 0q-163 2 -249 67.5t-86 185.5q0 117 76 202l85 -50q-23 -29 -37 -62.5t-14 -70.5q0 -67 63 -104t183 -37h41q106 0 161 24.5t55 75.5q0 29 -11.5 67t-30.5 76l95 52q26 -39 40.5 -92t14.5 -104q0 -114 -87 -172t-261 -58h-38zM362 636l44 -12l-23 -56q22 11 45 11
q34 0 54 -21t20 -55q0 -32 -23.5 -45t-82.5 -13h-100l-4 50h26zM407 495q49 0 49 10q0 11 -9.5 17.5t-27.5 6.5q-22 0 -39.5 -9.5t-27.5 -24.5h55z" />
    <glyph glyph-name="aTteh.fina" unicode="&#x679;" horiz-adv-x="869" arabic-form="final" 
d="M885 10l-16 -10h-9q-51 0 -94.5 18.5t-59.5 59.5q-19 -37 -80 -57.5t-181 -20.5h-69q-84 0 -147.5 17.5t-106.5 50.5t-65 79.5t-22 104.5q0 62 19.5 111.5t56.5 91.5l85 -50q-21 -26 -36 -59.5t-15 -73.5q0 -67 63.5 -104t181.5 -37h46q61 0 102.5 5t67 16t36.5 29t11 45
v144h105v-151q0 -27 8.5 -44.5t22.5 -27t31.5 -13t36.5 -3.5h12l16 -11v-110zM403 636l44 -12l-23 -56q22 11 45 11q34 0 54 -21t20 -55q0 -32 -23.5 -45t-82.5 -13h-100l-4 50h26zM448 495q49 0 49 10q0 11 -9.5 17.5t-27.5 6.5q-22 0 -39.5 -9.5t-27.5 -24.5h55z" />
    <glyph glyph-name="aTteh.init" unicode="&#x679;" horiz-adv-x="275" arabic-form="initial" 
d="M0 0l-16 10v110l16 11h20q107 0 107 93q0 33 -15.5 77.5t-45.5 95.5l94 54q35 -50 55 -111t20 -115q0 -107 -54 -166t-154 -59h-27zM84 719l44 -12l-23 -56q22 11 45 11q34 0 54 -21t20 -55q0 -32 -23.5 -45t-82.5 -13h-100l-4 50h26zM129 578q49 0 49 10q0 11 -9.5 17.5
t-27.5 6.5q-22 0 -39.5 -9.5t-27.5 -24.5h55z" />
    <glyph glyph-name="aTteh.medi" unicode="&#x679;" horiz-adv-x="328" arabic-form="medial" 
d="M344 10l-17 -10h-9q-54 0 -93 20t-56 54q-14 -32 -56 -53t-97 -21h-16l-16 10v110l16 11h15q96 0 96 79v160h105v-151q0 -88 99 -88h12l17 -11v-110zM127 636l44 -12l-23 -56q22 11 45 11q34 0 54 -21t20 -55q0 -32 -23.5 -45t-82.5 -13h-100l-4 50h26zM172 495
q49 0 49 10q0 11 -9.5 17.5t-27.5 6.5q-22 0 -39.5 -9.5t-27.5 -24.5h55z" />
    <glyph glyph-name="aVeh.isol" unicode="&#x6a4;" horiz-adv-x="800" arabic-form="isolated" 
d="M536 206q-81 0 -128 43.5t-47 120.5q0 42 13.5 79t37.5 64t56 43t68 16q47 0 87.5 -25t70.5 -68.5t47.5 -102.5t17.5 -126q0 -129 -81.5 -189.5t-255.5 -60.5h-37q-170 0 -260 65t-90 188q0 117 76 202l85 -50q-51 -62 -51 -133q0 -68 64 -104.5t183 -36.5h27
q130 0 187 24.5t57 80.5q-25 -14 -58 -22t-69 -8zM536 455q-35 0 -58 -24t-23 -60q0 -32 23 -46.5t74 -14.5q26 0 54 6t48 15q-12 56 -44 90t-74 34zM589 802q0 -23 -15 -35.5t-41 -12.5q-24 0 -40 12.5t-16 35.5t15 35t41 12t41 -12t15 -35zM516 691q0 -23 -15 -35.5
t-41 -12.5q-24 0 -40 12t-16 36q0 23 15 35t41 12t41 -12t15 -35zM662 691q0 -23 -15 -35.5t-41 -12.5q-24 0 -40 12t-16 36q0 23 15 35t41 12t41 -12t15 -35z" />
    <glyph glyph-name="aVeh.fina" unicode="&#x6a4;" horiz-adv-x="887" arabic-form="final" 
d="M903 10l-16 -10h-25q-60 0 -117 13.5t-107 38.5q-54 -25 -116 -38.5t-128 -13.5h-19q-163 1 -251.5 66.5t-88.5 186.5q0 117 76 202l85 -50q-51 -62 -51 -132q0 -69 63.5 -105.5t181.5 -36.5h24q57 0 107 6q-30 32 -47 68t-17 74q0 37 14.5 70t39.5 58t58.5 39t71.5 14
q39 0 73 -14.5t59 -40t39.5 -60.5t14.5 -75q0 -36 -17 -70.5t-48 -65.5q28 -3 60 -3h65l16 -10v-111zM732 260q0 35 -26 58t-68 23q-38 0 -62 -19.5t-24 -51.5t23.5 -58.5t65.5 -46.5q44 17 67.5 41.5t23.5 53.5zM697 686q0 -23 -15 -35.5t-41 -12.5q-24 0 -40 12.5
t-16 35.5t15 35t41 12t41 -12t15 -35zM624 575q0 -23 -15 -35.5t-41 -12.5q-24 0 -40 12t-16 36q0 23 15 35t41 12t41 -12t15 -35zM770 575q0 -23 -15 -35.5t-41 -12.5q-24 0 -40 12t-16 36q0 23 15 35t41 12t41 -12t15 -35z" />
    <glyph glyph-name="aVeh.init" unicode="&#x6a4;" horiz-adv-x="461" arabic-form="initial" 
d="M196 206q-81 0 -128 44t-47 120q0 42 14 79t38 64t56 43t69 16q46 0 86 -24.5t70 -67.5t47.5 -100t17.5 -122q0 -133 -77 -195.5t-243 -62.5h-99l-16 10v110l16 11h88q64 0 108.5 5.5t72 18t40.5 33t14 49.5q-25 -14 -58.5 -22.5t-68.5 -8.5zM197 455q-35 0 -58.5 -23.5
t-23.5 -60.5q0 -61 96 -61q26 0 54.5 6t48.5 16q-13 55 -44.5 89t-72.5 34zM255 802q0 -23 -15 -35.5t-41 -12.5q-24 0 -40 12.5t-16 35.5t15 35t41 12t41 -12t15 -35zM182 691q0 -23 -15 -35.5t-41 -12.5q-24 0 -40 12t-16 36q0 23 15 35t41 12t41 -12t15 -35zM328 691
q0 -23 -15 -35.5t-41 -12.5q-24 0 -40 12t-16 36q0 23 15 35t41 12t41 -12t15 -35z" />
    <glyph glyph-name="aVeh.medi" unicode="&#x6a4;" horiz-adv-x="486" arabic-form="medial" 
d="M502 10l-16 -10h-24q-60 0 -116.5 14t-107.5 38q-51 -24 -109 -38t-117 -14h-12l-16 10v111l16 10h45q20 0 39 1t37 3q-31 32 -48 67.5t-17 72.5q0 39 14.5 73t39 59t58.5 39t73 14q40 0 74 -14.5t59 -40.5t39 -62t14 -78q0 -34 -17.5 -67.5t-49.5 -63.5q30 -3 62 -3h64
l16 -10v-111zM332 261q0 34 -27 57t-66 23q-38 0 -62.5 -19.5t-24.5 -50.5q0 -32 24.5 -59.5t67.5 -47.5q42 18 65 42.5t23 54.5zM297 686q0 -23 -15 -35.5t-41 -12.5q-24 0 -40 12.5t-16 35.5t15 35t41 12t41 -12t15 -35zM224 575q0 -23 -15 -35.5t-41 -12.5q-24 0 -40 12
t-16 36q0 23 15 35t41 12t41 -12t15 -35zM370 575q0 -23 -15 -35.5t-41 -12.5q-24 0 -40 12t-16 36q0 23 15 35t41 12t41 -12t15 -35z" />
    <glyph glyph-name="aTcheh.isol" unicode="&#x686;" horiz-adv-x="603" arabic-form="isolated" 
d="M575 -206q-18 -19 -46.5 -34.5t-63 -27t-73.5 -17.5t-79 -6q-61 0 -114.5 15.5t-93 45.5t-62.5 73t-23 98q0 54 27.5 102.5t79.5 88t126 69.5t167 48q-32 24 -70 49q-29 17 -59.5 29t-62.5 12q-39 0 -61 -22.5t-22 -54.5q0 -12 2.5 -22t4.5 -15l-88 -42q-12 17 -19.5 43
t-7.5 54q0 38 14 70.5t39 56.5t60.5 38t77.5 14q52 0 100 -22t91 -52q48 -34 89 -67t73 -46l-26 -125q-86 -4 -162.5 -19.5t-134.5 -41t-92 -60t-34 -75.5q0 -29 14 -50t38 -34.5t55.5 -19.5t66.5 -6q39 0 74.5 6t66 16t55 22t41.5 23zM297 -1q0 -17 -12 -26t-32 -9
q-17 0 -30.5 9t-13.5 26q0 18 12 28t32 10t32 -10t12 -28zM413 0q0 -17 -12 -26.5t-32 -9.5q-17 0 -30.5 9t-13.5 27q0 17 12 27t32 10t32 -9.5t12 -27.5zM355 -74q0 -17 -12 -26.5t-32 -9.5q-17 0 -30 8.5t-13 27.5q0 17 11.5 26.5t31.5 9.5t32 -9.5t12 -26.5z" />
    <glyph glyph-name="aTcheh.fina" unicode="&#x686;" horiz-adv-x="640" arabic-form="final" 
d="M575 -206q-18 -19 -46.5 -34.5t-63 -27t-73.5 -17.5t-79 -6q-61 0 -114.5 15.5t-93 45.5t-62.5 73t-23 98q0 54 27.5 102.5t79.5 88t126 69.5t167 48q-32 24 -70 49q-29 17 -59.5 29t-62.5 12q-39 0 -61 -22.5t-22 -54.5q0 -12 2.5 -22t4.5 -15l-88 -42q-12 17 -19.5 43
t-7.5 54q0 38 14 70.5t39 56.5t60.5 38t77.5 14q52 0 100 -22t91 -52q48 -34 89 -67t73 -46l-20 -95q6 -20 24.5 -33t47.5 -13h6l17 -11v-110l-17 -10h-5q-68 0 -103.5 40.5t-36.5 101.5q-75 -8 -141 -24.5t-115 -41.5t-77.5 -56.5t-28.5 -68.5q0 -29 14 -50t38 -34.5
t55.5 -19.5t66.5 -6q39 0 74.5 6t66 16t55 22t41.5 23zM293 1q0 -17 -12 -26t-32 -9q-17 0 -30.5 9t-13.5 26q0 18 12 28t32 10t32 -10t12 -28zM409 2q0 -17 -12 -26.5t-32 -9.5q-17 0 -30.5 9t-13.5 27q0 17 12 27t32 10t32 -9.5t12 -27.5zM351 -72q0 -17 -12 -26.5
t-32 -9.5q-17 0 -30 8.5t-13 27.5q0 17 11.5 26.5t31.5 9.5t32 -9.5t12 -26.5z" />
    <glyph glyph-name="aTcheh.init" unicode="&#x686;" horiz-adv-x="617" arabic-form="initial" 
d="M570 118q-36 0 -92 -18.5t-126 -40.5t-150 -40.5t-165 -18.5h-37l-16 10v110l16 11h39q55 0 108.5 8.5t104 21t97.5 26t90 23.5q-14 11 -28.5 22t-31.5 22q-38 26 -71 42.5t-68 16.5q-36 0 -58 -20t-22 -52q0 -8 2 -16.5t4 -12.5l-97 -26q-16 30 -16 71t14.5 73.5
t40 55.5t59.5 35t73 12q50 0 100 -23.5t100 -59.5q20 -15 41.5 -31t41.5 -31t38.5 -27t33.5 -19zM420 -114q0 -23 -15 -35.5t-41 -12.5q-24 0 -40 12t-16 36q0 23 15 35t41 12t41 -12t15 -35zM273 -114q0 -23 -15 -35.5t-41 -12.5q-24 0 -40 12t-16 36q0 23 15 35t41 12
t41 -12t15 -35zM347 -227q0 -23 -15 -35.5t-41 -12.5q-24 0 -40 12t-16 36q0 23 15 35t41 12t41 -12t15 -35z" />
    <glyph glyph-name="aTcheh.medi" unicode="&#x686;" horiz-adv-x="655" arabic-form="medial" 
d="M671 10l-16 -10h-7q-25 0 -47 7t-39 21t-27.5 34.5t-11.5 49.5q-41 -9 -94.5 -28t-116.5 -37.5t-132.5 -32.5t-142.5 -14h-37l-16 10v110l16 11h39q55 0 108.5 8.5t104 21t97.5 26t90 23.5q-14 11 -28.5 22t-31.5 22q-38 26 -71 42.5t-68 16.5q-36 0 -58 -20t-22 -52
q0 -8 2 -16.5t4 -12.5l-97 -26q-16 30 -16 71t14.5 73.5t40 55.5t59.5 35t73 12q50 0 100 -23.5t100 -59.5q20 -15 41.5 -31t41.5 -31t38.5 -27t33.5 -19l-15 -71q7 -26 27 -32.5t40 -7.5h8l16 -11v-110zM420 -114q0 -23 -15 -35.5t-41 -12.5q-24 0 -40 12t-16 36
q0 23 15 35t41 12t41 -12t15 -35zM273 -114q0 -23 -15 -35.5t-41 -12.5q-24 0 -40 12t-16 36q0 23 15 35t41 12t41 -12t15 -35zM347 -227q0 -23 -15 -35.5t-41 -12.5q-24 0 -40 12t-16 36q0 23 15 35t41 12t41 -12t15 -35z" />
    <glyph glyph-name="aDdal.isol" unicode="&#x688;" horiz-adv-x="528" arabic-form="isolated" 
d="M295 131q54 0 73.5 10t19.5 39q0 54 -93 54h-69q-91 0 -131.5 38.5t-40.5 124.5q0 27 1.5 47.5t6.5 37.5h106q-2 -16 -3.5 -35t-1.5 -33q0 -62 64 -62h52q106 0 164 -48.5t58 -137.5q0 -87 -56 -126.5t-178 -39.5h-239l-6 131h273zM283 643l44 -12l-23 -56q22 11 45 11
q34 0 54 -21t20 -55q0 -32 -23.5 -45t-82.5 -13h-100l-4 50h26zM328 502q49 0 49 10q0 11 -9.5 17.5t-27.5 6.5q-22 0 -39.5 -9.5t-27.5 -24.5h55z" />
    <glyph glyph-name="aDdal.fina" unicode="&#x688;" horiz-adv-x="564" arabic-form="final" 
d="M580 10l-17 -10h-8q-32 0 -57 13t-39 38q-55 -51 -192 -51h-239l-6 131h272q55 0 74.5 10t19.5 39q0 54 -94 54h-68q-91 0 -131.5 38.5t-40.5 124.5q0 27 1.5 47.5t6.5 37.5h106q-2 -16 -3.5 -35t-1.5 -33q0 -62 64 -62h52q106 0 164 -48.5t58 -137.5v-9.5t-1 -8.5
q9 -8 23.5 -12.5t31.5 -4.5h9l16 -11v-110zM281 643l44 -12l-23 -56q22 11 45 11q34 0 54 -21t20 -55q0 -32 -23.5 -45t-82.5 -13h-100l-4 50h26zM326 502q49 0 49 10q0 11 -9.5 17.5t-27.5 6.5q-22 0 -39.5 -9.5t-27.5 -24.5h55z" />
    <glyph glyph-name="aJeh.isol" unicode="&#x698;" horiz-adv-x="475" arabic-form="isolated" 
d="M-14 -42q23 -10 53 -16t59 -6q49 0 90.5 14.5t72 40.5t47.5 62t17 78q0 44 -18 100t-51 113l103 54q38 -59 58 -127t20 -138q0 -75 -22.5 -135t-64 -102t-101 -65t-132.5 -23q-45 0 -87.5 10t-66.5 27zM356 615q0 -23 -15 -35.5t-41 -12.5q-24 0 -40 12.5t-16 35.5t15 35
t41 12t41 -12t15 -35zM283 504q0 -23 -15 -35.5t-41 -12.5q-24 0 -40 12t-16 36q0 23 15 35t41 12t41 -12t15 -35zM429 504q0 -23 -15 -35.5t-41 -12.5q-24 0 -40 12t-16 36q0 23 15 35t41 12t41 -12t15 -35z" />
    <glyph glyph-name="aJeh.fina" unicode="&#x698;" horiz-adv-x="548" arabic-form="final" 
d="M564 11l-16 -11h-7q-38 0 -68 17.5t-42 45.5q-20 -119 -101.5 -187t-210.5 -68q-47 0 -89.5 10t-66.5 27l23 113q23 -10 53.5 -16t59.5 -6q49 0 90.5 14.5t71.5 40.5t47 61.5t17 77.5q0 38 -15 91t-47 127l102 50q13 -33 29.5 -76t37.5 -96q12 -29 24 -47.5t25.5 -29
t28 -14.5t30.5 -4h8l16 -11v-109zM356 615q0 -23 -15 -35.5t-41 -12.5q-24 0 -40 12.5t-16 35.5t15 35t41 12t41 -12t15 -35zM283 504q0 -23 -15 -35.5t-41 -12.5q-24 0 -40 12t-16 36q0 23 15 35t41 12t41 -12t15 -35zM429 504q0 -23 -15 -35.5t-41 -12.5q-24 0 -40 12
t-16 36q0 23 15 35t41 12t41 -12t15 -35z" />
    <glyph glyph-name="aRreh.isol" unicode="&#x691;" horiz-adv-x="475" arabic-form="isolated" 
d="M-14 -42q23 -10 53 -16t59 -6q49 0 90.5 14.5t72 40.5t47.5 62t17 78q0 44 -18 100t-51 113l103 54q38 -59 58 -127t20 -138q0 -75 -22.5 -135t-64 -102t-101 -65t-132.5 -23q-45 0 -87.5 10t-66.5 27zM263 648l44 -12l-23 -56q22 11 45 11q34 0 54 -21t20 -55
q0 -32 -23.5 -45t-82.5 -13h-100l-4 50h26zM308 507q49 0 49 10q0 11 -9.5 17.5t-27.5 6.5q-22 0 -39.5 -9.5t-27.5 -24.5h55z" />
    <glyph glyph-name="aRreh.fina" unicode="&#x691;" horiz-adv-x="548" arabic-form="final" 
d="M564 11l-16 -11h-7q-38 0 -68 17.5t-42 45.5q-20 -119 -101.5 -187t-210.5 -68q-47 0 -89.5 10t-66.5 27l23 113q23 -10 53.5 -16t59.5 -6q49 0 90.5 14.5t71.5 40.5t47 61.5t17 77.5q0 38 -15 91t-47 127l102 50q13 -33 29.5 -76t37.5 -96q12 -29 24 -47.5t25.5 -29
t28 -14.5t30.5 -4h8l16 -11v-109zM263 648l44 -12l-23 -56q22 11 45 11q34 0 54 -21t20 -55q0 -32 -23.5 -45t-82.5 -13h-100l-4 50h26zM308 507q49 0 49 10q0 11 -9.5 17.5t-27.5 6.5q-22 0 -39.5 -9.5t-27.5 -24.5h55z" />
    <glyph glyph-name="aKeheh.isol" unicode="&#x6a9;" horiz-adv-x="743" arabic-form="isolated" 
d="M275 249q-73 0 -109.5 32t-36.5 79q0 33 18 70.5t50.5 77.5t78 80t101.5 79l69 -92q-44 -32 -82 -61.5t-66 -54.5t-44.5 -44t-16.5 -31q0 -19 30 -19h207q115 0 175.5 -51t60.5 -152q0 -83 -50.5 -122.5t-170.5 -39.5h-462l-7 131h489q53 0 71.5 10.5t18.5 39.5
q0 31 -26.5 49.5t-73.5 18.5h-224z" />
    <glyph glyph-name="aKeheh.fina" unicode="&#x6a9;" horiz-adv-x="770" arabic-form="final" 
d="M786 10l-16 -10h-7q-32 0 -56 13t-38 34q-51 -47 -180 -47h-462l-7 131h489q53 0 71.5 10.5t18.5 39.5q0 31 -27 49.5t-73 18.5h-224q-74 0 -110 31.5t-36 79.5q0 33 18 70.5t50.5 77.5t78 80t101.5 79l69 -92q-44 -32 -82 -61.5t-66 -54.5t-44.5 -44t-16.5 -31
q0 -19 30 -19h207q115 0 175.5 -51t60.5 -152q0 -11 -1 -16q20 -15 54 -15h7l16 -11v-110z" />
    <glyph glyph-name="aKeheh.init" unicode="&#x6a9;" horiz-adv-x="643" arabic-form="initial" 
d="M0 0l-16 11v109l16 11h410q52 0 71 10.5t19 39.5q0 31 -27 49.5t-73 18.5h-224q-74 0 -110.5 32t-36.5 79q0 33 18 70.5t50.5 77.5t78.5 80t102 79l69 -92q-44 -32 -82 -61.5t-66 -54.5t-44.5 -44t-16.5 -31q0 -19 29 -19h208q114 0 174.5 -51t60.5 -152
q0 -83 -50.5 -122.5t-170.5 -39.5h-389z" />
    <glyph glyph-name="aKeheh.medi" unicode="&#x6a9;" horiz-adv-x="671" arabic-form="medial" 
d="M687 10l-16 -10h-8q-32 0 -56 13t-38 35q-49 -48 -180 -48h-389l-16 11v109l16 11h409q53 0 71.5 10.5t18.5 39.5q0 31 -27 49.5t-73 18.5h-223q-74 0 -110.5 32t-36.5 79q0 33 18 70.5t50.5 77.5t78.5 80t102 79l69 -92q-44 -32 -82.5 -61.5t-66.5 -54.5t-44 -44
t-16 -31q0 -19 29 -19h208q114 0 174.5 -51t60.5 -152q0 -10 -1 -15q19 -16 54 -16h8l16 -11v-110z" />
    <glyph glyph-name="aGaf.isol" unicode="&#x6af;" horiz-adv-x="743" arabic-form="isolated" 
d="M275 249q-73 0 -109.5 32t-36.5 79q0 33 18 70.5t50.5 77.5t78 80t101.5 79l69 -92q-44 -32 -82 -61.5t-66 -54.5t-44.5 -44t-16.5 -31q0 -19 30 -19h207q115 0 175.5 -51t60.5 -152q0 -83 -50.5 -122.5t-170.5 -39.5h-462l-7 131h489q53 0 71.5 10.5t18.5 39.5
q0 31 -26.5 49.5t-73.5 18.5h-224zM330 707q-22 -17 -49 -40.5t-54 -49.5t-52.5 -52.5t-43.5 -48.5l-50 62q15 20 38 45t50 51t56 51t56 45z" />
    <glyph glyph-name="aGaf.fina" unicode="&#x6af;" horiz-adv-x="770" arabic-form="final" 
d="M786 10l-16 -10h-7q-32 0 -56 13t-38 34q-51 -47 -180 -47h-462l-7 131h489q53 0 71.5 10.5t18.5 39.5q0 31 -27 49.5t-73 18.5h-224q-74 0 -110 31.5t-36 79.5q0 33 18 70.5t50.5 77.5t78 80t101.5 79l69 -92q-44 -32 -82 -61.5t-66 -54.5t-44.5 -44t-16.5 -31
q0 -19 30 -19h207q115 0 175.5 -51t60.5 -152q0 -11 -1 -16q20 -15 54 -15h7l16 -11v-110zM330 707q-22 -17 -49 -40.5t-54 -49.5t-52.5 -52.5t-43.5 -48.5l-50 62q15 20 38 45t50 51t56 51t56 45z" />
    <glyph glyph-name="aGaf.init" unicode="&#x6af;" horiz-adv-x="643" arabic-form="initial" 
d="M0 0l-16 11v109l16 11h410q52 0 71 10.5t19 39.5q0 31 -27 49.5t-73 18.5h-224q-74 0 -110.5 32t-36.5 79q0 33 18 70.5t50.5 77.5t78.5 80t102 79l69 -92q-44 -32 -82 -61.5t-66 -54.5t-44.5 -44t-16.5 -31q0 -19 29 -19h208q114 0 174.5 -51t60.5 -152
q0 -83 -50.5 -122.5t-170.5 -39.5h-389zM230 707q-22 -17 -49 -40.5t-54 -49.5t-52.5 -52.5t-43.5 -48.5l-50 62q15 20 38 45t50 51t56 51t56 45z" />
    <glyph glyph-name="aGaf.medi" unicode="&#x6af;" horiz-adv-x="671" arabic-form="medial" 
d="M687 10l-16 -10h-8q-32 0 -56 13t-38 35q-49 -48 -180 -48h-389l-16 11v109l16 11h409q53 0 71.5 10.5t18.5 39.5q0 31 -27 49.5t-73 18.5h-223q-74 0 -110.5 32t-36.5 79q0 33 18 70.5t50.5 77.5t78.5 80t102 79l69 -92q-44 -32 -82.5 -61.5t-66.5 -54.5t-44 -44
t-16 -31q0 -19 29 -19h208q114 0 174.5 -51t60.5 -152q0 -10 -1 -15q19 -16 54 -16h8l16 -11v-110zM230 707q-22 -17 -49 -40.5t-54 -49.5t-52.5 -52.5t-43.5 -48.5l-50 62q15 20 38 45t50 51t56 51t56 45z" />
    <glyph glyph-name="aNunGhunna.isol" unicode="&#x6ba;" horiz-adv-x="632" arabic-form="isolated" 
d="M516 357q19 -27 34.5 -59.5t26.5 -67t17 -70t6 -68.5q0 -64 -20 -116.5t-57 -89.5t-88.5 -57.5t-114.5 -20.5q-66 0 -118.5 19.5t-89.5 55t-57 86.5t-20 114q0 68 25.5 131.5t71.5 111.5l83 -61q-36 -44 -53 -84t-17 -83q0 -75 48.5 -116.5t136.5 -41.5q72 0 115.5 36.5
t43.5 96.5q0 52 -18.5 111.5t-53.5 116.5z" />
    <glyph glyph-name="aNunGhunna.fina" unicode="&#x6ba;" horiz-adv-x="692" arabic-form="final" 
d="M708 10l-16 -10h-11q-58 0 -88 32q-8 -51 -30 -92.5t-57 -70.5t-81.5 -45t-102.5 -16q-66 0 -119.5 19.5t-90.5 55.5t-57 87t-20 114q0 71 26.5 133t70.5 109l83 -61q-36 -45 -53 -84t-17 -85q0 -72 48 -114t140 -42q74 0 115.5 38.5t41.5 101.5q0 37 -19.5 96.5
t-51.5 128.5l101 52q19 -41 32 -76t33 -78q19 -44 42.5 -58t52.5 -14h12l16 -11v-110z" />
    <glyph glyph-name="aHehYeh.isol" unicode="&#x6c0;" horiz-adv-x="462" arabic-form="isolated" 
d="M231 -6q-94 0 -145.5 54.5t-51.5 153.5q0 49 15 90.5t41 72t61.5 48t77.5 17.5q43 0 79.5 -17.5t63 -48t41.5 -73.5t15 -94q0 -203 -197 -203zM325 200q0 45 -28 74t-72 29q-39 0 -64.5 -26.5t-25.5 -65.5q0 -41 25.5 -63t71.5 -22q45 0 69 19t24 55zM326 528h-194v50h43
q-17 15 -17 44q0 32 21 53t58 21q35 0 56 -19t21 -50q0 -10 -1 -14h-45v4q0 12 -9 19t-22 7q-14 0 -22 -7.5t-8 -19.5q0 -38 77 -38h42v-50z" />
    <glyph glyph-name="aHehYeh.fina" unicode="&#x6c0;" horiz-adv-x="492" arabic-form="final" 
d="M508 10l-16 -10h-14q-46 0 -82.5 15.5t-61.5 44.5q-22 -33 -60 -51.5t-87 -18.5q-75 0 -118.5 43t-43.5 118q0 69 37 115.5t122 85.5q22 10 47.5 18.5t60.5 18.5v70h105v-271q0 -27 23 -42t66 -15h6l16 -10v-111zM292 279q-20 -5 -36.5 -10t-33.5 -10q-50 -17 -72 -37
t-22 -49q0 -26 19 -39.5t54 -13.5q27 0 52 9t39 21v129zM248 452h-194v50h43q-17 15 -17 44q0 32 21 53t58 21q35 0 56 -19t21 -50q0 -10 -1 -14h-45v4q0 12 -9 19t-22 7q-14 0 -22 -7.5t-8 -19.5q0 -38 77 -38h42v-50z" />
    <glyph glyph-name="aHehGoal.isol" unicode="&#x6c1;" horiz-adv-x="462" arabic-form="isolated" 
d="M231 -6q-94 0 -145.5 54.5t-51.5 153.5q0 49 15 90.5t41 72t61.5 48t77.5 17.5q43 0 79.5 -17.5t63 -48t41.5 -73.5t15 -94q0 -203 -197 -203zM325 200q0 45 -28 74t-72 29q-39 0 -64.5 -26.5t-25.5 -65.5q0 -41 25.5 -63t71.5 -22q45 0 69 19t24 55z" />
    <glyph glyph-name="aHehGoal.fina" unicode="&#x6c1;" horiz-adv-x="542" arabic-form="final" 
d="M558 11l-16 -11h-12q-32 0 -58.5 7.5t-50 24t-46 43t-46.5 65.5q-28 46 -50 63.5t-47 17.5q-61 0 -114 -100l-91 44q38 91 89 135t120 44q47 0 84 -24t79 -82q22 -31 39.5 -51.5t32.5 -32.5t30 -17.5t33 -5.5h8l16 -11v-109z" />
    <glyph glyph-name="aHehGoal.init" unicode="&#x6c1;" horiz-adv-x="275" arabic-form="initial" 
d="M0 0l-16 10v110l16 11h20q107 0 107 93q0 33 -15.5 77.5t-45.5 95.5l94 54q35 -50 55 -111t20 -115q0 -107 -54 -166t-154 -59h-27zM144 -287q-36 7 -58 31t-22 56q0 41 23.5 75t74.5 66l45 -46q-44 -36 -44 -70q0 -15 9.5 -28.5t26.5 -23.5z" />
    <glyph glyph-name="aHehGoal.medi" unicode="&#x6c1;" horiz-adv-x="493" arabic-form="medial" 
d="M362 -208q-43 15 -81.5 41t-70 59.5t-54 73t-33.5 81.5q-20 -20 -50 -33t-61 -14h-11l-17 12v107l16 12h4q76 0 97 73l25 86l95 -18q-5 -24 -8 -46.5t-3 -47.5q0 -63 24.5 -115t76.5 -100q-6 22 -6 46q0 55 43.5 88.5t113.5 33.5h31l16 -12v-107l-16 -12h-10
q-44 0 -63 -14.5t-19 -46.5q0 -39 20 -71zM118 -384q-36 7 -58 31t-22 56q0 41 23.5 75t74.5 66l45 -46q-44 -36 -44 -70q0 -15 9.5 -28.5t26.5 -23.5z" />
    <glyph glyph-name="aHehDoachashmi.isol" unicode="&#x6be;" horiz-adv-x="714" arabic-form="isolated" 
d="M687 154q0 -78 -50.5 -119t-145.5 -41q-51 0 -101 14.5t-95 39.5q-50 -23 -106.5 -35.5t-118.5 -12.5h-46l-7 131h74q25 0 48 1.5t45 3.5q-30 34 -47.5 71t-17.5 75q0 39 13.5 72t38 57t58 37.5t73.5 13.5q48 0 87.5 -22t62.5 -59q48 -8 91 -29t75 -51.5t50.5 -68.5
t18.5 -78zM390 265q0 34 -25.5 55t-66.5 21q-40 0 -63.5 -19.5t-23.5 -53.5q0 -31 22.5 -58.5t60.5 -47.5q45 18 70.5 44.5t25.5 58.5zM408 126q17 -3 33.5 -4t34.5 -1q105 0 105 55q0 15 -8 30t-21.5 28.5t-32 24.5t-39.5 18q-2 -42 -20.5 -80t-51.5 -71z" />
    <glyph glyph-name="aHehDoachashmi.fina" unicode="&#x6be;" horiz-adv-x="550" arabic-form="final" 
d="M566 10l-16 -10h-29t-22 1q9 -15 15 -33.5t6 -36.5q0 -66 -43 -105t-117 -39q-100 0 -167 57.5t-90 155.5h-81l-6 131h79q4 67 21 123.5t44 97t63 63.5t78 23q32 0 61 -16.5t50.5 -45t34.5 -66t13 -79.5q0 -58 -22 -99q24 -1 52 -1h60l16 -10v-111zM371 226q0 19 -5.5 36
t-15 29.5t-22 20t-26.5 7.5q-20 0 -39 -15t-34 -40.5t-25.5 -59.5t-13.5 -71q93 6 137 28.5t44 64.5zM208 8q20 -47 57 -73.5t88 -26.5q37 0 57 13t20 37q0 30 -25.5 53t-65.5 31q-52 -23 -131 -34z" />
    <glyph glyph-name="aHehDoachashmi.init" unicode="&#x6be;" horiz-adv-x="653" arabic-form="initial" 
d="M625 154q0 -77 -50.5 -118.5t-144.5 -41.5q-51 0 -100.5 14.5t-94.5 39.5q-48 -23 -102.5 -35.5t-113.5 -12.5h-19l-16 10v111l16 10h30q25 0 48 1.5t44 3.5q-30 34 -47 71t-17 75q0 39 13.5 72t37.5 57t57.5 37.5t73.5 13.5q48 0 87.5 -22t62.5 -59q49 -8 92 -29
t74.5 -51.5t50 -68.5t18.5 -78zM328 265q0 34 -25 55t-66 21q-39 0 -63 -19.5t-24 -53.5q0 -31 22.5 -58.5t60.5 -47.5q45 18 70 44.5t25 58.5zM418 276q-2 -42 -20.5 -80t-50.5 -70q17 -3 34 -4t34 -1q104 0 104 55q0 30 -28.5 58t-72.5 42z" />
    <glyph glyph-name="aHehDoachashmi.medi" unicode="&#x6be;" horiz-adv-x="518" arabic-form="medial" 
d="M534 10l-16 -10h-50q10 -14 15.5 -32.5t5.5 -36.5q0 -66 -43 -105t-118 -39q-49 0 -91 15t-75 42.5t-56 67t-34 88.5h-72l-16 10v111l16 10h64q4 67 21.5 123.5t44.5 97.5t63 63.5t78 22.5q31 0 59.5 -16.5t50.5 -45t34.5 -66t12.5 -79.5q0 -57 -21 -99q24 -1 51.5 -1
h59.5l16 -10v-111zM340 226q0 38 -20.5 65.5t-48.5 27.5q-21 0 -40 -15t-34 -40.5t-25 -59.5t-13 -71q93 6 137 28.5t44 64.5zM177 8q20 -47 57 -73.5t88 -26.5q37 0 57 13t20 36q0 30 -25 53.5t-67 31.5q-53 -23 -130 -34z" />
    <glyph glyph-name="aYehBarri.isol" unicode="&#x6d2;" horiz-adv-x="701" arabic-form="isolated" 
d="M670 0h-443q-103 0 -149.5 28.5t-46.5 91.5q0 28 19.5 65.5t52 77t73 77.5t83 68t82.5 48.5t70 18.5q38 0 70 -31t55 -89l-87 -54q-29 51 -55 51q-13 0 -37 -11.5t-52 -30t-56.5 -41t-52 -44t-38.5 -40t-15 -28.5q0 -14 14.5 -20t49.5 -6h469z" />
    <glyph glyph-name="aYehBarri.fina" unicode="&#x6d2;" horiz-adv-x="548" arabic-form="final" 
d="M478 -243q-13 -2 -32 -3.5t-41 -2.5t-45 -1.5t-43 -0.5q-82 0 -140.5 10t-96 31.5t-55.5 54.5t-18 79q0 45 19.5 82.5t54 65.5t81.5 43.5t103 15.5h283l16 -10v-111l-16 -10h-329q-51 0 -79 -17.5t-28 -49.5q0 -29 28 -41t95 -12q33 0 72.5 0.5t75.5 1t64 1t37 1.5z" />
    <glyph glyph-name="aYehBarriHamzaabove.isol" unicode="&#x6d3;" horiz-adv-x="701" arabic-form="isolated" 
d="M670 0h-443q-103 0 -149.5 28.5t-46.5 91.5q0 28 19.5 65.5t52 77t73 77.5t83 68t82.5 48.5t70 18.5q38 0 70 -31t55 -89l-87 -54q-29 51 -55 51q-13 0 -37 -11.5t-52 -30t-56.5 -41t-52 -44t-38.5 -40t-15 -28.5q0 -14 14.5 -20t49.5 -6h469zM508 528h-194v50h43
q-17 15 -17 44q0 32 21 53t58 21q35 0 56 -19t21 -50q0 -10 -1 -14h-45v4q0 12 -9 19t-22 7q-14 0 -22 -7.5t-8 -19.5q0 -38 77 -38h42v-50z" />
    <glyph glyph-name="aYehBarriHamzaabove.fina" unicode="&#x6d3;" horiz-adv-x="548" arabic-form="final" 
d="M478 -243q-13 -2 -32 -3.5t-41 -2.5t-45 -1.5t-43 -0.5q-82 0 -140.5 10t-96 31.5t-55.5 54.5t-18 79q0 45 19.5 82.5t54 65.5t81.5 43.5t103 15.5h283l16 -10v-111l-16 -10h-329q-51 0 -79 -17.5t-28 -49.5q0 -29 28 -41t95 -12q33 0 72.5 0.5t75.5 1t64 1t37 1.5z
M385 205h-194v50h43q-17 15 -17 44q0 32 21 53t58 21q35 0 56 -19t21 -50q0 -10 -1 -14h-45v4q0 12 -9 19t-22 7q-14 0 -22 -7.5t-8 -19.5q0 -38 77 -38h42v-50z" />
    <glyph glyph-name="aAlifMaksura.init" unicode="&#x649;" horiz-adv-x="275" arabic-form="initial" 
d="M0 0l-16 10v110l16 11h20q107 0 107 93q0 33 -15.5 77.5t-45.5 95.5l94 54q35 -50 55 -111t20 -115q0 -107 -54 -166t-154 -59h-27z" />
    <glyph glyph-name="aAlifMaksura.medi" unicode="&#x649;" horiz-adv-x="328" arabic-form="medial" 
d="M344 10l-17 -10h-9q-54 0 -93 20t-56 54q-14 -32 -56 -53t-97 -21h-16l-16 10v110l16 11h15q96 0 96 79v160h105v-151q0 -88 99 -88h12l17 -11v-110z" />
    <glyph glyph-name="aYehFarsi.isol" unicode="&#x6cc;" horiz-adv-x="686" arabic-form="isolated" 
d="M622 290q-24 17 -59 27.5t-72 10.5q-48 0 -77 -18.5t-29 -48.5q0 -20 15 -33t48 -22l56 -15q76 -20 112 -60t36 -104q0 -47 -20 -87.5t-56.5 -69.5t-86.5 -45.5t-110 -16.5q-78 0 -141.5 21t-108.5 61.5t-69.5 98.5t-24.5 133q0 60 16.5 117.5t47.5 104.5l95 -43
q-23 -38 -36 -81.5t-13 -83.5q0 -44 17.5 -80.5t49 -62t76 -39.5t98.5 -14q75 0 117 20.5t42 57.5q0 23 -17 37.5t-58 25.5l-47 13q-137 38 -137 150q0 43 17 80.5t47 65.5t70.5 43.5t87.5 15.5q24 0 48.5 -5t45.5 -13t38 -19.5t26 -24.5z" />
    <glyph glyph-name="aYehFarsi.fina" unicode="&#x6cc;" horiz-adv-x="803" arabic-form="final" 
d="M819 11l-16 -11h-10q-70 0 -123.5 48.5t-77.5 136.5l-58 -54q25 -26 39.5 -60t14.5 -69q0 -44 -18.5 -79.5t-52 -61t-81 -39.5t-104.5 -14q-68 0 -123 19t-93.5 55t-59.5 86.5t-21 113.5q0 123 80 205l84 -60q-54 -63 -54 -133q0 -35 14.5 -63t40.5 -48.5t62.5 -31.5
t80.5 -11q63 0 99 19t36 52q0 27 -16 47t-43 37l16 110l177 152l48 -19q14 -104 49.5 -155.5t87.5 -51.5h6l16 -11v-109z" />
    <glyph glyph-name="aYehFarsi.init" unicode="&#x6cc;" horiz-adv-x="275" arabic-form="initial" 
d="M0 0l-16 10v110l16 11h20q107 0 107 93q0 33 -15.5 77.5t-45.5 95.5l94 54q35 -50 55 -111t20 -115q0 -107 -54 -166t-154 -59h-27zM268 -114q0 -24 -15.5 -36.5t-42.5 -12.5q-24 0 -40 12t-16 37q0 23 15 35.5t41 12.5q27 0 42.5 -12.5t15.5 -35.5zM118 -114
q0 -24 -15.5 -36.5t-41.5 -12.5q-25 0 -41 12t-16 37q0 23 15.5 35.5t41.5 12.5t41.5 -12.5t15.5 -35.5z" />
    <glyph glyph-name="aYehFarsi.medi" unicode="&#x6cc;" horiz-adv-x="328" arabic-form="medial" 
d="M344 10l-17 -10h-9q-54 0 -93 20t-56 54q-14 -32 -56 -53t-97 -21h-16l-16 10v110l16 11h15q96 0 96 79v160h105v-151q0 -88 99 -88h12l17 -11v-110zM296 -114q0 -24 -15.5 -36.5t-42.5 -12.5q-24 0 -40 12t-16 37q0 23 15 35.5t41 12.5q27 0 42.5 -12.5t15.5 -35.5z
M146 -114q0 -24 -15.5 -36.5t-41.5 -12.5q-25 0 -41 12t-16 37q0 23 15.5 35.5t41.5 12.5t41.5 -12.5t15.5 -35.5z" />
    <glyph glyph-name="aHamza.isol" unicode="&#x621;" horiz-adv-x="531" arabic-form="isolated" 
d="M499 0h-470v131h95q-42 47 -42 114q0 40 14.5 73.5t40.5 57.5t62.5 37t81.5 13q38 0 70.5 -11.5t56 -32.5t37 -49.5t13.5 -62.5q0 -21 -3 -34l-96 -6v6q0 29 -23 49t-56 20q-39 0 -62.5 -21.5t-23.5 -56.5q0 -20 10 -37.5t27.5 -30.5t41.5 -20.5t52 -7.5h174v-131z" />
    <glyph glyph-name="aAlifMadda.isol" unicode="&#x622;" horiz-adv-x="213" arabic-form="isolated" 
d="M159 -22h-104l-2 689h107zM234 800q-5 -29 -27 -46.5t-54 -17.5q-14 0 -26 3t-24 8q-17 9 -27.5 13t-24.5 4q-13 0 -25.5 -6.5t-20.5 -17.5l-27 22q7 32 27 50.5t49 18.5q16 0 28.5 -3.5t25.5 -10.5q14 -7 25.5 -10.5t28.5 -3.5q14 0 29 6.5t23 16.5z" />
    <glyph glyph-name="aAlifMadda.fina" unicode="&#x622;" horiz-adv-x="261" arabic-form="final" 
d="M277 10l-16 -10h-7q-38 0 -69 15.5t-43 38.5q-2 -24 -5.5 -46.5t-6.5 -33.5l-96 10q5 27 9.5 67t7.5 90.5t5 108.5t2 121v101.5v77.5t-0.5 62t-0.5 55h107v-465q0 -32 23 -51.5t62 -19.5h12l16 -11v-110zM235 800q-5 -29 -27 -46.5t-54 -17.5q-14 0 -26 3t-24 8
q-17 9 -27.5 13t-24.5 4q-13 0 -25.5 -6.5t-20.5 -17.5l-27 22q7 32 27 50.5t49 18.5q16 0 28.5 -3.5t25.5 -10.5q14 -7 25.5 -10.5t28.5 -3.5q14 0 29 6.5t23 16.5z" />
    <glyph glyph-name="aAlifHamza.isol" unicode="&#x623;" horiz-adv-x="213" arabic-form="isolated" 
d="M159 -22h-104l-2 689h107zM203 740h-194v50h43q-17 15 -17 44q0 32 21 53t58 21q35 0 56 -19t21 -50q0 -10 -1 -14h-45v4q0 12 -9 19t-22 7q-14 0 -22 -7.5t-8 -19.5q0 -38 77 -38h42v-50z" />
    <glyph glyph-name="aAlifHamza.fina" unicode="&#x623;" horiz-adv-x="261" arabic-form="final" 
d="M277 10l-16 -10h-7q-38 0 -69 15.5t-43 38.5q-2 -24 -5.5 -46.5t-6.5 -33.5l-96 10q5 27 9.5 67t7.5 90.5t5 108.5t2 121v101.5v77.5t-0.5 62t-0.5 55h107v-465q0 -32 23 -51.5t62 -19.5h12l16 -11v-110zM204 740h-194v50h43q-17 15 -17 44q0 32 21 53t58 21q35 0 56 -19
t21 -50q0 -10 -1 -14h-45v4q0 12 -9 19t-22 7q-14 0 -22 -7.5t-8 -19.5q0 -38 77 -38h42v-50z" />
    <glyph glyph-name="aWawHamza.isol" unicode="&#x624;" horiz-adv-x="485" arabic-form="isolated" 
d="M230 21q-84 0 -132 46t-48 124q0 46 13.5 85.5t37 68.5t56 45.5t70.5 16.5q46 0 86.5 -24.5t70.5 -66.5t47.5 -99.5t17.5 -123.5q0 -136 -72 -210.5t-203 -74.5q-55 0 -104 17t-80 46l36 102q13 -9 31 -17t38.5 -14t42.5 -9t42 -3q36 0 67 9t54 25.5t37 39t16 49.5
q-22 -15 -54.5 -23.5t-69.5 -8.5zM226 287q-35 0 -58 -26t-23 -66q0 -61 98 -61q25 0 52 5t49 14q-14 60 -45 97t-73 37zM324 499h-194v50h43q-17 15 -17 44q0 32 21 53t58 21q35 0 56 -19t21 -50q0 -10 -1 -14h-45v4q0 12 -9 19t-22 7q-14 0 -22 -7.5t-8 -19.5
q0 -38 77 -38h42v-50z" />
    <glyph glyph-name="aWawHamza.fina" unicode="&#x624;" horiz-adv-x="503" arabic-form="final" 
d="M519 10l-16 -10h-66q-23 -92 -90.5 -142t-173.5 -50q-26 0 -53 5t-51.5 13t-45 19.5t-33.5 25.5l36 102q13 -9 31 -17t38.5 -14t42.5 -9t42 -3q58 0 100.5 22.5t60.5 60.5h-110q-85 0 -133 48t-48 132q0 45 13.5 84t37.5 68t56 45.5t70 16.5q43 0 80.5 -21t67 -58
t48 -87.5t23.5 -109.5h57l16 -11v-110zM226 287q-35 0 -58 -25t-23 -61q0 -37 23.5 -53.5t76.5 -16.5h102q-5 34 -16.5 62.5t-27 49.5t-35.5 32.5t-42 11.5zM324 499h-194v50h43q-17 15 -17 44q0 32 21 53t58 21q35 0 56 -19t21 -50q0 -10 -1 -14h-45v4q0 12 -9 19t-22 7
q-14 0 -22 -7.5t-8 -19.5q0 -38 77 -38h42v-50z" />
    <glyph glyph-name="aAlifHamzabelow.isol" unicode="&#x625;" horiz-adv-x="213" arabic-form="isolated" 
d="M159 -22h-104l-2 689h107zM203 -243h-194v50h43q-17 15 -17 44q0 32 21 53t58 21q35 0 56 -19t21 -50q0 -10 -1 -14h-45v4q0 12 -9 19t-22 7q-14 0 -22 -7.5t-8 -19.5q0 -38 77 -38h42v-50z" />
    <glyph glyph-name="aAlifHamzabelow.fina" unicode="&#x625;" horiz-adv-x="261" arabic-form="final" 
d="M277 10l-16 -10h-7q-38 0 -69 15.5t-43 38.5q-2 -24 -5.5 -46.5t-6.5 -33.5l-96 10q5 27 9.5 67t7.5 90.5t5 108.5t2 121v101.5v77.5t-0.5 62t-0.5 55h107v-465q0 -32 23 -51.5t62 -19.5h12l16 -11v-110zM222 -243h-194v50h43q-17 15 -17 44q0 32 21 53t58 21
q35 0 56 -19t21 -50q0 -10 -1 -14h-45v4q0 12 -9 19t-22 7q-14 0 -22 -7.5t-8 -19.5q0 -38 77 -38h42v-50z" />
    <glyph glyph-name="aYehHamza.isol" unicode="&#x626;" horiz-adv-x="686" arabic-form="isolated" 
d="M622 290q-24 17 -59 27.5t-72 10.5q-48 0 -77 -18.5t-29 -48.5q0 -20 15 -33t48 -22l56 -15q76 -20 112 -60t36 -104q0 -47 -20 -87.5t-56.5 -69.5t-86.5 -45.5t-110 -16.5q-78 0 -141.5 21t-108.5 61.5t-69.5 98.5t-24.5 133q0 60 16.5 117.5t47.5 104.5l95 -43
q-23 -38 -36 -81.5t-13 -83.5q0 -44 17.5 -80.5t49 -62t76 -39.5t98.5 -14q75 0 117 20.5t42 57.5q0 23 -17 37.5t-58 25.5l-47 13q-137 38 -137 150q0 43 17 80.5t47 65.5t70.5 43.5t87.5 15.5q24 0 48.5 -5t45.5 -13t38 -19.5t26 -24.5zM318 431h-194v50h43q-17 15 -17 44
q0 32 21 53t58 21q35 0 56 -19t21 -50q0 -10 -1 -14h-45v4q0 12 -9 19t-22 7q-14 0 -22 -7.5t-8 -19.5q0 -38 77 -38h42v-50z" />
    <glyph glyph-name="aYehHamza.fina" unicode="&#x626;" horiz-adv-x="803" arabic-form="final" 
d="M819 11l-16 -11h-10q-70 0 -123.5 48.5t-77.5 136.5l-58 -54q25 -26 39.5 -60t14.5 -69q0 -44 -18.5 -79.5t-52 -61t-81 -39.5t-104.5 -14q-68 0 -123 19t-93.5 55t-59.5 86.5t-21 113.5q0 123 80 205l84 -60q-54 -63 -54 -133q0 -35 14.5 -63t40.5 -48.5t62.5 -31.5
t80.5 -11q63 0 99 19t36 52q0 27 -16 47t-43 37l16 110l177 152l48 -19q14 -104 49.5 -155.5t87.5 -51.5h6l16 -11v-109zM323 357h-194v50h43q-17 15 -17 44q0 32 21 53t58 21q35 0 56 -19t21 -50q0 -10 -1 -14h-45v4q0 12 -9 19t-22 7q-14 0 -22 -7.5t-8 -19.5
q0 -38 77 -38h42v-50z" />
    <glyph glyph-name="aYehHamza.init" unicode="&#x626;" horiz-adv-x="275" arabic-form="initial" 
d="M0 0l-16 10v110l16 11h20q107 0 107 93q0 33 -15.5 77.5t-45.5 95.5l94 54q35 -50 55 -111t20 -115q0 -107 -54 -166t-154 -59h-27zM218 528h-194v50h43q-17 15 -17 44q0 32 21 53t58 21q35 0 56 -19t21 -50q0 -10 -1 -14h-45v4q0 12 -9 19t-22 7q-14 0 -22 -7.5
t-8 -19.5q0 -38 77 -38h42v-50z" />
    <glyph glyph-name="aYehHamza.medi" unicode="&#x626;" horiz-adv-x="328" arabic-form="medial" 
d="M344 10l-17 -10h-9q-54 0 -93 20t-56 54q-14 -32 -56 -53t-97 -21h-16l-16 10v110l16 11h15q96 0 96 79v160h105v-151q0 -88 99 -88h12l17 -11v-110zM261 445h-194v50h43q-17 15 -17 44q0 32 21 53t58 21q35 0 56 -19t21 -50q0 -10 -1 -14h-45v4q0 12 -9 19t-22 7
q-14 0 -22 -7.5t-8 -19.5q0 -38 77 -38h42v-50z" />
    <glyph glyph-name="aAlif.isol" unicode="&#x627;" horiz-adv-x="213" arabic-form="isolated" 
d="M159 -22h-104l-2 689h107z" />
    <glyph glyph-name="aAlif.fina" unicode="&#x627;" horiz-adv-x="261" arabic-form="final" 
d="M277 10l-16 -10h-7q-38 0 -69 15.5t-43 38.5q-2 -24 -5.5 -46.5t-6.5 -33.5l-96 10q5 27 9.5 67t7.5 90.5t5 108.5t2 121v101.5v77.5t-0.5 62t-0.5 55h107v-465q0 -32 23 -51.5t62 -19.5h12l16 -11v-110z" />
    <glyph glyph-name="aBeh.isol" unicode="&#x628;" horiz-adv-x="796" arabic-form="isolated" 
d="M370 0q-163 2 -249 67.5t-86 185.5q0 117 76 202l85 -50q-23 -29 -37 -62.5t-14 -70.5q0 -67 63 -104t183 -37h41q106 0 161 24.5t55 75.5q0 29 -11.5 67t-30.5 76l95 52q26 -39 40.5 -92t14.5 -104q0 -114 -87 -172t-261 -58h-38zM453 -116q0 -24 -16 -37t-43 -13
t-43 13t-16 37q0 23 16 36.5t43 13.5t43 -13.5t16 -36.5z" />
    <glyph glyph-name="aBeh.fina" unicode="&#x628;" horiz-adv-x="869" arabic-form="final" 
d="M885 10l-16 -10h-9q-51 0 -94.5 18.5t-59.5 59.5q-19 -37 -80 -57.5t-181 -20.5h-69q-84 0 -147.5 17.5t-106.5 50.5t-65 79.5t-22 104.5q0 62 19.5 111.5t56.5 91.5l85 -50q-21 -26 -36 -59.5t-15 -73.5q0 -67 63.5 -104t181.5 -37h46q61 0 102.5 5t67 16t36.5 29t11 45
v144h105v-151q0 -27 8.5 -44.5t22.5 -27t31.5 -13t36.5 -3.5h12l16 -11v-110zM473 -116q0 -24 -16 -37t-43 -13t-43 13t-16 37q0 23 16 36.5t43 13.5t43 -13.5t16 -36.5z" />
    <glyph glyph-name="aBeh.init" unicode="&#x628;" horiz-adv-x="275" arabic-form="initial" 
d="M0 0l-16 10v110l16 11h20q107 0 107 93q0 33 -15.5 77.5t-45.5 95.5l94 54q35 -50 55 -111t20 -115q0 -107 -54 -166t-154 -59h-27zM195 -116q0 -24 -16 -37t-43 -13t-43 13t-16 37q0 23 16 36.5t43 13.5t43 -13.5t16 -36.5z" />
    <glyph glyph-name="aBeh.medi" unicode="&#x628;" horiz-adv-x="328" arabic-form="medial" 
d="M344 10l-17 -10h-9q-54 0 -93 20t-56 54q-14 -32 -56 -53t-97 -21h-16l-16 10v110l16 11h15q96 0 96 79v160h105v-151q0 -88 99 -88h12l17 -11v-110zM223 -116q0 -24 -16 -37t-43 -13t-43 13t-16 37q0 23 16 36.5t43 13.5t43 -13.5t16 -36.5z" />
    <glyph glyph-name="aTehMarbuta.isol" unicode="&#x629;" horiz-adv-x="469" arabic-form="isolated" 
d="M423 494q-114 -29 -186 -77.5t-97 -110.5q48 53 127 53q38 0 69.5 -12.5t53.5 -35t34 -53.5t12 -69q0 -44 -13.5 -80t-38 -61.5t-59.5 -39.5t-78 -14q-48 0 -87.5 17.5t-67.5 50t-43.5 77.5t-15.5 99q0 65 26 124t74 108t115.5 85t150.5 55zM253 114q39 0 62.5 21.5
t23.5 56.5q0 32 -22 50t-64 18q-39 0 -71 -17t-47 -45q12 -39 42.5 -61.5t75.5 -22.5zM277 657q0 -49 -58 -49q-26 0 -41.5 13t-15.5 36t15.5 35.5t41.5 12.5q58 0 58 -48zM155 581q0 -23 -15 -36t-42 -13t-42 13t-15 36t15 35.5t42 12.5t42 -12.5t15 -35.5z" />
    <glyph glyph-name="aTehMarbuta.fina" unicode="&#x629;" horiz-adv-x="492" arabic-form="final" 
d="M508 10l-16 -10h-14q-46 0 -82.5 15.5t-61.5 44.5q-22 -33 -60 -51.5t-87 -18.5q-75 0 -118.5 43t-43.5 118q0 69 37 115.5t122 85.5q22 10 47.5 18.5t60.5 18.5v70h105v-271q0 -27 23 -42t66 -15h6l16 -10v-111zM292 279q-20 -5 -36.5 -10t-33.5 -10q-50 -17 -72 -37
t-22 -49q0 -26 19 -39.5t54 -13.5q56 0 91 30v129zM262 496q0 -23 -15 -36t-42 -13t-42 13t-15 36t15 35.5t42 12.5t42 -12.5t15 -35.5zM140 432q0 -23 -15 -36t-42 -13t-42 13t-15 36t15 35.5t42 12.5t42 -12.5t15 -35.5z" />
    <glyph glyph-name="aTeh.isol" unicode="&#x62a;" horiz-adv-x="796" arabic-form="isolated" 
d="M370 0q-163 2 -249 67.5t-86 185.5q0 117 76 202l85 -50q-23 -29 -37 -62.5t-14 -70.5q0 -67 63 -104t183 -37h41q106 0 161 24.5t55 75.5q0 29 -11.5 67t-30.5 76l95 52q26 -39 40.5 -92t14.5 -104q0 -114 -87 -172t-261 -58h-38zM381 493q0 -24 -15.5 -36.5
t-41.5 -12.5q-25 0 -41 12t-16 37q0 23 15.5 35.5t41.5 12.5t41.5 -12.5t15.5 -35.5zM531 493q0 -24 -15.5 -36.5t-42.5 -12.5q-24 0 -40 12t-16 37q0 23 15 35.5t41 12.5q27 0 42.5 -12.5t15.5 -35.5z" />
    <glyph glyph-name="aTeh.fina" unicode="&#x62a;" horiz-adv-x="869" arabic-form="final" 
d="M885 10l-16 -10h-9q-51 0 -94.5 18.5t-59.5 59.5q-19 -37 -80 -57.5t-181 -20.5h-69q-84 0 -147.5 17.5t-106.5 50.5t-65 79.5t-22 104.5q0 62 19.5 111.5t56.5 91.5l85 -50q-21 -26 -36 -59.5t-15 -73.5q0 -67 63.5 -104t181.5 -37h46q61 0 102.5 5t67 16t36.5 29t11 45
v144h105v-151q0 -27 8.5 -44.5t22.5 -27t31.5 -13t36.5 -3.5h12l16 -11v-110zM422 493q0 -24 -15.5 -36.5t-41.5 -12.5q-25 0 -41 12t-16 37q0 23 15.5 35.5t41.5 12.5t41.5 -12.5t15.5 -35.5zM572 493q0 -24 -15.5 -36.5t-42.5 -12.5q-24 0 -40 12t-16 37q0 23 15 35.5
t41 12.5q27 0 42.5 -12.5t15.5 -35.5z" />
    <glyph glyph-name="aTeh.init" unicode="&#x62a;" horiz-adv-x="275" arabic-form="initial" 
d="M0 0l-16 10v110l16 11h20q107 0 107 93q0 33 -15.5 77.5t-45.5 95.5l94 54q35 -50 55 -111t20 -115q0 -107 -54 -166t-154 -59h-27zM103 576q0 -24 -15.5 -36.5t-41.5 -12.5q-25 0 -41 12t-16 37q0 23 15.5 35.5t41.5 12.5t41.5 -12.5t15.5 -35.5zM253 576
q0 -24 -15.5 -36.5t-42.5 -12.5q-24 0 -40 12t-16 37q0 23 15 35.5t41 12.5q27 0 42.5 -12.5t15.5 -35.5z" />
    <glyph glyph-name="aTeh.medi" unicode="&#x62a;" horiz-adv-x="328" arabic-form="medial" 
d="M344 10l-17 -10h-9q-54 0 -93 20t-56 54q-14 -32 -56 -53t-97 -21h-16l-16 10v110l16 11h15q96 0 96 79v160h105v-151q0 -88 99 -88h12l17 -11v-110zM146 493q0 -24 -15.5 -36.5t-41.5 -12.5q-25 0 -41 12t-16 37q0 23 15.5 35.5t41.5 12.5t41.5 -12.5t15.5 -35.5z
M296 493q0 -24 -15.5 -36.5t-42.5 -12.5q-24 0 -40 12t-16 37q0 23 15 35.5t41 12.5q27 0 42.5 -12.5t15.5 -35.5z" />
    <glyph glyph-name="aTheh.isol" unicode="&#x62b;" horiz-adv-x="796" arabic-form="isolated" 
d="M370 0q-163 2 -249 67.5t-86 185.5q0 117 76 202l85 -50q-23 -29 -37 -62.5t-14 -70.5q0 -67 63 -104t183 -37h41q106 0 161 24.5t55 75.5q0 29 -11.5 67t-30.5 76l95 52q26 -39 40.5 -92t14.5 -104q0 -114 -87 -172t-261 -58h-38zM455 603q0 -23 -15 -35.5t-41 -12.5
q-24 0 -40 12.5t-16 35.5t15 35t41 12t41 -12t15 -35zM382 492q0 -23 -15 -35.5t-41 -12.5q-24 0 -40 12t-16 36q0 23 15 35t41 12t41 -12t15 -35zM528 492q0 -23 -15 -35.5t-41 -12.5q-24 0 -40 12t-16 36q0 23 15 35t41 12t41 -12t15 -35z" />
    <glyph glyph-name="aTheh.fina" unicode="&#x62b;" horiz-adv-x="869" arabic-form="final" 
d="M885 10l-16 -10h-9q-51 0 -94.5 18.5t-59.5 59.5q-19 -37 -80 -57.5t-181 -20.5h-69q-84 0 -147.5 17.5t-106.5 50.5t-65 79.5t-22 104.5q0 62 19.5 111.5t56.5 91.5l85 -50q-21 -26 -36 -59.5t-15 -73.5q0 -67 63.5 -104t181.5 -37h46q61 0 102.5 5t67 16t36.5 29t11 45
v144h105v-151q0 -27 8.5 -44.5t22.5 -27t31.5 -13t36.5 -3.5h12l16 -11v-110zM496 603q0 -23 -15 -35.5t-41 -12.5q-24 0 -40 12.5t-16 35.5t15 35t41 12t41 -12t15 -35zM423 492q0 -23 -15 -35.5t-41 -12.5q-24 0 -40 12t-16 36q0 23 15 35t41 12t41 -12t15 -35zM569 492
q0 -23 -15 -35.5t-41 -12.5q-24 0 -40 12t-16 36q0 23 15 35t41 12t41 -12t15 -35z" />
    <glyph glyph-name="aTheh.init" unicode="&#x62b;" horiz-adv-x="275" arabic-form="initial" 
d="M0 0l-16 10v110l16 11h20q107 0 107 93q0 33 -15.5 77.5t-45.5 95.5l94 54q35 -50 55 -111t20 -115q0 -107 -54 -166t-154 -59h-27zM177 686q0 -23 -15 -35.5t-41 -12.5q-24 0 -40 12.5t-16 35.5t15 35t41 12t41 -12t15 -35zM104 575q0 -23 -15 -35.5t-41 -12.5
q-24 0 -40 12t-16 36q0 23 15 35t41 12t41 -12t15 -35zM250 575q0 -23 -15 -35.5t-41 -12.5q-24 0 -40 12t-16 36q0 23 15 35t41 12t41 -12t15 -35z" />
    <glyph glyph-name="aTheh.medi" unicode="&#x62b;" horiz-adv-x="328" arabic-form="medial" 
d="M344 10l-17 -10h-9q-54 0 -93 20t-56 54q-14 -32 -56 -53t-97 -21h-16l-16 10v110l16 11h15q96 0 96 79v160h105v-151q0 -88 99 -88h12l17 -11v-110zM220 603q0 -23 -15 -35.5t-41 -12.5q-24 0 -40 12.5t-16 35.5t15 35t41 12t41 -12t15 -35zM147 492q0 -23 -15 -35.5
t-41 -12.5q-24 0 -40 12t-16 36q0 23 15 35t41 12t41 -12t15 -35zM293 492q0 -23 -15 -35.5t-41 -12.5q-24 0 -40 12t-16 36q0 23 15 35t41 12t41 -12t15 -35z" />
    <glyph glyph-name="aJim.isol" unicode="&#x62c;" horiz-adv-x="603" arabic-form="isolated" 
d="M575 -206q-18 -19 -46.5 -34.5t-63 -27t-73.5 -17.5t-79 -6q-61 0 -114.5 15.5t-93 45.5t-62.5 73t-23 98q0 54 27.5 102.5t79.5 88t126 69.5t167 48q-32 24 -70 49q-29 17 -59.5 29t-62.5 12q-39 0 -61 -22.5t-22 -54.5q0 -12 2.5 -22t4.5 -15l-88 -42q-12 17 -19.5 43
t-7.5 54q0 38 14 70.5t39 56.5t60.5 38t77.5 14q52 0 100 -22t91 -52q48 -34 89 -67t73 -46l-26 -125q-86 -4 -162.5 -19.5t-134.5 -41t-92 -60t-34 -75.5q0 -29 14 -50t38 -34.5t55.5 -19.5t66.5 -6q39 0 74.5 6t66 16t55 22t41.5 23zM368 -25q0 -23 -15.5 -35.5
t-41.5 -12.5t-41 12.5t-15 35.5t15 35t41 12t41.5 -12t15.5 -35z" />
    <glyph glyph-name="aJim.fina" unicode="&#x62c;" horiz-adv-x="640" arabic-form="final" 
d="M575 -206q-18 -19 -46.5 -34.5t-63 -27t-73.5 -17.5t-79 -6q-61 0 -114.5 15.5t-93 45.5t-62.5 73t-23 98q0 54 27.5 102.5t79.5 88t126 69.5t167 48q-32 24 -70 49q-29 17 -59.5 29t-62.5 12q-39 0 -61 -22.5t-22 -54.5q0 -12 2.5 -22t4.5 -15l-88 -42q-12 17 -19.5 43
t-7.5 54q0 38 14 70.5t39 56.5t60.5 38t77.5 14q52 0 100 -22t91 -52q48 -34 89 -67t73 -46l-20 -95q6 -20 24.5 -33t47.5 -13h6l17 -11v-110l-17 -10h-5q-68 0 -103.5 40.5t-36.5 101.5q-75 -8 -141 -24.5t-115 -41.5t-77.5 -56.5t-28.5 -68.5q0 -29 14 -50t38 -34.5
t55.5 -19.5t66.5 -6q39 0 74.5 6t66 16t55 22t41.5 23zM364 -23q0 -23 -15.5 -35.5t-41.5 -12.5t-41 12.5t-15 35.5t15 35t41 12t41.5 -12t15.5 -35z" />
    <glyph glyph-name="aJim.init" unicode="&#x62c;" horiz-adv-x="617" arabic-form="initial" 
d="M570 118q-36 0 -92 -18.5t-126 -40.5t-150 -40.5t-165 -18.5h-37l-16 10v110l16 11h39q55 0 108.5 8.5t104 21t97.5 26t90 23.5q-14 11 -28.5 22t-31.5 22q-38 26 -71 42.5t-68 16.5q-36 0 -58 -20t-22 -52q0 -8 2 -16.5t4 -12.5l-97 -26q-16 30 -16 71t14.5 73.5
t40 55.5t59.5 35t73 12q50 0 100 -23.5t100 -59.5q20 -15 41.5 -31t41.5 -31t38.5 -27t33.5 -19zM350 -116q0 -24 -16 -37t-43 -13t-43 13t-16 37q0 23 16 36.5t43 13.5t43 -13.5t16 -36.5z" />
    <glyph glyph-name="aJim.medi" unicode="&#x62c;" horiz-adv-x="655" arabic-form="medial" 
d="M671 10l-16 -10h-7q-25 0 -47 7t-39 21t-27.5 34.5t-11.5 49.5q-41 -9 -94.5 -28t-116.5 -37.5t-132.5 -32.5t-142.5 -14h-37l-16 10v110l16 11h39q55 0 108.5 8.5t104 21t97.5 26t90 23.5q-14 11 -28.5 22t-31.5 22q-38 26 -71 42.5t-68 16.5q-36 0 -58 -20t-22 -52
q0 -8 2 -16.5t4 -12.5l-97 -26q-16 30 -16 71t14.5 73.5t40 55.5t59.5 35t73 12q50 0 100 -23.5t100 -59.5q20 -15 41.5 -31t41.5 -31t38.5 -27t33.5 -19l-15 -71q7 -26 27 -32.5t40 -7.5h8l16 -11v-110zM350 -116q0 -24 -16 -37t-43 -13t-43 13t-16 37q0 23 16 36.5
t43 13.5t43 -13.5t16 -36.5z" />
    <glyph glyph-name="aHah.isol" unicode="&#x62d;" horiz-adv-x="603" arabic-form="isolated" 
d="M575 -206q-18 -19 -46.5 -34.5t-63 -27t-73.5 -17.5t-79 -6q-61 0 -114.5 15.5t-93 45.5t-62.5 73t-23 98q0 54 27.5 102.5t79.5 88t126 69.5t167 48q-32 24 -70 49q-29 17 -59.5 29t-62.5 12q-39 0 -61 -22.5t-22 -54.5q0 -12 2.5 -22t4.5 -15l-88 -42q-12 17 -19.5 43
t-7.5 54q0 38 14 70.5t39 56.5t60.5 38t77.5 14q52 0 100 -22t91 -52q48 -34 89 -67t73 -46l-26 -125q-86 -4 -162.5 -19.5t-134.5 -41t-92 -60t-34 -75.5q0 -29 14 -50t38 -34.5t55.5 -19.5t66.5 -6q39 0 74.5 6t66 16t55 22t41.5 23z" />
    <glyph glyph-name="aHah.fina" unicode="&#x62d;" horiz-adv-x="640" arabic-form="final" 
d="M575 -206q-18 -19 -46.5 -34.5t-63 -27t-73.5 -17.5t-79 -6q-61 0 -114.5 15.5t-93 45.5t-62.5 73t-23 98q0 54 27.5 102.5t79.5 88t126 69.5t167 48q-32 24 -70 49q-29 17 -59.5 29t-62.5 12q-39 0 -61 -22.5t-22 -54.5q0 -12 2.5 -22t4.5 -15l-88 -42q-12 17 -19.5 43
t-7.5 54q0 38 14 70.5t39 56.5t60.5 38t77.5 14q52 0 100 -22t91 -52q48 -34 89 -67t73 -46l-20 -95q6 -20 24.5 -33t47.5 -13h6l17 -11v-110l-17 -10h-5q-68 0 -103.5 40.5t-36.5 101.5q-75 -8 -141 -24.5t-115 -41.5t-77.5 -56.5t-28.5 -68.5q0 -29 14 -50t38 -34.5
t55.5 -19.5t66.5 -6q39 0 74.5 6t66 16t55 22t41.5 23z" />
    <glyph glyph-name="aHah.init" unicode="&#x62d;" horiz-adv-x="617" arabic-form="initial" 
d="M570 118q-36 0 -92 -18.5t-126 -40.5t-150 -40.5t-165 -18.5h-37l-16 10v110l16 11h39q55 0 108.5 8.5t104 21t97.5 26t90 23.5q-14 11 -28.5 22t-31.5 22q-38 26 -71 42.5t-68 16.5q-36 0 -58 -20t-22 -52q0 -8 2 -16.5t4 -12.5l-97 -26q-16 30 -16 71t14.5 73.5
t40 55.5t59.5 35t73 12q50 0 100 -23.5t100 -59.5q20 -15 41.5 -31t41.5 -31t38.5 -27t33.5 -19z" />
    <glyph glyph-name="aHah.medi" unicode="&#x62d;" horiz-adv-x="655" arabic-form="medial" 
d="M671 10l-16 -10h-7q-25 0 -47 7t-39 21t-27.5 34.5t-11.5 49.5q-41 -9 -94.5 -28t-116.5 -37.5t-132.5 -32.5t-142.5 -14h-37l-16 10v110l16 11h39q55 0 108.5 8.5t104 21t97.5 26t90 23.5q-14 11 -28.5 22t-31.5 22q-38 26 -71 42.5t-68 16.5q-36 0 -58 -20t-22 -52
q0 -8 2 -16.5t4 -12.5l-97 -26q-16 30 -16 71t14.5 73.5t40 55.5t59.5 35t73 12q50 0 100 -23.5t100 -59.5q20 -15 41.5 -31t41.5 -31t38.5 -27t33.5 -19l-15 -71q7 -26 27 -32.5t40 -7.5h8l16 -11v-110z" />
    <glyph glyph-name="aKhah.isol" unicode="&#x62e;" horiz-adv-x="603" arabic-form="isolated" 
d="M575 -206q-18 -19 -46.5 -34.5t-63 -27t-73.5 -17.5t-79 -6q-61 0 -114.5 15.5t-93 45.5t-62.5 73t-23 98q0 54 27.5 102.5t79.5 88t126 69.5t167 48q-32 24 -70 49q-29 17 -59.5 29t-62.5 12q-39 0 -61 -22.5t-22 -54.5q0 -12 2.5 -22t4.5 -15l-88 -42q-12 17 -19.5 43
t-7.5 54q0 38 14 70.5t39 56.5t60.5 38t77.5 14q52 0 100 -22t91 -52q48 -34 89 -67t73 -46l-26 -125q-86 -4 -162.5 -19.5t-134.5 -41t-92 -60t-34 -75.5q0 -29 14 -50t38 -34.5t55.5 -19.5t66.5 -6q39 0 74.5 6t66 16t55 22t41.5 23zM287 577q0 -24 -16 -37t-43 -13
t-43 13t-16 37q0 23 16 36t43 13t43 -13t16 -36z" />
    <glyph glyph-name="aKhah.fina" unicode="&#x62e;" horiz-adv-x="640" arabic-form="final" 
d="M575 -206q-18 -19 -46.5 -34.5t-63 -27t-73.5 -17.5t-79 -6q-61 0 -114.5 15.5t-93 45.5t-62.5 73t-23 98q0 54 27.5 102.5t79.5 88t126 69.5t167 48q-32 24 -70 49q-29 17 -59.5 29t-62.5 12q-39 0 -61 -22.5t-22 -54.5q0 -12 2.5 -22t4.5 -15l-88 -42q-12 17 -19.5 43
t-7.5 54q0 38 14 70.5t39 56.5t60.5 38t77.5 14q52 0 100 -22t91 -52q48 -34 89 -67t73 -46l-20 -95q6 -20 24.5 -33t47.5 -13h6l17 -11v-110l-17 -10h-5q-68 0 -103.5 40.5t-36.5 101.5q-75 -8 -141 -24.5t-115 -41.5t-77.5 -56.5t-28.5 -68.5q0 -29 14 -50t38 -34.5
t55.5 -19.5t66.5 -6q39 0 74.5 6t66 16t55 22t41.5 23zM286 577q0 -24 -16 -37t-43 -13t-43 13t-16 37q0 23 16 36t43 13t43 -13t16 -36z" />
    <glyph glyph-name="aKhah.init" unicode="&#x62e;" horiz-adv-x="617" arabic-form="initial" 
d="M570 118q-36 0 -92 -18.5t-126 -40.5t-150 -40.5t-165 -18.5h-37l-16 10v110l16 11h39q55 0 108.5 8.5t104 21t97.5 26t90 23.5q-14 11 -28.5 22t-31.5 22q-38 26 -71 42.5t-68 16.5q-36 0 -58 -20t-22 -52q0 -8 2 -16.5t4 -12.5l-97 -26q-16 30 -16 71t14.5 73.5
t40 55.5t59.5 35t73 12q50 0 100 -23.5t100 -59.5q20 -15 41.5 -31t41.5 -31t38.5 -27t33.5 -19zM300 577q0 -24 -16 -37t-43 -13t-43 13t-16 37q0 23 16 36t43 13t43 -13t16 -36z" />
    <glyph glyph-name="aKhah.medi" unicode="&#x62e;" horiz-adv-x="655" arabic-form="medial" 
d="M671 10l-16 -10h-7q-25 0 -47 7t-39 21t-27.5 34.5t-11.5 49.5q-41 -9 -94.5 -28t-116.5 -37.5t-132.5 -32.5t-142.5 -14h-37l-16 10v110l16 11h39q55 0 108.5 8.5t104 21t97.5 26t90 23.5q-14 11 -28.5 22t-31.5 22q-38 26 -71 42.5t-68 16.5q-36 0 -58 -20t-22 -52
q0 -8 2 -16.5t4 -12.5l-97 -26q-16 30 -16 71t14.5 73.5t40 55.5t59.5 35t73 12q50 0 100 -23.5t100 -59.5q20 -15 41.5 -31t41.5 -31t38.5 -27t33.5 -19l-15 -71q7 -26 27 -32.5t40 -7.5h8l16 -11v-110zM300 577q0 -24 -16 -37t-43 -13t-43 13t-16 37q0 23 16 36t43 13
t43 -13t16 -36z" />
    <glyph glyph-name="aDal.isol" unicode="&#x62f;" horiz-adv-x="528" arabic-form="isolated" 
d="M295 131q54 0 73.5 10t19.5 39q0 54 -93 54h-69q-91 0 -131.5 38.5t-40.5 124.5q0 27 1.5 47.5t6.5 37.5h106q-2 -16 -3.5 -35t-1.5 -33q0 -62 64 -62h52q106 0 164 -48.5t58 -137.5q0 -87 -56 -126.5t-178 -39.5h-239l-6 131h273z" />
    <glyph glyph-name="aDal.fina" unicode="&#x62f;" horiz-adv-x="564" arabic-form="final" 
d="M580 10l-17 -10h-8q-32 0 -57 13t-39 38q-55 -51 -192 -51h-239l-6 131h272q55 0 74.5 10t19.5 39q0 54 -94 54h-68q-91 0 -131.5 38.5t-40.5 124.5q0 27 1.5 47.5t6.5 37.5h106q-2 -16 -3.5 -35t-1.5 -33q0 -62 64 -62h52q106 0 164 -48.5t58 -137.5v-9.5t-1 -8.5
q9 -8 23.5 -12.5t31.5 -4.5h9l16 -11v-110z" />
    <glyph glyph-name="aDhal.isol" unicode="&#x630;" horiz-adv-x="528" arabic-form="isolated" 
d="M295 131q54 0 73.5 10t19.5 39q0 54 -93 54h-69q-91 0 -131.5 38.5t-40.5 124.5q0 27 1.5 47.5t6.5 37.5h106q-2 -16 -3.5 -35t-1.5 -33q0 -62 64 -62h52q106 0 164 -48.5t58 -137.5q0 -87 -56 -126.5t-178 -39.5h-239l-6 131h273zM379 501q0 -24 -16 -37t-43 -13t-43 13
t-16 37q0 23 16 36t43 13t43 -13t16 -36z" />
    <glyph glyph-name="aDhal.fina" unicode="&#x630;" horiz-adv-x="564" arabic-form="final" 
d="M580 10l-17 -10h-8q-32 0 -57 13t-39 38q-55 -51 -192 -51h-239l-6 131h272q55 0 74.5 10t19.5 39q0 54 -94 54h-68q-91 0 -131.5 38.5t-40.5 124.5q0 27 1.5 47.5t6.5 37.5h106q-2 -16 -3.5 -35t-1.5 -33q0 -62 64 -62h52q106 0 164 -48.5t58 -137.5v-9.5t-1 -8.5
q9 -8 23.5 -12.5t31.5 -4.5h9l16 -11v-110zM377 501q0 -24 -16 -37t-43 -13t-43 13t-16 37q0 23 16 36t43 13t43 -13t16 -36z" />
    <glyph glyph-name="aReh.isol" unicode="&#x631;" horiz-adv-x="475" arabic-form="isolated" 
d="M-14 -42q23 -10 53 -16t59 -6q49 0 90.5 14.5t72 40.5t47.5 62t17 78q0 44 -18 100t-51 113l103 54q38 -59 58 -127t20 -138q0 -75 -22.5 -135t-64 -102t-101 -65t-132.5 -23q-45 0 -87.5 10t-66.5 27z" />
    <glyph glyph-name="aReh.fina" unicode="&#x631;" horiz-adv-x="548" arabic-form="final" 
d="M564 11l-16 -11h-7q-38 0 -68 17.5t-42 45.5q-20 -119 -101.5 -187t-210.5 -68q-47 0 -89.5 10t-66.5 27l23 113q23 -10 53.5 -16t59.5 -6q49 0 90.5 14.5t71.5 40.5t47 61.5t17 77.5q0 38 -15 91t-47 127l102 50q13 -33 29.5 -76t37.5 -96q12 -29 24 -47.5t25.5 -29
t28 -14.5t30.5 -4h8l16 -11v-109z" />
    <glyph glyph-name="aZeh.isol" unicode="&#x632;" horiz-adv-x="475" arabic-form="isolated" 
d="M-14 -42q23 -10 53 -16t59 -6q49 0 90.5 14.5t72 40.5t47.5 62t17 78q0 44 -18 100t-51 113l103 54q38 -59 58 -127t20 -138q0 -75 -22.5 -135t-64 -102t-101 -65t-132.5 -23q-45 0 -87.5 10t-66.5 27zM359 506q0 -24 -16 -37t-43 -13t-43 13t-16 37q0 23 16 36t43 13
t43 -13t16 -36z" />
    <glyph glyph-name="aZeh.fina" unicode="&#x632;" horiz-adv-x="548" arabic-form="final" 
d="M564 11l-16 -11h-7q-38 0 -68 17.5t-42 45.5q-20 -119 -101.5 -187t-210.5 -68q-47 0 -89.5 10t-66.5 27l23 113q23 -10 53.5 -16t59.5 -6q49 0 90.5 14.5t71.5 40.5t47 61.5t17 77.5q0 38 -15 91t-47 127l102 50q13 -33 29.5 -76t37.5 -96q12 -29 24 -47.5t25.5 -29
t28 -14.5t30.5 -4h8l16 -11v-109zM359 506q0 -24 -16 -37t-43 -13t-43 13t-16 37q0 23 16 36t43 13t43 -13t16 -36z" />
    <glyph glyph-name="aSin.isol" unicode="&#x633;" horiz-adv-x="1155" arabic-form="isolated" 
d="M673 0q-55 0 -82 26q-23 -105 -92 -161.5t-179 -56.5q-66 0 -118.5 19.5t-89.5 55.5t-57 87.5t-20 115.5q0 65 25.5 128t71.5 112l83 -61q-37 -45 -53.5 -85t-16.5 -83q0 -73 49 -115t136 -42q166 0 166 198v178h105v-110q0 -75 78 -75q74 0 74 77v108h105v-108
q0 -77 77 -77t77 74q0 16 -5 37t-13 42.5t-20 43.5t-25 42l86 59q38 -47 60.5 -108t22.5 -120q0 -93 -49 -147t-133 -54q-50 0 -85 18.5t-51 50.5q-15 -32 -48.5 -50.5t-78.5 -18.5z" />
    <glyph glyph-name="aSin.fina" unicode="&#x633;" horiz-adv-x="1201" arabic-form="final" 
d="M1217 11l-16 -11h-7q-47 0 -81 21t-51 57q-12 -37 -46.5 -57.5t-76.5 -20.5q-51 0 -86.5 19t-51.5 51q-15 -32 -48.5 -51t-78.5 -19q-50 0 -82 27q-22 -103 -91 -161t-181 -58q-65 0 -118 19.5t-90 55.5t-57 87.5t-20 115.5q0 38 8.5 73t22 66t31 56.5t35.5 44.5l83 -61
q-32 -40 -51 -80t-19 -88q0 -73 48.5 -115t136.5 -42q85 0 126 50t41 148v178h105v-107q0 -41 20.5 -59.5t57.5 -18.5q74 0 74 77v108h105v-108q0 -77 78 -77q33 0 52.5 15.5t19.5 44.5q0 8 -2.5 27.5t-6 44t-8 50.5t-7.5 48h105l19 -138q7 -46 28.5 -69t53.5 -23h10l16 -11
v-109z" />
    <glyph glyph-name="aSin.init" unicode="&#x633;" horiz-adv-x="750" arabic-form="initial" 
d="M270 0q-45 0 -76.5 19t-45.5 53q-14 -35 -49 -53.5t-86 -18.5h-13l-16 10v110l16 11h12q79 0 79 77v108h105v-107q0 -78 78 -78q74 0 74 77v108h105v-108q0 -77 76 -77q38 0 58 19.5t20 54.5q0 16 -4.5 37t-13 42.5t-20 43.5t-25.5 42l86 59q38 -48 60.5 -108t22.5 -120
q0 -92 -49 -146.5t-133 -54.5q-50 0 -85 18.5t-51 50.5q-15 -32 -48 -50.5t-77 -18.5z" />
    <glyph glyph-name="aSin.medi" unicode="&#x633;" horiz-adv-x="795" arabic-form="medial" 
d="M811 11l-16 -11h-6q-48 0 -82 21.5t-51 55.5q-12 -35 -45.5 -56t-78.5 -21q-51 0 -86.5 19t-50.5 51q-15 -32 -49 -51t-78 -19q-43 0 -74.5 19.5t-45.5 53.5q-14 -35 -48 -54t-85 -19h-15l-16 10v110l16 11h11q80 0 80 77v108h105v-107q0 -41 20 -59.5t58 -18.5
q74 0 74 77v108h105v-108q0 -77 77 -77q32 0 52.5 15t20.5 44q0 12 -2.5 32t-6.5 44t-8 49t-7 46h105l19 -138q7 -46 29 -69t54 -23h9l16 -11v-109z" />
    <glyph glyph-name="aShin.isol" unicode="&#x634;" horiz-adv-x="1155" arabic-form="isolated" 
d="M673 0q-55 0 -82 26q-23 -105 -92 -161.5t-179 -56.5q-66 0 -118.5 19.5t-89.5 55.5t-57 87.5t-20 115.5q0 65 25.5 128t71.5 112l83 -61q-37 -45 -53.5 -85t-16.5 -83q0 -73 49 -115t136 -42q166 0 166 198v178h105v-110q0 -75 78 -75q74 0 74 77v108h105v-108
q0 -77 77 -77t77 74q0 16 -5 37t-13 42.5t-20 43.5t-25 42l86 59q38 -47 60.5 -108t22.5 -120q0 -93 -49 -147t-133 -54q-50 0 -85 18.5t-51 50.5q-15 -32 -48.5 -50.5t-78.5 -18.5zM860 586q0 -23 -15 -35.5t-41 -12.5q-24 0 -40 12.5t-16 35.5t15 35t41 12t41 -12t15 -35z
M787 475q0 -23 -15 -35.5t-41 -12.5q-24 0 -40 12t-16 36q0 23 15 35t41 12t41 -12t15 -35zM933 475q0 -23 -15 -35.5t-41 -12.5q-24 0 -40 12t-16 36q0 23 15 35t41 12t41 -12t15 -35z" />
    <glyph glyph-name="aShin.fina" unicode="&#x634;" horiz-adv-x="1201" arabic-form="final" 
d="M1217 11l-16 -11h-7q-47 0 -81 21t-51 57q-12 -37 -46.5 -57.5t-76.5 -20.5q-51 0 -86.5 19t-51.5 51q-15 -32 -48.5 -51t-78.5 -19q-50 0 -82 27q-22 -103 -91 -161t-181 -58q-65 0 -118 19.5t-90 55.5t-57 87.5t-20 115.5q0 38 8.5 73t22 66t31 56.5t35.5 44.5l83 -61
q-32 -40 -51 -80t-19 -88q0 -73 48.5 -115t136.5 -42q85 0 126 50t41 148v178h105v-107q0 -41 20.5 -59.5t57.5 -18.5q74 0 74 77v108h105v-108q0 -77 78 -77q33 0 52.5 15.5t19.5 44.5q0 8 -2.5 27.5t-6 44t-8 50.5t-7.5 48h105l19 -138q7 -46 28.5 -69t53.5 -23h10l16 -11
v-109zM862 587q0 -23 -15 -35.5t-41 -12.5q-24 0 -40 12.5t-16 35.5t15 35t41 12t41 -12t15 -35zM789 476q0 -23 -15 -35.5t-41 -12.5q-24 0 -40 12t-16 36q0 23 15 35t41 12t41 -12t15 -35zM935 476q0 -23 -15 -35.5t-41 -12.5q-24 0 -40 12t-16 36q0 23 15 35t41 12
t41 -12t15 -35z" />
    <glyph glyph-name="aShin.init" unicode="&#x634;" horiz-adv-x="750" arabic-form="initial" 
d="M270 0q-45 0 -76.5 19t-45.5 53q-14 -35 -49 -53.5t-86 -18.5h-13l-16 10v110l16 11h12q79 0 79 77v108h105v-107q0 -78 78 -78q74 0 74 77v108h105v-108q0 -77 76 -77q38 0 58 19.5t20 54.5q0 16 -4.5 37t-13 42.5t-20 43.5t-25.5 42l86 59q38 -48 60.5 -108t22.5 -120
q0 -92 -49 -146.5t-133 -54.5q-50 0 -85 18.5t-51 50.5q-15 -32 -48 -50.5t-77 -18.5zM457 587q0 -23 -15 -35.5t-41 -12.5q-24 0 -40 12.5t-16 35.5t15 35t41 12t41 -12t15 -35zM384 476q0 -23 -15 -35.5t-41 -12.5q-24 0 -40 12t-16 36q0 23 15 35t41 12t41 -12t15 -35z
M530 476q0 -23 -15 -35.5t-41 -12.5q-24 0 -40 12t-16 36q0 23 15 35t41 12t41 -12t15 -35z" />
    <glyph glyph-name="aShin.medi" unicode="&#x634;" horiz-adv-x="795" arabic-form="medial" 
d="M811 11l-16 -11h-6q-48 0 -82 21.5t-51 55.5q-12 -35 -45.5 -56t-78.5 -21q-51 0 -86.5 19t-50.5 51q-15 -32 -49 -51t-78 -19q-43 0 -74.5 19.5t-45.5 53.5q-14 -35 -48 -54t-85 -19h-15l-16 10v110l16 11h11q80 0 80 77v108h105v-107q0 -41 20 -59.5t58 -18.5
q74 0 74 77v108h105v-108q0 -77 77 -77q32 0 52.5 15t20.5 44q0 12 -2.5 32t-6.5 44t-8 49t-7 46h105l19 -138q7 -46 29 -69t54 -23h9l16 -11v-109zM457 587q0 -23 -15 -35.5t-41 -12.5q-24 0 -40 12.5t-16 35.5t15 35t41 12t41 -12t15 -35zM384 476q0 -23 -15 -35.5
t-41 -12.5q-24 0 -40 12t-16 36q0 23 15 35t41 12t41 -12t15 -35zM530 476q0 -23 -15 -35.5t-41 -12.5q-24 0 -40 12t-16 36q0 23 15 35t41 12t41 -12t15 -35z" />
    <glyph glyph-name="aSad.isol" unicode="&#x635;" horiz-adv-x="1241" arabic-form="isolated" 
d="M918 429q61 0 114 -21.5t92.5 -59.5t62 -89.5t22.5 -110.5q0 -76 -52 -112t-162 -36h-229q-43 0 -90.5 1.5t-92.5 5.5q-5 -44 -26.5 -81t-56 -63t-80.5 -40.5t-100 -14.5q-65 0 -118 19.5t-90 55.5t-57 87.5t-20 115.5q0 65 25 127t72 113l83 -61q-38 -45 -54 -85
t-16 -85q0 -35 13.5 -64t37.5 -50t57.5 -32.5t72.5 -11.5q31 0 58.5 6t48.5 17t34 26t16 32l-33 7l15 120l96 -8q22 69 57.5 123t81 91.5t101 57.5t117.5 20zM1027 131q42 0 56.5 7.5t14.5 27.5q0 27 -15 51t-39.5 42.5t-57.5 29.5t-69 11q-83 0 -150 -44.5t-105 -123.5
q25 -1 50 -1h53h262z" />
    <glyph glyph-name="aSad.fina" unicode="&#x635;" horiz-adv-x="1275" arabic-form="final" 
d="M1291 10l-16 -10h-7q-75 0 -103 42q-53 -42 -170 -42h-229q-41 0 -88.5 1.5t-94.5 6.5q-5 -45 -27 -81.5t-56.5 -63t-80.5 -41t-100 -14.5q-65 0 -117.5 19.5t-89.5 55.5t-57 87.5t-20 115.5q0 65 25 127t72 113l83 -61q-38 -45 -54 -85t-16 -85q0 -35 13.5 -64t37.5 -50
t57.5 -32.5t72.5 -11.5q31 0 58.5 6t48.5 17t34 26t16 32q-10 2 -18.5 3.5t-14.5 3.5l15 120l96 -8q22 69 57.5 123t81 91.5t101 57.5t117.5 20q61 0 114 -21.5t92.5 -59.5t62 -89.5t22.5 -110.5v-9q18 -8 59 -8h7l16 -11v-110zM1028 131q42 0 56 7.5t14 27.5q0 26 -15 50.5
t-40 43t-57.5 29.5t-68.5 11q-83 0 -150 -44.5t-105 -123.5q24 -1 49 -1h53h264z" />
    <glyph glyph-name="aSad.init" unicode="&#x635;" horiz-adv-x="727" arabic-form="initial" 
d="M404 429q61 0 114.5 -21.5t92.5 -59.5t61.5 -89.5t22.5 -110.5q0 -77 -52 -112.5t-164 -35.5h-479l-16 10v110l16 11h45q22 70 57 125.5t81 93.5t102 58.5t119 20.5zM514 131q42 0 56 7.5t14 27.5q0 26 -15 50.5t-39.5 43t-57 29.5t-68.5 11q-85 0 -152.5 -45
t-104.5 -124h367z" />
    <glyph glyph-name="aSad.medi" unicode="&#x635;" horiz-adv-x="761" arabic-form="medial" 
d="M777 10l-16 -10h-6q-76 0 -104 42q-53 -42 -172 -42h-479l-16 10v110l16 11h45q22 70 57 125t81 93.5t102 59t119 20.5q61 0 114.5 -21.5t92.5 -59.5t61.5 -89.5t22.5 -110.5v-9q19 -8 60 -8h6l16 -11v-110zM514 131q42 0 56 7.5t14 27.5q0 26 -15 50.5t-40 43
t-57.5 29.5t-67.5 11q-85 0 -152.5 -45t-104.5 -124h367z" />
    <glyph glyph-name="aDad.isol" unicode="&#x636;" horiz-adv-x="1241" arabic-form="isolated" 
d="M918 429q61 0 114 -21.5t92.5 -59.5t62 -89.5t22.5 -110.5q0 -76 -52 -112t-162 -36h-229q-43 0 -90.5 1.5t-92.5 5.5q-5 -44 -26.5 -81t-56 -63t-80.5 -40.5t-100 -14.5q-65 0 -118 19.5t-90 55.5t-57 87.5t-20 115.5q0 65 25 127t72 113l83 -61q-38 -45 -54 -85
t-16 -85q0 -35 13.5 -64t37.5 -50t57.5 -32.5t72.5 -11.5q31 0 58.5 6t48.5 17t34 26t16 32l-33 7l15 120l96 -8q22 69 57.5 123t81 91.5t101 57.5t117.5 20zM1027 131q42 0 56.5 7.5t14.5 27.5q0 27 -15 51t-39.5 42.5t-57.5 29.5t-69 11q-83 0 -150 -44.5t-105 -123.5
q25 -1 50 -1h53h262zM977 577q0 -24 -16 -37t-43 -13t-43 13t-16 37q0 23 16 36t43 13t43 -13t16 -36z" />
    <glyph glyph-name="aDad.fina" unicode="&#x636;" horiz-adv-x="1275" arabic-form="final" 
d="M1291 10l-16 -10h-7q-75 0 -103 42q-53 -42 -170 -42h-229q-41 0 -88.5 1.5t-94.5 6.5q-5 -45 -27 -81.5t-56.5 -63t-80.5 -41t-100 -14.5q-65 0 -117.5 19.5t-89.5 55.5t-57 87.5t-20 115.5q0 65 25 127t72 113l83 -61q-38 -45 -54 -85t-16 -85q0 -35 13.5 -64t37.5 -50
t57.5 -32.5t72.5 -11.5q31 0 58.5 6t48.5 17t34 26t16 32q-10 2 -18.5 3.5t-14.5 3.5l15 120l96 -8q22 69 57.5 123t81 91.5t101 57.5t117.5 20q61 0 114 -21.5t92.5 -59.5t62 -89.5t22.5 -110.5v-9q18 -8 59 -8h7l16 -11v-110zM1028 131q42 0 56 7.5t14 27.5q0 26 -15 50.5
t-40 43t-57.5 29.5t-68.5 11q-83 0 -150 -44.5t-105 -123.5q24 -1 49 -1h53h264zM977 577q0 -24 -16 -37t-43 -13t-43 13t-16 37q0 23 16 36t43 13t43 -13t16 -36z" />
    <glyph glyph-name="aDad.init" unicode="&#x636;" horiz-adv-x="727" arabic-form="initial" 
d="M404 429q61 0 114.5 -21.5t92.5 -59.5t61.5 -89.5t22.5 -110.5q0 -77 -52 -112.5t-164 -35.5h-479l-16 10v110l16 11h45q22 70 57 125.5t81 93.5t102 58.5t119 20.5zM514 131q42 0 56 7.5t14 27.5q0 26 -15 50.5t-39.5 43t-57 29.5t-68.5 11q-85 0 -152.5 -45
t-104.5 -124h367zM463 577q0 -24 -16 -37t-43 -13t-43 13t-16 37q0 23 16 36t43 13t43 -13t16 -36z" />
    <glyph glyph-name="aDad.medi" unicode="&#x636;" horiz-adv-x="761" arabic-form="medial" 
d="M777 10l-16 -10h-6q-76 0 -104 42q-53 -42 -172 -42h-479l-16 10v110l16 11h45q22 70 57 125t81 93.5t102 59t119 20.5q61 0 114.5 -21.5t92.5 -59.5t61.5 -89.5t22.5 -110.5v-9q19 -8 60 -8h6l16 -11v-110zM514 131q42 0 56 7.5t14 27.5q0 26 -15 50.5t-40 43
t-57.5 29.5t-67.5 11q-85 0 -152.5 -45t-104.5 -124h367zM463 577q0 -24 -16 -37t-43 -13t-43 13t-16 37q0 23 16 36t43 13t43 -13t16 -36z" />
    <glyph glyph-name="aTah.isol" unicode="&#x637;" horiz-adv-x="819" arabic-form="isolated" 
d="M333 380q44 23 88 35t86 12q58 0 109 -22t89 -60t60 -89t22 -108q0 -78 -52.5 -113t-166.5 -35h-539l-7 131h71q7 17 15.5 32.5t18.5 31.5l225 471l111 -54zM605 131q42 0 56.5 7.5t14.5 27.5q0 27 -15 51.5t-40.5 42.5t-59.5 29t-71 11q-50 0 -95.5 -12t-84 -33.5
t-69 -53t-49.5 -70.5h413z" />
    <glyph glyph-name="aTah.fina" unicode="&#x637;" horiz-adv-x="854" arabic-form="final" 
d="M870 10l-16 -10h-7q-36 0 -62.5 9.5t-41.5 32.5q-25 -20 -67.5 -31t-107.5 -11h-539l-7 131h71q16 34 34 64l225 471l111 -54l-130 -232q45 23 89 35t85 12q57 0 107.5 -21.5t89 -59.5t61 -89t22.5 -109v-10q11 -5 27.5 -6t32.5 -1h7l16 -11v-110zM600 131q24 0 39 2
t23.5 6t11 11t2.5 16q0 27 -15.5 51.5t-41 43t-59.5 29t-71 10.5q-47 0 -91.5 -11t-83.5 -32t-70 -52.5t-52 -73.5h408z" />
    <glyph glyph-name="aTah.init" unicode="&#x637;" horiz-adv-x="769" arabic-form="initial" 
d="M70 183l232 483l111 -54l-130 -233q44 23 88 35.5t87 12.5q57 0 107.5 -22t88.5 -59.5t60.5 -88.5t22.5 -109q0 -74 -50 -111t-169 -37h-518l-16 10v110l16 11h44q11 26 26 52zM556 131q42 0 56 7.5t14 27.5q0 26 -15 50.5t-40.5 43t-59 29.5t-70.5 11q-101 0 -180 -45
t-119 -124h414z" />
    <glyph glyph-name="aTah.medi" unicode="&#x637;" horiz-adv-x="804" arabic-form="medial" 
d="M820 10l-17 -10h-7q-35 0 -61.5 9.5t-41.5 32.5q-26 -21 -69 -31.5t-106 -10.5h-518l-16 10v110l16 11h44q11 26 26 52l232 483l111 -54l-130 -233q44 23 88 35.5t87 12.5q57 0 107.5 -22t88.5 -59.5t60.5 -88.5t22.5 -109v-10q11 -5 27.5 -6t31.5 -1h7l17 -11v-110z
M556 131q42 0 56 7.5t14 27.5q0 26 -15 50.5t-40.5 43t-59 29.5t-70.5 11q-101 0 -180 -45t-119 -124h414z" />
    <glyph glyph-name="aZah.isol" unicode="&#x638;" horiz-adv-x="819" arabic-form="isolated" 
d="M333 380q44 23 88 35t86 12q58 0 109 -22t89 -60t60 -89t22 -108q0 -78 -52.5 -113t-166.5 -35h-539l-7 131h71q7 17 15.5 32.5t18.5 31.5l225 471l111 -54zM605 131q42 0 56.5 7.5t14.5 27.5q0 27 -15 51.5t-40.5 42.5t-59.5 29t-71 11q-50 0 -95.5 -12t-84 -33.5
t-69 -53t-49.5 -70.5h413zM647 577q0 -24 -16 -37t-43 -13t-43 13t-16 37q0 23 16 36t43 13t43 -13t16 -36z" />
    <glyph glyph-name="aZah.fina" unicode="&#x638;" horiz-adv-x="854" arabic-form="final" 
d="M870 10l-16 -10h-7q-36 0 -62.5 9.5t-41.5 32.5q-25 -20 -67.5 -31t-107.5 -11h-539l-7 131h71q16 34 34 64l225 471l111 -54l-130 -232q45 23 89 35t85 12q57 0 107.5 -21.5t89 -59.5t61 -89t22.5 -109v-10q11 -5 27.5 -6t32.5 -1h7l16 -11v-110zM600 131q24 0 39 2
t23.5 6t11 11t2.5 16q0 27 -15.5 51.5t-41 43t-59.5 29t-71 10.5q-47 0 -91.5 -11t-83.5 -32t-70 -52.5t-52 -73.5h408zM647 577q0 -24 -16 -37t-43 -13t-43 13t-16 37q0 23 16 36t43 13t43 -13t16 -36z" />
    <glyph glyph-name="aZah.init" unicode="&#x638;" horiz-adv-x="769" arabic-form="initial" 
d="M70 183l232 483l111 -54l-130 -233q44 23 88 35.5t87 12.5q57 0 107.5 -22t88.5 -59.5t60.5 -88.5t22.5 -109q0 -74 -50 -111t-169 -37h-518l-16 10v110l16 11h44q11 26 26 52zM556 131q42 0 56 7.5t14 27.5q0 26 -15 50.5t-40.5 43t-59 29.5t-70.5 11q-101 0 -180 -45
t-119 -124h414zM597 577q0 -24 -16 -37t-43 -13t-43 13t-16 37q0 23 16 36t43 13t43 -13t16 -36z" />
    <glyph glyph-name="aZah.medi" unicode="&#x638;" horiz-adv-x="804" arabic-form="medial" 
d="M820 10l-17 -10h-7q-35 0 -61.5 9.5t-41.5 32.5q-26 -21 -69 -31.5t-106 -10.5h-518l-16 10v110l16 11h44q11 26 26 52l232 483l111 -54l-130 -233q44 23 88 35.5t87 12.5q57 0 107.5 -22t88.5 -59.5t60.5 -88.5t22.5 -109v-10q11 -5 27.5 -6t31.5 -1h7l17 -11v-110z
M556 131q42 0 56 7.5t14 27.5q0 26 -15 50.5t-40.5 43t-59 29.5t-70.5 11q-101 0 -180 -45t-119 -124h414zM597 577q0 -24 -16 -37t-43 -13t-43 13t-16 37q0 23 16 36t43 13t43 -13t16 -36z" />
    <glyph glyph-name="aAyn.isol" unicode="&#x639;" horiz-adv-x="574" arabic-form="isolated" 
d="M569 -208q-17 -18 -44 -33t-60.5 -26.5t-71.5 -17.5t-77 -6q-67 0 -122 16.5t-94 46.5t-60 72t-21 93q0 73 38 127.5t107 81.5q-23 11 -43 29.5t-34.5 41.5t-22.5 50t-8 56q0 45 17.5 83.5t48.5 66t74.5 43t94.5 15.5q46 0 85 -14.5t67.5 -40t44 -61t15.5 -77.5
q0 -14 -2.5 -28.5t-5.5 -24.5l-101 5q1 5 1 9.5v9.5q0 46 -30.5 73.5t-86.5 27.5q-51 0 -81 -26t-30 -69q0 -27 12.5 -49.5t35 -38.5t53.5 -25t67 -9h167v-124h-137q-114 0 -175 -30.5t-61 -84.5q0 -26 12.5 -46.5t35 -35.5t54.5 -23t70 -8q33 0 66.5 5t64.5 14t58.5 21.5
t48.5 27.5z" />
    <glyph glyph-name="aAyn.fina" unicode="&#x639;" horiz-adv-x="538" arabic-form="final" 
d="M554 12l-16 -12h-19q-64 0 -128.5 19.5t-124.5 54.5q-4 -2 -7.5 -5t-8.5 -5q-66 -40 -94.5 -66.5t-28.5 -57.5q0 -21 13 -39t36 -31.5t54 -21t68 -7.5q57 0 106.5 12.5t81.5 35.5l31 -116q-17 -14 -41.5 -26t-53 -20.5t-60.5 -13t-64 -4.5q-62 0 -114 15.5t-89.5 43
t-58.5 66t-21 84.5q0 75 37.5 128.5t118.5 94.5q-72 63 -119 143v80q16 22 41 40t54.5 31t62.5 20.5t66 7.5q71 0 132 -27.5t93 -73.5v-81q-21 -35 -49.5 -66.5t-66.5 -63.5q68 -20 137 -20h16l16 -12v-107zM411 312q-23 16 -58 25t-74 9q-37 0 -72 -9.5t-58 -23.5
q25 -35 58.5 -64t72.5 -52q35 21 70 52t61 63z" />
    <glyph glyph-name="aAyn.init" unicode="&#x639;" horiz-adv-x="577" arabic-form="initial" 
d="M548 0h-548l-16 12v107l16 12h99q-25 26 -38.5 60t-13.5 74q0 48 18 89t49.5 70t75 45.5t94.5 16.5q48 0 87.5 -14.5t68 -40.5t44 -62.5t15.5 -81.5q0 -28 -6 -47l-108 5q1 5 1 17q0 46 -29 75t-77 29q-54 0 -88 -28.5t-34 -75.5q0 -60 50 -95.5t136 -35.5h204v-131z" />
    <glyph glyph-name="aAyn.medi" unicode="&#x639;" horiz-adv-x="525" arabic-form="medial" 
d="M541 12l-17 -12h-17q-64 0 -127.5 18.5t-123.5 52.5q-61 -34 -124 -52.5t-120 -18.5h-12l-16 12v107l16 12h25q67 0 125 16q-68 61 -112 137v80q17 22 41.5 40t54 31t62.5 20.5t66 7.5q36 0 70 -7t63 -20.5t53 -32t39 -41.5v-81q-43 -70 -114 -130q68 -20 138 -20h13
l17 -12v-107zM397 312q-23 16 -58 25t-73 9t-73 -9.5t-58 -23.5q51 -71 131 -117q38 23 71.5 52t59.5 64z" />
    <glyph glyph-name="aGhayn.isol" unicode="&#x63a;" horiz-adv-x="574" arabic-form="isolated" 
d="M569 -208q-17 -18 -44 -33t-60.5 -26.5t-71.5 -17.5t-77 -6q-67 0 -122 16.5t-94 46.5t-60 72t-21 93q0 73 38 127.5t107 81.5q-23 11 -43 29.5t-34.5 41.5t-22.5 50t-8 56q0 45 17.5 83.5t48.5 66t74.5 43t94.5 15.5q46 0 85 -14.5t67.5 -40t44 -61t15.5 -77.5
q0 -14 -2.5 -28.5t-5.5 -24.5l-101 5q1 5 1 9.5v9.5q0 46 -30.5 73.5t-86.5 27.5q-51 0 -81 -26t-30 -69q0 -27 12.5 -49.5t35 -38.5t53.5 -25t67 -9h167v-124h-137q-114 0 -175 -30.5t-61 -84.5q0 -26 12.5 -46.5t35 -35.5t54.5 -23t70 -8q33 0 66.5 5t64.5 14t58.5 21.5
t48.5 27.5zM349 675q0 -24 -16 -37t-43 -13t-43 13t-16 37q0 23 16 36t43 13t43 -13t16 -36z" />
    <glyph glyph-name="aGhayn.fina" unicode="&#x63a;" horiz-adv-x="538" arabic-form="final" 
d="M554 12l-16 -12h-19q-64 0 -128.5 19.5t-124.5 54.5q-4 -2 -7.5 -5t-8.5 -5q-66 -40 -94.5 -66.5t-28.5 -57.5q0 -21 13 -39t36 -31.5t54 -21t68 -7.5q57 0 106.5 12.5t81.5 35.5l31 -116q-17 -14 -41.5 -26t-53 -20.5t-60.5 -13t-64 -4.5q-62 0 -114 15.5t-89.5 43
t-58.5 66t-21 84.5q0 75 37.5 128.5t118.5 94.5q-72 63 -119 143v80q16 22 41 40t54.5 31t62.5 20.5t66 7.5q71 0 132 -27.5t93 -73.5v-81q-21 -35 -49.5 -66.5t-66.5 -63.5q68 -20 137 -20h16l16 -12v-107zM411 312q-23 16 -58 25t-74 9q-37 0 -72 -9.5t-58 -23.5
q25 -35 58.5 -64t72.5 -52q35 21 70 52t61 63zM335 577q0 -24 -16 -37t-43 -13t-43 13t-16 37q0 23 16 36t43 13t43 -13t16 -36z" />
    <glyph glyph-name="aGhayn.init" unicode="&#x63a;" horiz-adv-x="577" arabic-form="initial" 
d="M548 0h-548l-16 12v107l16 12h99q-25 26 -38.5 60t-13.5 74q0 48 18 89t49.5 70t75 45.5t94.5 16.5q48 0 87.5 -14.5t68 -40.5t44 -62.5t15.5 -81.5q0 -28 -6 -47l-108 5q1 5 1 17q0 46 -29 75t-77 29q-54 0 -88 -28.5t-34 -75.5q0 -60 50 -95.5t136 -35.5h204v-131z
M344 593q0 -24 -16 -37t-43 -13t-43 13t-16 37q0 23 16 36t43 13t43 -13t16 -36z" />
    <glyph glyph-name="aGhayn.medi" unicode="&#x63a;" horiz-adv-x="525" arabic-form="medial" 
d="M541 12l-17 -12h-17q-64 0 -127.5 18.5t-123.5 52.5q-61 -34 -124 -52.5t-120 -18.5h-12l-16 12v107l16 12h25q67 0 125 16q-68 61 -112 137v80q17 22 41.5 40t54 31t62.5 20.5t66 7.5q36 0 70 -7t63 -20.5t53 -32t39 -41.5v-81q-43 -70 -114 -130q68 -20 138 -20h13
l17 -12v-107zM397 312q-23 16 -58 25t-73 9t-73 -9.5t-58 -23.5q51 -71 131 -117q38 23 71.5 52t59.5 64zM322 577q0 -24 -16 -37t-43 -13t-43 13t-16 37q0 23 16 36t43 13t43 -13t16 -36z" />
    <glyph glyph-name="aFeh.isol" unicode="&#x641;" horiz-adv-x="800" arabic-form="isolated" 
d="M536 206q-81 0 -128 43.5t-47 120.5q0 42 13.5 79t37.5 64t56 43t68 16q47 0 87.5 -25t70.5 -68.5t47.5 -102.5t17.5 -126q0 -129 -81.5 -189.5t-255.5 -60.5h-37q-170 0 -260 65t-90 188q0 117 76 202l85 -50q-51 -62 -51 -133q0 -68 64 -104.5t183 -36.5h27
q130 0 187 24.5t57 80.5q-25 -14 -58 -22t-69 -8zM536 455q-35 0 -58 -24t-23 -60q0 -32 23 -46.5t74 -14.5q26 0 54 6t48 15q-12 56 -44 90t-74 34zM592 693q0 -24 -16 -37t-43 -13t-43 13t-16 37q0 23 16 36t43 13t43 -13t16 -36z" />
    <glyph glyph-name="aFeh.fina" unicode="&#x641;" horiz-adv-x="887" arabic-form="final" 
d="M903 10l-16 -10h-25q-60 0 -117 13.5t-107 38.5q-54 -25 -116 -38.5t-128 -13.5h-19q-163 1 -251.5 66.5t-88.5 186.5q0 117 76 202l85 -50q-51 -62 -51 -132q0 -69 63.5 -105.5t181.5 -36.5h24q57 0 107 6q-30 32 -47 68t-17 74q0 37 14.5 70t39.5 58t58.5 39t71.5 14
q39 0 73 -14.5t59 -40t39.5 -60.5t14.5 -75q0 -36 -17 -70.5t-48 -65.5q28 -3 60 -3h65l16 -10v-111zM732 260q0 35 -26 58t-68 23q-38 0 -62 -19.5t-24 -51.5t23.5 -58.5t65.5 -46.5q44 17 67.5 41.5t23.5 53.5zM700 577q0 -24 -16 -37t-43 -13t-43 13t-16 37q0 23 16 36
t43 13t43 -13t16 -36z" />
    <glyph glyph-name="aFeh.init" unicode="&#x641;" horiz-adv-x="461" arabic-form="initial" 
d="M196 206q-81 0 -128 44t-47 120q0 42 14 79t38 64t56 43t69 16q46 0 86 -24.5t70 -67.5t47.5 -100t17.5 -122q0 -133 -77 -195.5t-243 -62.5h-99l-16 10v110l16 11h88q64 0 108.5 5.5t72 18t40.5 33t14 49.5q-25 -14 -58.5 -22.5t-68.5 -8.5zM197 455q-35 0 -58.5 -23.5
t-23.5 -60.5q0 -61 96 -61q26 0 54.5 6t48.5 16q-13 55 -44.5 89t-72.5 34zM258 693q0 -24 -16 -37t-43 -13t-43 13t-16 37q0 23 16 36t43 13t43 -13t16 -36z" />
    <glyph glyph-name="aFeh.medi" unicode="&#x641;" horiz-adv-x="486" arabic-form="medial" 
d="M502 10l-16 -10h-24q-60 0 -116.5 14t-107.5 38q-51 -24 -109 -38t-117 -14h-12l-16 10v111l16 10h45q20 0 39 1t37 3q-31 32 -48 67.5t-17 72.5q0 39 14.5 73t39 59t58.5 39t73 14q40 0 74 -14.5t59 -40.5t39 -62t14 -78q0 -34 -17.5 -67.5t-49.5 -63.5q30 -3 62 -3h64
l16 -10v-111zM332 261q0 34 -27 57t-66 23q-38 0 -62.5 -19.5t-24.5 -50.5q0 -32 24.5 -59.5t67.5 -47.5q42 18 65 42.5t23 54.5zM300 577q0 -24 -16 -37t-43 -13t-43 13t-16 37q0 23 16 36t43 13t43 -13t16 -36z" />
    <glyph glyph-name="aQaf.isol" unicode="&#x642;" horiz-adv-x="712" arabic-form="isolated" 
d="M456 27q-83 0 -130 45t-47 123q0 44 13.5 83t37 67.5t55.5 45t69 16.5q46 0 86.5 -24t71 -66t48 -98.5t17.5 -120.5q0 -68 -23.5 -121.5t-67.5 -91t-106.5 -57.5t-140.5 -20q-146 0 -225 73.5t-79 207.5q0 63 25 124t72 113l83 -61q-35 -42 -52.5 -82.5t-17.5 -85.5
q0 -73 50 -115t142 -42q103 0 168 31.5t74 85.5q-23 -14 -55.5 -22t-67.5 -8zM457 287q-37 0 -60.5 -25t-23.5 -65q0 -32 24 -47t75 -15q24 0 51.5 5.5t49.5 15.5q-14 57 -45.5 94t-70.5 37zM436 547q0 -24 -15.5 -36.5t-41.5 -12.5q-25 0 -41 12t-16 37q0 23 15.5 35.5
t41.5 12.5t41.5 -12.5t15.5 -35.5zM586 547q0 -24 -15.5 -36.5t-42.5 -12.5q-24 0 -40 12t-16 37q0 23 15 35.5t41 12.5q27 0 42.5 -12.5t15.5 -35.5z" />
    <glyph glyph-name="aQaf.fina" unicode="&#x642;" horiz-adv-x="733" arabic-form="final" 
d="M749 10l-16 -10h-72q-30 -91 -114 -141.5t-209 -50.5q-145 0 -224 73t-79 208q0 63 25 124t72 113l83 -61q-37 -45 -53.5 -85t-16.5 -83q0 -74 50 -115.5t141 -41.5q81 0 138.5 19.5t85.5 53.5h-104q-41 0 -73.5 13t-55.5 36.5t-35.5 57t-12.5 75.5q0 44 14 83t38 67.5
t56 45t68 16.5q43 0 81 -21.5t67.5 -58.5t48.5 -87.5t24 -108.5h57l16 -11v-110zM457 287q-36 0 -59.5 -25t-23.5 -64q0 -67 102 -67h101q-5 33 -16 61.5t-27 49.5t-35.5 33t-41.5 12zM437 547q0 -24 -15.5 -36.5t-41.5 -12.5q-25 0 -41 12t-16 37q0 23 15.5 35.5t41.5 12.5
t41.5 -12.5t15.5 -35.5zM587 547q0 -24 -15.5 -36.5t-42.5 -12.5q-24 0 -40 12t-16 37q0 23 15 35.5t41 12.5q27 0 42.5 -12.5t15.5 -35.5z" />
    <glyph glyph-name="aQaf.init" unicode="&#x642;" horiz-adv-x="461" arabic-form="initial" 
d="M196 206q-81 0 -128 44t-47 120q0 42 14 79t38 64t56 43t69 16q46 0 86 -24.5t70 -67.5t47.5 -100t17.5 -122q0 -133 -77 -195.5t-243 -62.5h-99l-16 10v110l16 11h88q64 0 108.5 5.5t72 18t40.5 33t14 49.5q-25 -14 -58.5 -22.5t-68.5 -8.5zM197 455q-35 0 -58.5 -23.5
t-23.5 -60.5q0 -61 96 -61q26 0 54.5 6t48.5 16q-13 55 -44.5 89t-72.5 34zM181 692q0 -24 -15.5 -36.5t-41.5 -12.5q-25 0 -41 12t-16 37q0 23 15.5 35.5t41.5 12.5t41.5 -12.5t15.5 -35.5zM331 692q0 -24 -15.5 -36.5t-42.5 -12.5q-24 0 -40 12t-16 37q0 23 15 35.5
t41 12.5q27 0 42.5 -12.5t15.5 -35.5z" />
    <glyph glyph-name="aQaf.medi" unicode="&#x642;" horiz-adv-x="486" arabic-form="medial" 
d="M502 10l-16 -10h-24q-60 0 -116.5 14t-107.5 38q-51 -24 -109 -38t-117 -14h-12l-16 10v111l16 10h45q20 0 39 1t37 3q-31 32 -48 67.5t-17 72.5q0 39 14.5 73t39 59t58.5 39t73 14q40 0 74 -14.5t59 -40.5t39 -62t14 -78q0 -34 -17.5 -67.5t-49.5 -63.5q30 -3 62 -3h64
l16 -10v-111zM332 261q0 34 -27 57t-66 23q-38 0 -62.5 -19.5t-24.5 -50.5q0 -32 24.5 -59.5t67.5 -47.5q42 18 65 42.5t23 54.5zM223 576q0 -24 -15.5 -36.5t-41.5 -12.5q-25 0 -41 12t-16 37q0 23 15.5 35.5t41.5 12.5t41.5 -12.5t15.5 -35.5zM373 576q0 -24 -15.5 -36.5
t-42.5 -12.5q-24 0 -40 12t-16 37q0 23 15 35.5t41 12.5q27 0 42.5 -12.5t15.5 -35.5z" />
    <glyph glyph-name="aKaf.isol" unicode="&#x643;" horiz-adv-x="426" arabic-form="isolated" 
d="M22 135q16 -2 42 -3t50 -1q91 0 132 22.5t41 72.5q0 52 -46.5 85t-124.5 35l-37 105l238 214l73 -87l-163 -142q79 -26 125 -85t46 -137q0 -104 -73 -159t-212 -55q-25 0 -45.5 1.5t-39.5 6.5z" />
    <glyph glyph-name="aKaf.fina" unicode="&#x643;" horiz-adv-x="472" arabic-form="final" 
d="M488 10l-16 -10h-12q-43 0 -73.5 18t-44.5 52q-72 -70 -229 -70q-25 0 -45.5 1.5t-39.5 6.5l-6 127q16 -2 43 -3t49 -1q91 0 132 22.5t41 72.5q0 52 -46.5 85t-124.5 35l-37 105l238 214l73 -87l-163 -142q79 -26 125 -85t46 -137q0 -32 -8 -62q21 -21 70 -21h12l16 -11
v-110z" />
    <glyph glyph-name="aKaf.init" unicode="&#x643;" horiz-adv-x="383" arabic-form="initial" 
d="M35 451l239 214l73 -87l-163 -142q78 -26 124.5 -85t46.5 -137q0 -105 -72 -159.5t-209 -54.5h-74l-16 11v109l16 11h89q155 0 155 95q0 52 -46.5 85t-124.5 35z" />
    <glyph glyph-name="aKaf.medi" unicode="&#x643;" horiz-adv-x="419" arabic-form="medial" 
d="M435 10l-16 -10h-7q-85 0 -117 65q-71 -65 -221 -65h-74l-16 11v109l16 11h89q155 0 155 95q0 52 -46.5 85t-124.5 35l-38 105l239 214l73 -87l-163 -142q78 -26 124.5 -85t46.5 -137q0 -36 -9 -66q23 -17 65 -17h8l16 -11v-110z" />
    <glyph glyph-name="aLam.isol" unicode="&#x644;" horiz-adv-x="653" arabic-form="isolated" 
d="M601 130q0 -154 -72.5 -238t-206.5 -84q-66 0 -119 19.5t-90.5 55t-57.5 86.5t-20 114q0 68 25 130t72 113l83 -61q-38 -46 -54 -85t-16 -84q0 -72 48.5 -114t133.5 -42q83 0 125.5 49t42.5 145v533h106v-537z" />
    <glyph glyph-name="aLam.fina" unicode="&#x644;" horiz-adv-x="699" arabic-form="final" 
d="M715 10l-16 -10h-6q-32 0 -58 9t-43 25q-21 -109 -90 -167.5t-180 -58.5q-66 0 -119 19.5t-90.5 55t-57.5 86.5t-20 114q0 68 25 130t72 113l83 -61q-38 -46 -54 -85t-16 -84q0 -72 48.5 -114t133.5 -42q83 0 125.5 49t42.5 145v533h106v-488q2 -21 27.5 -34.5
t63.5 -13.5h7l16 -11v-110z" />
    <glyph glyph-name="aLam.init" unicode="&#x644;" horiz-adv-x="256" arabic-form="initial" 
d="M203 198q0 -97 -48.5 -147.5t-142.5 -50.5h-12l-16 10v110l16 11h9q42 0 64.5 18t22.5 53v465h107v-469z" />
    <glyph glyph-name="aLam.medi" unicode="&#x644;" horiz-adv-x="300" arabic-form="medial" 
d="M316 10l-16 -10h-5q-48 0 -88 17t-58 44q-14 -29 -52 -45t-92 -16h-5l-16 10v110l16 11h11q85 0 85 67v469h107v-483q0 -24 24.5 -38.5t66.5 -14.5h6l16 -11v-110z" />
    <glyph glyph-name="aMim.isol" unicode="&#x645;" horiz-adv-x="614" arabic-form="isolated" 
d="M145 -291h-106v424q0 62 22 112.5t62.5 86.5t97 55.5t126.5 19.5q52 0 95 -16.5t74 -47.5t47.5 -74t16.5 -96q0 -88 -49.5 -135.5t-140.5 -47.5q-85 0 -134.5 49.5t-49.5 135.5q0 56 24 98q-85 -33 -85 -138v-426zM478 190q0 42 -27 68t-69 26q-41 0 -64 -22.5t-23 -61.5
q0 -38 24 -58.5t69 -20.5q90 0 90 69z" />
    <glyph glyph-name="aMim.fina" unicode="&#x645;" horiz-adv-x="671" arabic-form="final" 
d="M687 10l-16 -10h-9q-32 0 -66 17.5t-53 51.5q-19 -38 -59 -58.5t-97 -20.5q-84 0 -132.5 50.5t-48.5 134.5q0 25 5.5 50.5t18.5 47.5q-39 -15 -62 -47t-23 -91v-426h-106v423q0 69 24.5 120.5t67 86t99.5 51.5t121 17q72 0 121 -31.5t83 -102.5q15 -31 25 -57t20.5 -45
t25 -29.5t37.5 -10.5h8l16 -10v-111zM478 190q0 17 -6 34t-18 30.5t-30 21.5t-42 8t-41 -7.5t-27 -19.5t-14.5 -27t-4.5 -30q0 -38 23.5 -58.5t69.5 -20.5q39 0 64.5 15.5t25.5 53.5z" />
    <glyph glyph-name="aMim.init" unicode="&#x645;" horiz-adv-x="510" arabic-form="initial" 
d="M15 0h-15l-16 10v111l16 10h7q35 0 53 17t29 58q24 100 73.5 150.5t121.5 50.5q41 0 76.5 -17.5t61 -48t40 -72.5t14.5 -91q0 -87 -48.5 -137.5t-131.5 -50.5q-48 0 -87.5 17t-66.5 48q-39 -55 -127 -55zM288 121q42 0 63.5 18.5t21.5 52.5q0 39 -24 66t-60 27
q-38 0 -62 -29t-46 -100q20 -17 48 -26t59 -9z" />
    <glyph glyph-name="aMim.medi" unicode="&#x645;" horiz-adv-x="554" arabic-form="medial" 
d="M570 10l-16 -10h-6q-76 0 -109 54q-23 -31 -59.5 -47.5t-83.5 -16.5q-48 0 -87.5 17t-66.5 48q-39 -55 -127 -55h-15l-16 10v111l16 10h7q35 0 53 17t29 58q48 201 195 201q41 0 76.5 -17.5t61 -48t40 -72.5t14.5 -91v-10t-1 -10q10 -11 30 -19t43 -8h6l16 -11v-110z
M288 121q42 0 63.5 18.5t21.5 52.5q0 39 -24 66t-60 27q-19 0 -34 -7t-27.5 -22t-24 -39.5t-22.5 -60.5q20 -17 48 -26t59 -9z" />
    <glyph glyph-name="aNun.isol" unicode="&#x646;" horiz-adv-x="632" arabic-form="isolated" 
d="M516 357q19 -27 34.5 -59.5t26.5 -67t17 -70t6 -68.5q0 -64 -20 -116.5t-57 -89.5t-88.5 -57.5t-114.5 -20.5q-66 0 -118.5 19.5t-89.5 55t-57 86.5t-20 114q0 68 25.5 131.5t71.5 111.5l83 -61q-36 -44 -53 -84t-17 -83q0 -75 48.5 -116.5t136.5 -41.5q72 0 115.5 36.5
t43.5 96.5q0 52 -18.5 111.5t-53.5 116.5zM374 448q0 -24 -16 -37t-43 -13t-43 13t-16 37q0 23 16 36t43 13t43 -13t16 -36z" />
    <glyph glyph-name="aNun.fina" unicode="&#x646;" horiz-adv-x="692" arabic-form="final" 
d="M708 10l-16 -10h-11q-58 0 -88 32q-8 -51 -30 -92.5t-57 -70.5t-81.5 -45t-102.5 -16q-66 0 -119.5 19.5t-90.5 55.5t-57 87t-20 114q0 71 26.5 133t70.5 109l83 -61q-36 -45 -53 -84t-17 -85q0 -72 48 -114t140 -42q74 0 115.5 38.5t41.5 101.5q0 37 -19.5 96.5
t-51.5 128.5l101 52q19 -41 32 -76t33 -78q19 -44 42.5 -58t52.5 -14h12l16 -11v-110zM374 448q0 -24 -16 -37t-43 -13t-43 13t-16 37q0 23 16 36t43 13t43 -13t16 -36z" />
    <glyph glyph-name="aNun.init" unicode="&#x646;" horiz-adv-x="275" arabic-form="initial" 
d="M0 0l-16 10v110l16 11h20q107 0 107 93q0 33 -15.5 77.5t-45.5 95.5l94 54q35 -50 55 -111t20 -115q0 -107 -54 -166t-154 -59h-27zM180 577q0 -24 -16 -37t-43 -13t-43 13t-16 37q0 23 16 36t43 13t43 -13t16 -36z" />
    <glyph glyph-name="aNun.medi" unicode="&#x646;" horiz-adv-x="328" arabic-form="medial" 
d="M344 10l-17 -10h-9q-54 0 -93 20t-56 54q-14 -32 -56 -53t-97 -21h-16l-16 10v110l16 11h15q96 0 96 79v160h105v-151q0 -88 99 -88h12l17 -11v-110zM223 494q0 -24 -16 -37t-43 -13t-43 13t-16 37q0 23 16 36t43 13t43 -13t16 -36z" />
    <glyph glyph-name="aHeh.isol" unicode="&#x647;" horiz-adv-x="469" arabic-form="isolated" 
d="M423 494q-114 -29 -186 -77.5t-97 -110.5q48 53 127 53q38 0 69.5 -12.5t53.5 -35t34 -53.5t12 -69q0 -44 -13.5 -80t-38 -61.5t-59.5 -39.5t-78 -14q-48 0 -87.5 17.5t-67.5 50t-43.5 77.5t-15.5 99q0 65 26 124t74 108t115.5 85t150.5 55zM253 114q39 0 62.5 21.5
t23.5 56.5q0 32 -22 50t-64 18q-39 0 -71 -17t-47 -45q12 -39 42.5 -61.5t75.5 -22.5z" />
    <glyph glyph-name="aHeh.fina" unicode="&#x647;" horiz-adv-x="492" arabic-form="final" 
d="M508 10l-16 -10h-14q-46 0 -82.5 15.5t-61.5 44.5q-22 -33 -60 -51.5t-87 -18.5q-75 0 -118.5 43t-43.5 118q0 69 37 115.5t122 85.5q22 10 47.5 18.5t60.5 18.5v70h105v-271q0 -27 23 -42t66 -15h6l16 -10v-111zM292 279q-20 -5 -36.5 -10t-33.5 -10q-50 -17 -72 -37
t-22 -49q0 -26 19 -39.5t54 -13.5q27 0 52 9t39 21v129z" />
    <glyph glyph-name="aHeh.init" unicode="&#x647;" horiz-adv-x="653" arabic-form="initial" 
d="M625 154q0 -77 -50.5 -118.5t-144.5 -41.5q-51 0 -100.5 14.5t-94.5 39.5q-48 -23 -102.5 -35.5t-113.5 -12.5h-19l-16 10v111l16 10h30q25 0 48 1.5t44 3.5q-30 34 -47 71t-17 75q0 39 13.5 72t37.5 57t57.5 37.5t73.5 13.5q48 0 87.5 -22t62.5 -59q49 -8 92 -29
t74.5 -51.5t50 -68.5t18.5 -78zM328 265q0 34 -25 55t-66 21q-39 0 -63 -19.5t-24 -53.5q0 -31 22.5 -58.5t60.5 -47.5q45 18 70 44.5t25 58.5zM418 276q-2 -42 -20.5 -80t-50.5 -70q17 -3 34 -4t34 -1q104 0 104 55q0 30 -28.5 58t-72.5 42z" />
    <glyph glyph-name="aHeh.medi" unicode="&#x647;" horiz-adv-x="686" arabic-form="medial" 
d="M702 10l-16 -10h-7q-63 0 -94 46q-50 -52 -155 -52q-51 0 -100.5 14.5t-94.5 39.5q-48 -23 -102.5 -35.5t-113.5 -12.5h-19l-16 10v111l16 10h30q25 0 48 1.5t44 3.5q-30 34 -47 71t-17 75q0 39 13.5 72t37.5 57t57.5 37.5t73.5 13.5q48 0 87.5 -22t62.5 -59
q49 -8 92 -29t74.5 -51.5t50 -68.5t18.5 -78v-7q19 -16 54 -16h7l16 -11v-110zM328 265q0 34 -25 55t-66 21q-40 0 -63.5 -20t-23.5 -53q0 -31 22.5 -58.5t60.5 -47.5q45 18 70 44.5t25 58.5zM347 126q17 -3 34 -4t34 -1q104 0 104 55q0 30 -28.5 58t-72.5 42
q-2 -42 -20.5 -80t-50.5 -70z" />
    <glyph glyph-name="aWaw.isol" unicode="&#x648;" horiz-adv-x="485" arabic-form="isolated" 
d="M230 21q-84 0 -132 46t-48 124q0 46 13.5 85.5t37 68.5t56 45.5t70.5 16.5q46 0 86.5 -24.5t70.5 -66.5t47.5 -99.5t17.5 -123.5q0 -136 -72 -210.5t-203 -74.5q-55 0 -104 17t-80 46l36 102q13 -9 31 -17t38.5 -14t42.5 -9t42 -3q36 0 67 9t54 25.5t37 39t16 49.5
q-22 -15 -54.5 -23.5t-69.5 -8.5zM226 287q-35 0 -58 -26t-23 -66q0 -61 98 -61q25 0 52 5t49 14q-14 60 -45 97t-73 37z" />
    <glyph glyph-name="aWaw.fina" unicode="&#x648;" horiz-adv-x="503" arabic-form="final" 
d="M519 10l-16 -10h-66q-23 -92 -90.5 -142t-173.5 -50q-26 0 -53 5t-51.5 13t-45 19.5t-33.5 25.5l36 102q13 -9 31 -17t38.5 -14t42.5 -9t42 -3q58 0 100.5 22.5t60.5 60.5h-110q-85 0 -133 48t-48 132q0 45 13.5 84t37.5 68t56 45.5t70 16.5q43 0 80.5 -21t67 -58
t48 -87.5t23.5 -109.5h57l16 -11v-110zM226 287q-35 0 -58 -25t-23 -61q0 -37 23.5 -53.5t76.5 -16.5h102q-5 34 -16.5 62.5t-27 49.5t-35.5 32.5t-42 11.5z" />
    <glyph glyph-name="aAlifMaksura.isol" unicode="&#x649;" horiz-adv-x="686" arabic-form="isolated" 
d="M622 290q-24 17 -59 27.5t-72 10.5q-48 0 -77 -18.5t-29 -48.5q0 -20 15 -33t48 -22l56 -15q76 -20 112 -60t36 -104q0 -47 -20 -87.5t-56.5 -69.5t-86.5 -45.5t-110 -16.5q-78 0 -141.5 21t-108.5 61.5t-69.5 98.5t-24.5 133q0 60 16.5 117.5t47.5 104.5l95 -43
q-23 -38 -36 -81.5t-13 -83.5q0 -44 17.5 -80.5t49 -62t76 -39.5t98.5 -14q75 0 117 20.5t42 57.5q0 23 -17 37.5t-58 25.5l-47 13q-137 38 -137 150q0 43 17 80.5t47 65.5t70.5 43.5t87.5 15.5q24 0 48.5 -5t45.5 -13t38 -19.5t26 -24.5z" />
    <glyph glyph-name="aAlifMaksura.fina" unicode="&#x649;" horiz-adv-x="803" arabic-form="final" 
d="M819 11l-16 -11h-10q-70 0 -123.5 48.5t-77.5 136.5l-58 -54q25 -26 39.5 -60t14.5 -69q0 -44 -18.5 -79.5t-52 -61t-81 -39.5t-104.5 -14q-68 0 -123 19t-93.5 55t-59.5 86.5t-21 113.5q0 123 80 205l84 -60q-54 -63 -54 -133q0 -35 14.5 -63t40.5 -48.5t62.5 -31.5
t80.5 -11q63 0 99 19t36 52q0 27 -16 47t-43 37l16 110l177 152l48 -19q14 -104 49.5 -155.5t87.5 -51.5h6l16 -11v-109z" />
    <glyph glyph-name="aYeh.isol" unicode="&#x64a;" horiz-adv-x="686" arabic-form="isolated" 
d="M622 290q-24 17 -59 27.5t-72 10.5q-48 0 -77 -18.5t-29 -48.5q0 -20 15 -33t48 -22l56 -15q76 -20 112 -60t36 -104q0 -47 -20 -87.5t-56.5 -69.5t-86.5 -45.5t-110 -16.5q-78 0 -141.5 21t-108.5 61.5t-69.5 98.5t-24.5 133q0 60 16.5 117.5t47.5 104.5l95 -43
q-23 -38 -36 -81.5t-13 -83.5q0 -44 17.5 -80.5t49 -62t76 -39.5t98.5 -14q75 0 117 20.5t42 57.5q0 23 -17 37.5t-58 25.5l-47 13q-137 38 -137 150q0 43 17 80.5t47 65.5t70.5 43.5t87.5 15.5q24 0 48.5 -5t45.5 -13t38 -19.5t26 -24.5zM495 -318q0 -24 -15.5 -36.5
t-42.5 -12.5q-24 0 -40 12t-16 37q0 23 15 35.5t41 12.5q27 0 42.5 -12.5t15.5 -35.5zM345 -318q0 -24 -15.5 -36.5t-41.5 -12.5q-25 0 -41 12t-16 37q0 23 15.5 35.5t41.5 12.5t41.5 -12.5t15.5 -35.5z" />
    <glyph glyph-name="aYeh.fina" unicode="&#x64a;" horiz-adv-x="803" arabic-form="final" 
d="M819 11l-16 -11h-10q-70 0 -123.5 48.5t-77.5 136.5l-58 -54q25 -26 39.5 -60t14.5 -69q0 -44 -18.5 -79.5t-52 -61t-81 -39.5t-104.5 -14q-68 0 -123 19t-93.5 55t-59.5 86.5t-21 113.5q0 123 80 205l84 -60q-54 -63 -54 -133q0 -35 14.5 -63t40.5 -48.5t62.5 -31.5
t80.5 -11q63 0 99 19t36 52q0 27 -16 47t-43 37l16 110l177 152l48 -19q14 -104 49.5 -155.5t87.5 -51.5h6l16 -11v-109zM464 -318q0 -24 -15.5 -36.5t-42.5 -12.5q-24 0 -40 12t-16 37q0 23 15 35.5t41 12.5q27 0 42.5 -12.5t15.5 -35.5zM314 -318q0 -24 -15.5 -36.5
t-41.5 -12.5q-25 0 -41 12t-16 37q0 23 15.5 35.5t41.5 12.5t41.5 -12.5t15.5 -35.5z" />
    <glyph glyph-name="aYeh.init" unicode="&#x64a;" horiz-adv-x="275" arabic-form="initial" 
d="M0 0l-16 10v110l16 11h20q107 0 107 93q0 33 -15.5 77.5t-45.5 95.5l94 54q35 -50 55 -111t20 -115q0 -107 -54 -166t-154 -59h-27zM268 -114q0 -24 -15.5 -36.5t-42.5 -12.5q-24 0 -40 12t-16 37q0 23 15 35.5t41 12.5q27 0 42.5 -12.5t15.5 -35.5zM118 -114
q0 -24 -15.5 -36.5t-41.5 -12.5q-25 0 -41 12t-16 37q0 23 15.5 35.5t41.5 12.5t41.5 -12.5t15.5 -35.5z" />
    <glyph glyph-name="aYeh.medi" unicode="&#x64a;" horiz-adv-x="328" arabic-form="medial" 
d="M344 10l-17 -10h-9q-54 0 -93 20t-56 54q-14 -32 -56 -53t-97 -21h-16l-16 10v110l16 11h15q96 0 96 79v160h105v-151q0 -88 99 -88h12l17 -11v-110zM296 -114q0 -24 -15.5 -36.5t-42.5 -12.5q-24 0 -40 12t-16 37q0 23 15 35.5t41 12.5q27 0 42.5 -12.5t15.5 -35.5z
M146 -114q0 -24 -15.5 -36.5t-41.5 -12.5q-25 0 -41 12t-16 37q0 23 15.5 35.5t41.5 12.5t41.5 -12.5t15.5 -35.5z" />
    <glyph glyph-name=".notdef" horiz-adv-x="500" 
d="M50 0v750h400v-750h-400zM400 50v650h-300v-650h300z" />
    <glyph glyph-name=".null" 
 />
    <glyph glyph-name=".null" 
 />
    <glyph glyph-name=".null" 
 />
    <glyph glyph-name="nonmarkingreturn" unicode="&#x9;" horiz-adv-x="200" 
 />
    <glyph glyph-name="nonmarkingreturn" unicode="&#xd;" horiz-adv-x="200" 
 />
    <glyph glyph-name="space" unicode=" " horiz-adv-x="200" 
 />
    <glyph glyph-name="exclam" unicode="!" horiz-adv-x="241" 
d="M56 211v456h132v-456h-132zM121 -11q-36 0 -59 24.5t-23 56.5t23 56.5t59 24.5q18 0 32.5 -7t25.5 -18t17 -25.5t6 -30.5t-6 -30.5t-17 -26t-25.5 -18t-32.5 -6.5z" />
    <glyph glyph-name="quotedbl" unicode="&#x22;" horiz-adv-x="416" 
d="M246 371v296h125v-296h-125zM45 371v296h125v-296h-125z" />
    <glyph glyph-name="numbersign" unicode="#" horiz-adv-x="671" 
d="M35 206v114h139v101h-139v113h139v133h114v-133h100v133h113v-133h140v-113h-140v-101h140v-114h-140v-132h-113v132h-100v-132h-114v132h-139zM288 320h100v101h-100v-101z" />
    <glyph glyph-name="dollar" unicode="$" horiz-adv-x="540" 
d="M233 -139v128q-66 8 -121.5 38.5t-90.5 93.5l106 64q28 -45 63.5 -63t80.5 -18q48 0 76.5 18.5t28.5 50.5q0 22 -8 38t-22 28t-32 20.5t-37 16.5q-39 16 -80 32t-74.5 39.5t-55 58t-21.5 88.5q0 41 15.5 72.5t41.5 54t60 36t70 19.5v147h91v-144q59 -7 109 -36.5
t79 -83.5l-110 -57q-23 35 -54 49.5t-68 14.5q-45 0 -73 -18t-28 -50q0 -17 9.5 -30t23.5 -23t30 -17t29 -12q42 -17 84.5 -34.5t77.5 -43t57 -63t22 -94.5q0 -42 -15.5 -75t-41.5 -57t-60 -38.5t-71 -20.5v-129h-91z" />
    <glyph glyph-name="percent" unicode="%" horiz-adv-x="740" 
d="M495 5q-31 14 -52 36t-31.5 50t-10.5 57t10.5 57.5t31.5 50.5t53 35.5t74 13.5t73 -13.5t52 -35.5t31.5 -50t10.5 -57q0 -30 -10.5 -58t-31.5 -50t-52.5 -35.5t-73.5 -13.5t-74 13zM98 375q-31 14 -52 36t-31.5 50t-10.5 57q0 30 10.5 58t31.5 50t52.5 35.5t73.5 13.5
t73.5 -13.5t52.5 -35.5t31.5 -50t10.5 -57q0 -30 -10.5 -58t-31.5 -50t-52.5 -35.5t-73.5 -13.5t-74 13zM523 100q15 -22 45 -22t45 22.5t15 48.5t-15 48.5t-45 22.5t-45 -22.5t-15 -48.5t15 -49zM125 471q15 -23 46 -23q30 0 45 23t15 49t-15 48.5t-45 22.5
q-31 0 -45.5 -22.5t-14.5 -48.5t14 -49zM77 -4l-65 70l655 610l68 -69z" />
    <glyph glyph-name="ampersand" unicode="&#x26;" horiz-adv-x="668" 
d="M494 0l-66 86q-17 -21 -33.5 -39t-37.5 -31t-48 -20t-65 -7q-48 0 -86.5 16.5t-65 43.5t-40.5 63t-14 75q0 60 34.5 119t109.5 101q-20 25 -35.5 53.5t-15.5 64.5q0 33 13.5 59.5t36.5 44.5t55 28t69 10t64.5 -7t48.5 -20t36.5 -30.5t27.5 -39.5l-102 -57
q-13 25 -31.5 41t-43.5 16q-21 0 -35 -11t-14 -30q0 -14 7.5 -28.5t21.5 -31.5l137 -177q28 51 60.5 97t77.5 76l68 -92q-41 -33 -71 -81t-59 -99l148 -193h-152zM251 317q-43 -26 -63.5 -61.5t-20.5 -69.5q0 -18 5.5 -34t16.5 -28.5t27 -20t36 -7.5q34 0 57.5 24t46.5 59z
" />
    <glyph glyph-name="quotesingle" unicode="'" horiz-adv-x="225" 
d="M50 371v296h125v-296h-125z" />
    <glyph glyph-name="parenleft" unicode="(" horiz-adv-x="312" 
d="M282 -57q-115 57 -178.5 157.5t-63.5 240.5q0 139 63.5 240t178.5 158l39 -82q-72 -51 -110.5 -128t-38.5 -188q0 -113 39 -189.5t111 -127.5z" />
    <glyph glyph-name="parenright" unicode=")" horiz-adv-x="312" 
d="M-10 24q72 51 111 127.5t39 189.5q0 111 -38.5 188t-110.5 128l39 82q115 -57 178.5 -158t63.5 -240q0 -140 -63.5 -240.5t-178.5 -157.5z" />
    <glyph glyph-name="asterisk" unicode="*" horiz-adv-x="455" 
d="M80 383l-51 86l109 66l-111 68l57 81l92 -59v100h99v-100l95 59l58 -81l-110 -67l107 -67l-51 -86l-99 61v-105h-99v105z" />
    <glyph glyph-name="plus" unicode="+" horiz-adv-x="540" 
d="M215 77v198h-192v110h192v201h109v-201h192v-110h-192v-198h-109z" />
    <glyph glyph-name="comma" unicode="," horiz-adv-x="233" 
d="M3 -54q23 5 44.5 17t31.5 24q-14 10 -22 28t-8 38q0 30 18 55.5t54 25.5q32 0 53 -23t21 -56q0 -21 -10 -44.5t-31 -45t-54.5 -40.5t-79.5 -31z" />
    <glyph glyph-name="hyphen" unicode="-" horiz-adv-x="330" 
d="M38 201v119h254v-119h-254z" />
    <glyph glyph-name="period" unicode="." horiz-adv-x="222" 
d="M112 -11q-38 0 -56 22.5t-18 49.5q0 28 18 50.5t56 22.5q36 0 54 -22.5t18 -50.5q0 -27 -17.5 -49.5t-54.5 -22.5z" />
    <glyph glyph-name="slash" unicode="/" horiz-adv-x="543" 
d="M0 25l444 741l99 -53l-442 -745z" />
    <glyph glyph-name="zero" unicode="0" horiz-adv-x="540" 
d="M151 17q-48 32 -77 81.5t-42 110.5t-13 121t13 121t42 110.5t77 81t119 31.5q70 0 118.5 -31.5t77.5 -81t42 -110.5t13 -121t-13 -121t-42 -110.5t-77.5 -81t-118.5 -31.5q-71 0 -119 31zM183 168q14 -31 35.5 -49t51.5 -18t51.5 18t35.5 49.5t20.5 73t6.5 89.5
t-6.5 89.5t-20 72t-35.5 48.5t-52 18t-52 -18t-35.5 -48.5t-20 -72t-6.5 -89.5t6.5 -89.5t20.5 -73.5z" />
    <glyph glyph-name="one" unicode="1" horiz-adv-x="540" 
d="M254 0v508l-126 -76l-62 97l220 133h105v-662h-137z" />
    <glyph glyph-name="two" unicode="2" horiz-adv-x="540" 
d="M57 0v78q60 63 121.5 128t111.5 129q26 34 44.5 67.5t18.5 74.5q0 38 -22.5 60t-64.5 22q-37 0 -71.5 -27.5t-60.5 -71.5l-109 59q16 31 39.5 59.5t55 49.5t71.5 33.5t89 12.5q43 0 81.5 -12t67 -36t45.5 -59t17 -81q0 -56 -24.5 -110t-66.5 -105q-35 -43 -75 -83.5
t-72 -74.5h257v-113h-453z" />
    <glyph glyph-name="three" unicode="3" horiz-adv-x="540" 
d="M121 191q32 -53 67.5 -71.5t74.5 -18.5q45 0 75.5 23.5t30.5 64.5q0 46 -38 70.5t-107 25.5v101q66 5 100 31t34 69q0 33 -24.5 52.5t-69.5 19.5q-35 0 -65.5 -19.5t-56.5 -67.5l-107 62q41 75 105.5 108t141.5 33q43 0 81 -12.5t67 -35.5t46 -56.5t17 -75.5
q0 -64 -24 -100.5t-62 -50.5q39 -15 68 -50t29 -98q0 -51 -20 -90t-53 -64.5t-76.5 -38.5t-90.5 -13q-75 0 -140 31t-110 109z" />
    <glyph glyph-name="four" unicode="4" horiz-adv-x="540" 
d="M27 167v99l315 396h108v-380h69v-115h-69v-167h-131v167h-292zM180 282h139v177z" />
    <glyph glyph-name="five" unicode="5" horiz-adv-x="540" 
d="M145 179q27 -43 55 -60t65 -17q41 0 70.5 26t29.5 74q0 30 -9.5 54t-32.5 40.5t-61.5 25.5t-95.5 9h-86v331h387v-112h-268v-113h4q64 0 118 -13t93.5 -41t61.5 -71t22 -104q0 -54 -19.5 -95t-51.5 -68.5t-73.5 -41.5t-86.5 -14q-32 0 -64 6.5t-61.5 21t-56 38.5
t-47.5 59z" />
    <glyph glyph-name="six" unicode="6" horiz-adv-x="540" 
d="M439 572q-78 -17 -139 -60.5t-88 -105.5q19 12 41.5 19t51.5 7q44 0 80 -16.5t61 -45.5t38.5 -69t13.5 -86q0 -45 -14 -85.5t-41.5 -72t-69.5 -50t-97 -18.5q-44 0 -85 14t-72.5 44.5t-50.5 77.5t-19 113q0 70 22.5 141t67.5 132t113 104.5t160 58.5zM228 312
q-22 -7 -35 -15q-3 -11 -5 -32t-2 -35q0 -33 8 -57t21 -39.5t29.5 -23t33.5 -7.5q38 0 61.5 27t23.5 75q0 54 -25 84.5t-64 30.5q-24 0 -46 -8z" />
    <glyph glyph-name="seven" unicode="7" horiz-adv-x="540" 
d="M106 0l243 550h-319v112h477v-80l-260 -582h-141z" />
    <glyph glyph-name="eight" unicode="8" horiz-adv-x="540" 
d="M90 312q16 18 37 30q-40 29 -57.5 67.5t-17.5 74.5q0 37 15.5 71t44 60.5t69 42.5t90.5 16q49 0 89.5 -15.5t69 -41.5t44 -60t15.5 -71q0 -36 -18.5 -76.5t-56.5 -66.5q42 -25 63.5 -69t21.5 -86q0 -38 -15 -74t-44.5 -63.5t-72 -44.5t-97.5 -17t-97.5 16.5t-72 44.5
t-44.5 63.5t-15 73.5q0 21 5.5 43t16.5 43t27 39zM207 420q11 -13 26.5 -21t36.5 -8q20 0 36 8.5t27 21.5t17 29t6 32q0 15 -6 30t-17 27t-27 19.5t-36 7.5t-35.5 -7.5t-26.5 -19.5t-17 -27.5t-6 -30.5q0 -16 5.5 -32t16.5 -29zM198 129q25 -27 73 -27t72 26.5t24 64.5
t-26 66t-72 28q-45 0 -70 -27.5t-25 -64.5q0 -38 24 -66z" />
    <glyph glyph-name="nine" unicode="9" horiz-adv-x="540" 
d="M103 92q78 17 139 63.5t89 109.5q-18 -12 -43.5 -19t-50.5 -7q-47 0 -83 18.5t-60.5 48.5t-37 68.5t-12.5 79.5t14 80.5t41.5 70.5t69 50t97.5 19q43 0 84 -14.5t72.5 -45.5t51 -78.5t19.5 -113.5q0 -74 -22.5 -144.5t-68 -129t-113.5 -101t-159 -58.5zM310 355
q20 5 39 16q3 10 5 27.5t2 31.5q0 34 -8.5 58.5t-21.5 40t-29 23t-32 7.5q-20 0 -36 -9t-27 -23.5t-16.5 -33.5t-5.5 -38q0 -20 6 -38.5t17 -33t27.5 -23.5t37.5 -9q23 0 42 4z" />
    <glyph glyph-name="colon" unicode=":" horiz-adv-x="222" 
d="M112 337q-38 0 -56 22.5t-18 49.5q0 28 18 50.5t56 22.5q36 0 54 -22.5t18 -50.5q0 -27 -17.5 -49.5t-54.5 -22.5zM112 -11q-38 0 -56 22.5t-18 49.5q0 28 18 50.5t56 22.5q36 0 54 -22.5t18 -50.5q0 -27 -17.5 -49.5t-54.5 -22.5z" />
    <glyph glyph-name="semicolon" unicode=";" horiz-adv-x="233" 
d="M3 -54q23 5 44.5 17t31.5 24q-14 10 -22 28t-8 38q0 30 18 55.5t54 25.5q32 0 53 -23t21 -56q0 -21 -10 -44.5t-31 -45t-54.5 -40.5t-79.5 -31zM127 337q-38 0 -56 22.5t-18 49.5q0 28 18 50.5t56 22.5q36 0 54 -22.5t18 -50.5q0 -27 -17.5 -49.5t-54.5 -22.5z" />
    <glyph glyph-name="less" unicode="&#x3c;" horiz-adv-x="540" 
d="M23 291v83l459 155l34 -110l-263 -85l273 -94l-35 -112z" />
    <glyph glyph-name="equal" unicode="=" horiz-adv-x="540" 
d="M23 370v110h493v-110h-493zM23 155v110h493v-110h-493z" />
    <glyph glyph-name="greater" unicode="&#x3e;" horiz-adv-x="540" 
d="M49 128l-35 112l273 94l-263 85l34 110l459 -155v-83z" />
    <glyph glyph-name="question" unicode="?" horiz-adv-x="422" 
d="M137 211v42q0 20 6.5 39t16.5 35.5t21.5 30.5t21.5 24q14 15 28.5 28t26 27t19 29t7.5 34q0 35 -21 54t-60 19q-29 0 -58 -16.5t-61 -64.5l-96 64q35 55 89.5 90t133.5 35q100 0 152.5 -50t52.5 -135q0 -25 -7.5 -46t-19.5 -40t-27 -35.5t-30 -31.5q-26 -28 -47 -53.5
t-21 -54.5v-24h-127zM167 -4q-14 6 -25 17.5t-17 26t-6 30.5t6 30.5t17 25.5t25.5 18t32.5 7q36 0 59 -24.5t23 -56.5t-23 -56.5t-59 -24.5q-18 0 -33 7z" />
    <glyph glyph-name="at" unicode="@" horiz-adv-x="813" 
d="M178 -65q-27 29 -50 65.5t-40 77.5t-26.5 85.5t-9.5 89.5q0 113 34.5 194t90 133t125 76.5t138.5 24.5q55 0 106.5 -12t91.5 -39t64 -71t24 -107v-439q0 -23 12 -36.5t35 -13.5q17 0 34 6.5t27 14.5l36 -96q-26 -14 -55.5 -23.5t-62.5 -9.5q-32 0 -60 8.5t-49 26.5
t-33 45t-12 64v21q-50 -20 -97 -20q-50 0 -88 20t-63.5 52.5t-38.5 74t-13 83.5q0 52 16 93t44 69t65.5 42.5t79.5 14.5q23 0 46 -4t49 -14v25q0 35 -14.5 57t-37 35t-51 17.5t-56.5 4.5q-44 0 -89.5 -18t-82.5 -56t-60.5 -99t-23.5 -146q0 -66 27.5 -131t69.5 -116z
M597 323q-17 8 -35 12.5t-41 4.5q-39 0 -65.5 -27t-26.5 -85q0 -59 27 -90.5t65 -31.5q22 0 41 5.5t35 14.5v197z" />
    <glyph glyph-name="A" unicode="A" horiz-adv-x="648" 
d="M0 0l274 667h95l278 -667h-145l-54 134h-257l-55 -134h-136zM232 247h172l-86 219z" />
    <glyph glyph-name="B" unicode="B" horiz-adv-x="598" 
d="M77 0v667h238q48 0 88.5 -12t69.5 -35.5t45.5 -57t16.5 -75.5q0 -45 -21.5 -78t-59.5 -56q54 -19 86.5 -60.5t32.5 -104.5q0 -53 -30 -101t-91 -71q-23 -8 -49.5 -12t-51.5 -4h-274zM210 394h66q23 0 44 2t30 7q26 12 37.5 30.5t11.5 38.5q0 24 -15.5 44.5t-46.5 30.5
q-5 1 -13.5 2.5t-19 2l-21 1t-18.5 0.5h-55v-159zM210 114h96q35 0 55 3t33 10q22 12 32 29.5t10 36.5q0 22 -12.5 43t-37.5 34q-16 8 -36.5 11.5t-45.5 3.5h-94v-171z" />
    <glyph glyph-name="C" unicode="C" horiz-adv-x="608" 
d="M584 133q-45 -80 -102 -113.5t-139 -33.5q-66 0 -121 23t-94.5 67.5t-61 108.5t-21.5 146q0 90 24.5 155.5t65 109t94 64.5t110.5 21q46 0 83 -10.5t66.5 -30.5t52 -49t39.5 -66l-109 -61q-20 43 -49.5 71t-79.5 28q-31 0 -60 -14t-51 -43t-35.5 -72.5t-13.5 -102.5
q0 -52 13 -94t35.5 -71t52.5 -45t65 -16q19 0 36.5 4t33.5 14.5t31 28t30 45.5z" />
    <glyph glyph-name="D" unicode="D" horiz-adv-x="661" 
d="M77 0v667h198q38 0 84 -6t88 -24q43 -20 75.5 -51.5t53.5 -71t31.5 -85t10.5 -92.5t-10.5 -92.5t-32 -86t-54 -72.5t-75.5 -52q-73 -34 -166 -34h-203zM212 120h54q73 0 121 25t71 76.5t23 109.5q0 57 -21 107.5t-65 78.5q-23 15 -57 22.5t-69 7.5h-57v-427z" />
    <glyph glyph-name="E" unicode="E" horiz-adv-x="586" 
d="M77 0v667h458v-121h-323v-152h267v-121h-267v-152h346v-121h-481z" />
    <glyph glyph-name="F" unicode="F" horiz-adv-x="536" 
d="M77 0v667h454v-121h-319v-158h254v-119h-254v-269h-135z" />
    <glyph glyph-name="G" unicode="G" horiz-adv-x="627" 
d="M352 236v115h235v-321q-41 -18 -98 -31t-145 -13q-64 0 -119 23t-95 67.5t-62.5 108.5t-22.5 146q0 90 24 155.5t64.5 109t93.5 64.5t112 21q90 0 146.5 -36t91.5 -110l-109 -61q-20 42 -50.5 65.5t-75.5 23.5q-30 0 -59 -14t-51.5 -43t-36 -72.5t-13.5 -102.5
q0 -52 14 -93.5t38 -71t56 -45.5t69 -16q32 0 58.5 3t43.5 8v120h-109z" />
    <glyph glyph-name="H" unicode="H" horiz-adv-x="689" 
d="M77 0v667h135v-264h265v264h135v-667h-135v282h-265v-282h-135z" />
    <glyph glyph-name="I" unicode="I" horiz-adv-x="289" 
d="M77 0v667h135v-667h-135z" />
    <glyph glyph-name="J" unicode="J" horiz-adv-x="297" 
d="M-43 -29q70 14 99 43t29 75v578h135v-600q0 -47 -17 -82.5t-48.5 -61t-75 -41.5t-97.5 -25z" />
    <glyph glyph-name="K" unicode="K" horiz-adv-x="639" 
d="M77 0v667h135v-255l256 255h160l-262 -260l275 -407h-152l-215 316l-62 -62v-254h-135z" />
    <glyph glyph-name="L" unicode="L" horiz-adv-x="553" 
d="M77 0v667h135v-546h336v-121h-471z" />
    <glyph glyph-name="M" unicode="M" horiz-adv-x="806" 
d="M77 0v667h138l197 -444l178 444h139v-667h-133v373l-161 -377h-48l-177 381v-377h-133z" />
    <glyph glyph-name="N" unicode="N" horiz-adv-x="695" 
d="M77 0v667h138l270 -416v416h133v-667h-118l-290 441v-441h-133z" />
    <glyph glyph-name="O" unicode="O" horiz-adv-x="707" 
d="M217 16q-58 31 -96 80t-57 111.5t-19 126.5t19 126.5t57 111.5t96 79t135 30q78 0 136 -30t97 -79t58 -111.5t19 -126.5t-19 -126.5t-58 -111.5t-97 -79.5t-136 -30.5q-77 0 -135 30zM225 175q22 -32 53.5 -51t73.5 -19t74.5 19t54.5 51t33 73.5t11 85.5t-11 85.5
t-33 73.5t-54.5 51t-74.5 19t-73.5 -19t-53.5 -51t-33 -73.5t-11 -85.5t11 -85.5t33 -73.5z" />
    <glyph glyph-name="P" unicode="P" horiz-adv-x="592" 
d="M77 0v667h210q51 0 94.5 -6.5t82.5 -25.5q51 -24 75 -71.5t24 -101.5q0 -30 -8 -60.5t-23 -56.5t-37 -47t-50 -33q-35 -14 -71 -19.5t-73 -5.5h-92v-240h-132zM209 355h75q29 0 52.5 3t40.5 11q29 13 41 36t12 49q0 28 -13.5 52t-42.5 34q-17 6 -36 9t-49 3h-80v-197z
" />
    <glyph glyph-name="Q" unicode="Q" horiz-adv-x="707" 
d="M554 -144q-124 4 -189 39.5t-89 100.5q-58 14 -101.5 47.5t-72 79.5t-43 100.5t-14.5 110.5q0 64 19 126.5t57 111.5t96 79t135 30q78 0 136 -30t97 -79t58 -111.5t19 -126.5q0 -54 -14 -106.5t-41.5 -98t-68.5 -80t-95 -50.5q11 -21 43 -28.5t84 -7.5zM225 175
q22 -32 53.5 -51t73.5 -19t74.5 19t54.5 51t33 73.5t11 85.5t-11 85.5t-33 73.5t-54.5 51t-74.5 19t-73.5 -19t-53.5 -51t-33 -73.5t-11 -85.5t11 -85.5t33 -73.5z" />
    <glyph glyph-name="R" unicode="R" horiz-adv-x="623" 
d="M77 0v667h271q42 0 84 -9t75.5 -31.5t55 -60.5t21.5 -97q0 -36 -9 -69t-27.5 -60.5t-48 -48.5t-70.5 -33l171 -258h-153l-165 250h-73v-250h-132zM209 365h103q73 0 106 23t33 68q0 48 -31 71.5t-108 23.5h-103v-186z" />
    <glyph glyph-name="S" unicode="S" horiz-adv-x="556" 
d="M129 177q23 -38 62 -57.5t88 -19.5q51 0 81.5 20t30.5 53q0 21 -7 37t-24 30t-47 27.5t-76 29.5q-43 15 -77.5 32t-59 40t-37.5 53.5t-13 72.5q0 41 14.5 75t44 59t73.5 38.5t103 13.5q49 0 86.5 -9.5t65 -25.5t47.5 -37t35 -44l-97 -69q-21 32 -53 53t-85 21
q-51 0 -77.5 -18t-26.5 -47q0 -35 34 -57.5t102 -47.5q51 -18 89.5 -38t64.5 -45.5t39.5 -58.5t13.5 -78q0 -49 -20.5 -85.5t-54 -60.5t-77.5 -36t-90 -12q-182 0 -255 123z" />
    <glyph glyph-name="T" unicode="T" horiz-adv-x="543" 
d="M204 0v546h-199v121h533v-121h-198v-546h-136z" />
    <glyph glyph-name="U" unicode="U" horiz-adv-x="687" 
d="M208 242q0 -60 35 -98.5t101 -38.5t100.5 38.5t34.5 98.5v425h135v-438q0 -57 -21 -102t-58 -76.5t-86 -48t-106 -16.5q-56 0 -105.5 16.5t-86 48t-57.5 76.5t-21 102v438h135v-425z" />
    <glyph glyph-name="V" unicode="V" horiz-adv-x="634" 
d="M295 0l-295 667h144l191 -458l166 458h133l-256 -667h-83z" />
    <glyph glyph-name="W" unicode="W" horiz-adv-x="778" 
d="M152 0l-152 667h135l82 -396l130 396h83l130 -396l84 396h134l-153 -667h-85l-152 447l-151 -447h-85z" />
    <glyph glyph-name="X" unicode="X" horiz-adv-x="579" 
d="M0 0l217 347l-202 320h152l122 -203l122 203h152l-201 -320l217 -347h-151l-139 230l-138 -230h-151z" />
    <glyph glyph-name="Y" unicode="Y" horiz-adv-x="581" 
d="M225 0v268l-225 399h150l145 -265l138 265h148l-221 -399v-268h-135z" />
    <glyph glyph-name="Z" unicode="Z" horiz-adv-x="574" 
d="M34 0v110l340 436h-312v121h477v-114l-337 -432h343v-121h-511z" />
    <glyph glyph-name="bracketleft" unicode="[" horiz-adv-x="300" 
d="M66 -143v879h234v-110h-109v-659h109v-110h-234z" />
    <glyph glyph-name="backslash" unicode="\" horiz-adv-x="543" 
d="M442 -32l-442 745l99 53l444 -741z" />
    <glyph glyph-name="bracketright" unicode="]" horiz-adv-x="300" 
d="M0 -143v110h110v659h-110v110h234v-879h-234z" />
    <glyph glyph-name="asciicircum" unicode="^" horiz-adv-x="552" 
d="M61 322l165 345h97l169 -330l-117 -45l-100 213l-93 -222z" />
    <glyph glyph-name="underscore" unicode="_" horiz-adv-x="560" 
d="M0 -240v90h560v-90h-560z" />
    <glyph glyph-name="grave" unicode="`" horiz-adv-x="442" 
d="M89 650l63 83l201 -141l-35 -54z" />
    <glyph glyph-name="a" unicode="a" horiz-adv-x="514" 
d="M332 0l-6 36q-21 -22 -53.5 -34.5t-71.5 -12.5q-32 0 -62.5 10.5t-53.5 30t-37 48t-14 64.5t15 63.5t40 46.5t57.5 31t68.5 18q25 5 55 7.5t50 4.5v16q0 29 -20 47t-47 18q-17 0 -43 -9t-50 -34l-89 62q19 24 43.5 40t50 25t50.5 12.5t46 3.5q42 0 77 -10.5t60.5 -33
t39.5 -57t14 -83.5v-310h-120zM321 225q-20 -1 -42.5 -3.5t-42.5 -6.5q-42 -8 -58.5 -27.5t-16.5 -42.5q0 -24 18 -38.5t53 -14.5q25 0 48.5 10t40.5 25v98z" />
    <glyph glyph-name="b" unicode="b" horiz-adv-x="553" 
d="M196 483q21 5 40 8t45 3q60 0 104.5 -21t74 -55.5t44 -78t14.5 -89.5q0 -70 -21 -119.5t-57 -81t-83.5 -46t-100.5 -14.5q-49 0 -97 11t-94 30v637h131v-184zM196 103l28 -6t27 -3q62 0 101 39t39 114q0 36 -10 62.5t-28 44t-42 26.5t-51 9q-29 0 -64 -11v-275z" />
    <glyph glyph-name="c" unicode="c" horiz-adv-x="487" 
d="M476 116q-31 -65 -83.5 -96t-122.5 -31q-46 0 -88.5 16t-75 47.5t-52 78t-19.5 108.5q0 64 19 112t50.5 80t72.5 47.5t85 15.5t78.5 -12.5t60 -32.5t42 -45t25.5 -50l-103 -51q-17 48 -42.5 67.5t-57.5 19.5q-20 0 -38 -9t-32.5 -27t-23 -46t-8.5 -67q0 -69 30.5 -107
t79.5 -38q38 0 62 19t43 54z" />
    <glyph glyph-name="d" unicode="d" horiz-adv-x="557" 
d="M373 0l-6 37q-18 -19 -47 -33.5t-69 -14.5q-52 0 -92.5 21t-68 56t-41.5 81t-14 96q0 47 15 92t45 80.5t75 57t106 21.5q41 0 86 -14v187h130v-667h-119zM362 375q-37 14 -70 14t-57.5 -12t-40.5 -32.5t-24 -46t-8 -52.5q0 -30 7 -57.5t21 -48t35.5 -33t51.5 -12.5
q24 0 49 12.5t36 29.5v238z" />
    <glyph glyph-name="e" unicode="e" horiz-adv-x="525" 
d="M166 210q5 -61 37.5 -88t72.5 -27q35 0 63 12.5t58 54.5l97 -59q-41 -63 -95 -88.5t-127 -25.5q-48 0 -91 15t-75.5 46.5t-51.5 78.5t-19 112q0 61 18.5 108t50.5 79t74.5 49t90.5 17q101 0 162.5 -70.5t63.5 -213.5h-329zM362 299q-4 48 -32.5 72t-60.5 24
q-17 0 -33.5 -6.5t-30.5 -19t-23.5 -30.5t-12.5 -40h193z" />
    <glyph glyph-name="f" unicode="f" horiz-adv-x="335" 
d="M83 0v382h-67v100h67v17q0 48 13 82t35.5 56.5t53 33t66.5 10.5q48 0 83.5 -7.5t64.5 -21.5l-38 -100q-40 20 -89 20q-25 0 -42 -16.5t-17 -57.5v-16h109v-100h-108v-382h-131z" />
    <glyph glyph-name="g" unicode="g" horiz-adv-x="533" 
d="M445 421q19 -21 29.5 -49t10.5 -57q0 -45 -18.5 -78.5t-49.5 -55.5t-71 -33t-82 -11q-19 0 -37.5 2.5t-31.5 5.5q-5 -3 -10 -10t-5 -13q0 -7 5 -12t19.5 -9t40.5 -7t69 -4q52 -2 92 -9.5t66.5 -24t40 -43t13.5 -65.5q0 -43 -21 -71.5t-55 -46t-78.5 -24.5t-90.5 -7
t-90.5 7t-79.5 23.5t-56.5 44t-21.5 69.5q0 35 15 56.5t41 35.5q-14 11 -24.5 29t-10.5 40q0 26 15 46.5t40 34.5q-29 23 -46.5 56.5t-17.5 73.5q0 45 18.5 78.5t49 56t70 33.5t81.5 11q29 0 52 -5t49 -15l77 81l73 -60zM169 314q0 -39 26.5 -59.5t68.5 -20.5t69.5 20.5
t27.5 58.5t-27.5 61t-69.5 23t-68.5 -22.5t-26.5 -60.5zM217 -6q-21 2 -41 5q-9 -6 -18 -17.5t-9 -27.5q0 -62 135 -62q60 0 94 12t34 35q0 13 -5 22t-21.5 15t-46.5 9.5t-81 4.5q-20 1 -41 4z" />
    <glyph glyph-name="h" unicode="h" horiz-adv-x="577" 
d="M65 0v667h131v-217q24 18 57.5 31t80.5 13q49 0 83 -15t56 -42t32 -65.5t10 -85.5v-286h-131v277q0 60 -24.5 86.5t-56.5 26.5t-61 -16.5t-46 -30.5v-343h-131z" />
    <glyph glyph-name="i" unicode="i" horiz-adv-x="260" 
d="M130 537q-39 0 -58.5 22t-19.5 49q0 26 19.5 48t58.5 22t58.5 -22t19.5 -48q0 -27 -19.5 -49t-58.5 -22zM65 0v482h130v-482h-130z" />
    <glyph glyph-name="j" unicode="j" horiz-adv-x="270" 
d="M141 537q-39 0 -58.5 22t-19.5 49q0 26 19.5 48t58.5 22q38 0 57.5 -22t19.5 -48q0 -27 -19.5 -49t-57.5 -22zM-8 -116q25 17 41.5 31.5t25.5 30t12.5 33t3.5 40.5v463h130v-463q0 -39 -8.5 -70.5t-26 -57.5t-44 -47t-62.5 -40z" />
    <glyph glyph-name="k" unicode="k" horiz-adv-x="522" 
d="M65 0v667h131v-321l151 136h157l-166 -149l190 -333h-147l-138 249l-47 -44v-205h-131z" />
    <glyph glyph-name="l" unicode="l" horiz-adv-x="261" 
d="M65 0v667h131v-667h-131z" />
    <glyph glyph-name="m" unicode="m" horiz-adv-x="881" 
d="M65 0v482h120l5 -36q23 20 57.5 34t69.5 14t71 -10.5t66 -36.5q35 20 76 33.5t89 13.5q57 0 95 -14t61.5 -40t33.5 -64t10 -87v-289h-130v283q0 48 -19 77.5t-70 29.5q-15 0 -30 -4.5t-28.5 -10.5t-24.5 -12.5t-17 -11.5q2 -12 4 -27t2 -33v-291h-130v283q0 22 -4 41.5
t-13 34t-24.5 23t-38.5 8.5q-29 0 -56 -15t-44 -32v-343h-131z" />
    <glyph glyph-name="n" unicode="n" horiz-adv-x="581" 
d="M65 0v482h119l6 -38q30 24 69 37t78 13q40 0 73.5 -11.5t57.5 -36.5t37.5 -65t13.5 -96v-285h-131v275q0 55 -24 85t-67 30q-30 0 -56 -15t-45 -33v-342h-131z" />
    <glyph glyph-name="o" unicode="o" horiz-adv-x="556" 
d="M171 11q-45 22 -75.5 58t-45.5 81.5t-15 92.5t15 92t45.5 80.5t76 57t106.5 21.5t106.5 -21.5t76 -57t45.5 -80.5t15 -92t-15 -92.5t-45.5 -81.5t-76 -58t-106.5 -22t-107 22zM192 139q14 -20 35.5 -31.5t50.5 -11.5q28 0 49.5 11.5t36 31.5t22 46.5t7.5 57.5
q0 30 -7.5 57t-22 46.5t-36 31t-49.5 11.5t-49.5 -11.5t-36 -31t-22 -46.5t-7.5 -57q0 -31 7.5 -57.5t21.5 -46.5z" />
    <glyph glyph-name="p" unicode="p" horiz-adv-x="554" 
d="M65 -189v671h119l6 -36q18 17 48 32.5t71 15.5q52 0 91.5 -21t65.5 -55.5t39.5 -80.5t13.5 -95q0 -47 -15 -92.5t-46.5 -81t-80 -57.5t-114.5 -22q-34 0 -67 14v-192h-131zM195 111q31 -14 61 -14q35 0 60.5 12t42.5 32.5t25 46t8 52.5q0 28 -7 55t-20.5 48t-34 34
t-48.5 13q-27 0 -51 -14.5t-36 -31.5v-233z" />
    <glyph glyph-name="q" unicode="q" horiz-adv-x="554" 
d="M358 -189v187q-20 -5 -37 -7t-35 -2q-62 0 -108.5 20.5t-78.5 55t-48 80.5t-16 97q0 49 16 94.5t49.5 80.5t84.5 56t122 21q39 0 85 -4.5t97 -11.5v-667h-131zM358 386q-14 2 -24.5 3t-25.5 1q-38 0 -65.5 -12.5t-45.5 -33t-26.5 -47.5t-8.5 -55q0 -31 9 -57.5t27 -46
t45 -31t62 -11.5q20 0 31 4t22 9v277z" />
    <glyph glyph-name="r" unicode="r" horiz-adv-x="371" 
d="M65 0v482h119l6 -42q27 29 54.5 40.5t57.5 11.5q17 0 36 -4t39 -11l-23 -113q-20 8 -37.5 12.5t-34.5 4.5q-28 0 -50.5 -13t-35.5 -30v-338h-131z" />
    <glyph glyph-name="s" unicode="s" horiz-adv-x="485" 
d="M126 162q17 -32 47.5 -53.5t76.5 -21.5q40 0 62.5 12.5t22.5 34.5q0 21 -24 37t-89 28q-38 7 -69.5 18.5t-53.5 29.5t-34 43t-12 60q0 64 53.5 104t144.5 40q82 0 130 -26.5t74 -64.5l-92 -63q-18 24 -46 40t-66 16q-42 0 -58 -12.5t-16 -32.5q0 -23 20 -33t74 -21
q44 -9 78.5 -21t58.5 -30.5t36.5 -44.5t12.5 -61q0 -39 -16 -67.5t-44 -47t-66 -27.5t-81 -9q-86 0 -139.5 32.5t-81.5 81.5z" />
    <glyph glyph-name="t" unicode="t" horiz-adv-x="368" 
d="M216 136q0 -23 10.5 -31.5t20.5 -8.5q20 0 39 10t33 21l47 -89q-33 -22 -69.5 -35.5t-77.5 -13.5q-25 0 -49 7t-42.5 22t-30 39.5t-11.5 59.5v265h-71v100h71v125h130v-125h117v-100h-117v-246z" />
    <glyph glyph-name="u" unicode="u" horiz-adv-x="579" 
d="M394 0l-5 38q-35 -28 -72 -38t-73 -10q-88 0 -135 51t-47 154v287h131v-274q0 -50 19 -81t65 -31q38 0 64 14.5t42 27.5v344h131v-482h-120z" />
    <glyph glyph-name="v" unicode="v" horiz-adv-x="533" 
d="M213 0l-213 482h139l133 -320l128 320h133l-207 -482h-113z" />
    <glyph glyph-name="w" unicode="w" horiz-adv-x="717" 
d="M172 0l-172 482h136l87 -290l95 290h80l96 -290l87 290h136l-172 -482h-95l-92 279l-91 -279h-95z" />
    <glyph glyph-name="x" unicode="x" horiz-adv-x="511" 
d="M3 0l181 238l-184 244h147l111 -149l111 149h134l-176 -235l184 -247h-147l-112 152l-113 -152h-136z" />
    <glyph glyph-name="y" unicode="y" horiz-adv-x="517" 
d="M48 -81q19 -9 37.5 -13t31.5 -4q12 0 24 7t22 28l37 83l-200 462h139l126 -329l120 329h132l-250 -596q-11 -25 -26 -42t-33 -27t-38.5 -14t-40.5 -4q-26 0 -57.5 6.5t-64.5 20.5z" />
    <glyph glyph-name="z" unicode="z" horiz-adv-x="508" 
d="M36 0v89l276 293h-265v100h415v-94l-272 -289h280v-99h-434z" />
    <glyph glyph-name="braceleft" unicode="{" horiz-adv-x="293" 
d="M282 -62q-92 1 -136 37.5t-44 112.5v128q0 37 -20 56t-65 25v74q45 6 65 25t20 56v129q0 76 44 112t136 38l11 -87q-25 -1 -39 -7.5t-21.5 -18t-9.5 -26.5t-2 -32v-108q0 -90 -71 -118q37 -17 54 -44.5t17 -73.5v-110q0 -17 2 -31.5t9.5 -25.5t22 -17.5t38.5 -7.5z" />
    <glyph glyph-name="bar" unicode="|" horiz-adv-x="275" 
d="M74 -74v812h125v-812h-125z" />
    <glyph glyph-name="braceright" unicode="}" horiz-adv-x="293" 
d="M0 24q24 1 38.5 7.5t22 17t9.5 25.5t2 32v110q0 46 17 73.5t54 44.5q-71 28 -71 118v108q0 17 -2 32t-9.5 26.5t-21.5 18t-39 7.5l11 87q92 -2 136.5 -38t44.5 -112v-129q0 -37 20 -56t65 -25v-74q-45 -6 -65 -25t-20 -56v-128q0 -149 -181 -150z" />
    <glyph glyph-name="asciitilde" unicode="~" horiz-adv-x="474" 
d="M-2 506q11 71 49 107.5t99 36.5q33 0 57 -8.5t42 -18.5t33 -18.5t31 -8.5q17 0 32 10t20 46h115q-3 -40 -15.5 -68.5t-32 -46.5t-43.5 -26t-51 -8q-33 0 -56.5 8.5t-42 19t-35 19t-36.5 8.5t-33 -11.5t-18 -40.5h-115z" />
    <glyph glyph-name="uni00A0" unicode="&#xa0;" horiz-adv-x="200" 
 />
    <glyph glyph-name="exclamdown" unicode="&#xa1;" horiz-adv-x="241" 
d="M121 332q-36 0 -59 24.5t-23 56.5t23 56.5t59 24.5q18 0 32.5 -7t25.5 -18t17 -25.5t6 -30.5t-6 -30.5t-17 -26t-25.5 -18t-32.5 -6.5zM56 -185v457h132v-457h-132z" />
    <glyph glyph-name="cent" unicode="&#xa2;" horiz-adv-x="540" 
d="M251 -11v147q-42 7 -73.5 26t-52.5 46t-31.5 58.5t-10.5 64.5q0 34 10 67t31 60t52.5 45.5t74.5 24.5v139h84v-138q35 -2 68.5 -17t54.5 -32l-53 -89q-25 17 -50 29t-55 12q-26 0 -44 -9t-29 -23.5t-16 -32.5t-5 -37q0 -17 5.5 -34t17.5 -31t30.5 -23t44.5 -10q11 0 21 1
t22 4.5t26 9.5t33 15l42 -89q-33 -19 -60.5 -27.5t-52.5 -11.5v-145h-84z" />
    <glyph glyph-name="sterling" unicode="&#xa3;" horiz-adv-x="540" 
d="M104 0v246h-70v109h70v104q0 52 16.5 92t44.5 67.5t65.5 41.5t79.5 14q67 0 120 -32t80 -100l-117 -55q-20 43 -41 56t-42 13q-13 0 -26.5 -5t-25 -17t-19 -32t-7.5 -49v-98h199v-109h-199v-125h273v-121h-401z" />
    <glyph glyph-name="currency" unicode="&#xa4;" horiz-adv-x="738" 
d="M0 97l160 152q-31 56 -31 119q0 62 28 114l-157 148l90 81l148 -141q29 17 62 25t67 8q35 0 68.5 -8t63.5 -26l149 142l90 -81l-158 -148q14 -26 20 -54t6 -57q0 -32 -7.5 -62.5t-23.5 -57.5l163 -154l-86 -83l-161 152q-29 -16 -61 -23t-65 -7q-31 0 -61.5 7t-58.5 22
l-159 -151zM281 281q16 -17 37.5 -26.5t48.5 -9.5t49 9.5t38 26.5t24.5 39.5t8.5 48.5t-8.5 49t-24.5 40t-38 26.5t-49 9.5q-54 0 -86.5 -36t-32.5 -89q0 -26 8.5 -48.5t24.5 -39.5z" />
    <glyph glyph-name="yen" unicode="&#xa5;" horiz-adv-x="540" 
d="M205 0v237h-156v108h113l-181 317h150l145 -262l137 262h146l-178 -317h113v-108h-154v-237h-135z" />
    <glyph glyph-name="brokenbar" unicode="&#xa6;" horiz-adv-x="275" 
d="M74 429v309h125v-309h-125zM74 -74v308h125v-308h-125z" />
    <glyph glyph-name="section" unicode="&#xa7;" horiz-adv-x="485" 
d="M121 15q48 -55 104 -55q31 0 45.5 14t14.5 31q0 16 -10 29.5t-26 26.5t-36 25.5t-40 26.5q-21 15 -41.5 31.5t-36.5 37t-26 45.5t-10 57q0 46 30.5 80t73.5 51q-32 28 -50 58.5t-18 70.5q0 64 46.5 100t121.5 36q51 0 91.5 -17t77.5 -58l-80 -72q-18 18 -40.5 30.5
t-47.5 12.5q-19 0 -32 -10t-13 -25q0 -18 9.5 -32t25.5 -27t35.5 -26.5t39.5 -29.5q19 -16 37.5 -34t33 -39t23 -46.5t8.5 -55.5q0 -44 -25.5 -74.5t-60.5 -47.5q29 -23 48.5 -52.5t19.5 -74.5q0 -36 -16 -63t-41.5 -45.5t-58.5 -28t-66 -9.5q-58 0 -103.5 21t-81.5 60z
M204 238q22 -22 69 -52q21 10 29.5 28.5t8.5 35.5q0 21 -18.5 46t-61.5 57q-26 -11 -37 -31.5t-11 -37.5q0 -24 21 -46z" />
    <glyph glyph-name="dieresis" unicode="&#xa8;" horiz-adv-x="442" 
d="M315 560q-28 0 -46.5 21.5t-18.5 49.5q0 29 18.5 50t46.5 21q29 0 47 -21t18 -50q0 -28 -18 -49.5t-47 -21.5zM127 560q-29 0 -47 21.5t-18 49.5q0 29 18 50t47 21q28 0 46.5 -21t18.5 -50q0 -28 -18.5 -49.5t-46.5 -21.5z" />
    <glyph glyph-name="copyright" unicode="&#xa9;" horiz-adv-x="775" 
d="M238 -45q-64 32 -107.5 84.5t-65 120t-21.5 137.5t21.5 136.5t65 119t107.5 84.5t150 32q85 0 149.5 -32t107.5 -84.5t64.5 -119t21.5 -136.5t-21.5 -137.5t-64.5 -120t-107.5 -84.5t-149.5 -32q-86 0 -150 32zM195 93q33 -41 81.5 -65.5t111.5 -24.5t111.5 24.5t81 65.5
t49 94t16.5 110q0 56 -16.5 109t-49 94t-81 65.5t-111.5 24.5q-64 0 -112.5 -24.5t-81 -65.5t-49 -94t-16.5 -109q0 -57 16.5 -110t49.5 -94zM565 167q-33 -54 -75 -77t-94 -23q-45 0 -82.5 15.5t-64.5 45t-41.5 71.5t-14.5 96q0 58 16.5 101.5t44 72t63.5 42.5t75 14
q63 0 103.5 -26.5t65.5 -79.5l-80 -43q-17 31 -36.5 47t-50.5 16q-19 0 -37 -8.5t-31.5 -26.5t-22 -45t-8.5 -64q0 -66 30.5 -103.5t73.5 -37.5q23 0 45 12t43 47z" />
    <glyph glyph-name="ordfeminine" unicode="&#xaa;" horiz-adv-x="371" 
d="M251 302l-4 26q-41 -33 -92 -33q-24 0 -46.5 7.5t-40 22t-28 35t-10.5 47.5q0 39 22.5 63t54.5 37t68.5 18t65.5 7v10q0 20 -14 33t-34 13q-13 0 -32 -6.5t-36 -25.5l-68 47q15 19 33 30.5t37 18.5t37.5 9.5t34.5 2.5q62 0 102 -32t40 -105v-225h-90zM242 462
q-14 -2 -29.5 -4t-29.5 -5q-30 -6 -43 -19t-13 -26q0 -14 13 -25t38 -11q20 0 36 9.5t28 20.5v60z" />
    <glyph glyph-name="guillemotleft" unicode="&#xab;" horiz-adv-x="574" 
d="M246 250l207 212l86 -68l-143 -138l157 -135l-80 -76zM12 250l207 212l86 -68l-143 -138l157 -135l-80 -76z" />
    <glyph glyph-name="logicalnot" unicode="&#xac;" horiz-adv-x="540" 
d="M21 406v109h493v-369h-114v260h-379z" />
    <glyph glyph-name="uni00AD" unicode="&#xad;" horiz-adv-x="330" 
d="M38 201v119h254v-119h-254z" />
    <glyph glyph-name="registered" unicode="&#xae;" horiz-adv-x="776" 
d="M238 -45q-64 32 -107 84.5t-64.5 120t-21.5 137.5t21.5 136.5t65 119t107.5 84.5t150 32q85 0 149 -32t107 -84.5t64.5 -119t21.5 -136.5t-21.5 -137.5t-64.5 -120t-107.5 -84.5t-149.5 -32t-150 32zM195 93q33 -41 81.5 -65.5t112.5 -24.5q63 0 111 24.5t81 65.5
t49.5 94t16.5 110q0 56 -16.5 109t-49 94t-81 65.5t-111.5 24.5q-64 0 -112.5 -24.5t-81.5 -65.5t-49.5 -94t-16.5 -109q0 -57 16.5 -110t49.5 -94zM245 102v406h152q81 0 120 -32.5t39 -95.5q0 -50 -23 -79t-58 -41l85 -158h-99l-77 147h-46v-147h-93zM338 334h52
q38 0 54 10t16 39q0 24 -14.5 32t-51.5 8h-56v-89z" />
    <glyph glyph-name="macron" unicode="&#xaf;" horiz-adv-x="442" 
d="M40 578v89h363v-89h-363z" />
    <glyph glyph-name="degree" unicode="&#xb0;" horiz-adv-x="396" 
d="M91 407q-23 19 -37 47t-14 64t14 64t36.5 46.5t51 28.5t56.5 10t56.5 -10t51 -29t36.5 -47t14 -64t-14 -64t-36.5 -46.5t-50.5 -28.5t-56 -10q-29 0 -57 10t-51 29zM144 517q0 -31 17 -46.5t37 -15.5t37 15.5t17 46.5q0 32 -17 47.5t-37 15.5t-37 -15.5t-17 -47.5z" />
    <glyph glyph-name="plusminus" unicode="&#xb1;" horiz-adv-x="540" 
d="M216 158v198h-192v110h192v201h109v-201h192v-110h-192v-198h-109zM24 0v110h493v-110h-493z" />
    <glyph glyph-name="twosuperior" unicode="&#xb2;" horiz-adv-x="315" 
d="M39 337v57q35 32 63 57t55 55q14 15 21.5 28t7.5 27t-7.5 22.5t-21.5 8.5q-12 0 -27 -10.5t-32 -45.5l-78 40q53 97 154 97q48 0 81.5 -25t33.5 -76q0 -29 -12 -53.5t-32 -45.5q-15 -17 -28.5 -29t-29.5 -24h110v-83h-258z" />
    <glyph glyph-name="threesuperior" unicode="&#xb3;" horiz-adv-x="315" 
d="M94 453q17 -26 34 -34.5t32 -8.5q20 0 29.5 9t9.5 23q0 4 -1.5 9.5t-7.5 10.5t-17.5 8.5t-32.5 3.5v65q20 1 31 5t16 8.5t6 9.5t1 8q0 11 -8 18t-25 7q-14 0 -29 -8t-32 -35l-77 41q29 45 67.5 62.5t82.5 17.5q22 0 43.5 -5.5t38.5 -17t27 -28.5t10 -40q0 -28 -11 -44.5
t-27 -26.5q15 -8 29.5 -26t14.5 -46q0 -29 -12 -49t-31 -33t-43 -19t-49 -6q-40 0 -78 16.5t-69 63.5z" />
    <glyph glyph-name="acute" unicode="&#xb4;" horiz-adv-x="442" 
d="M125 538l-36 54l201 141l63 -83z" />
    <glyph glyph-name="mu" unicode="&#xb5;" horiz-adv-x="609" 
d="M70 -189v671h131v-293q0 -41 21.5 -69.5t68.5 -28.5q33 0 59 14.5t37 41.5q3 7 4.5 17.5t2.5 21t1 19.5v15v258h130v-345q0 -26 7 -36t21 -10q7 0 14.5 1.5l17.5 3.5l14 -88q-13 -5 -36.5 -10t-42.5 -5q-75 0 -93 65q-24 -33 -58.5 -49t-75.5 -16q-31 0 -58.5 10.5
t-42.5 26.5v-215h-122z" />
    <glyph glyph-name="paragraph" unicode="&#xb6;" horiz-adv-x="530" 
d="M355 -145v812h109v-812h-109zM200 -145v397q-41 4 -75 22.5t-58 46t-37.5 63t-13.5 74.5q0 42 15.5 79.5t43.5 66.5t67 46t85 17h80v-812h-107z" />
    <glyph glyph-name="periodcentered" unicode="&#xb7;" horiz-adv-x="326" 
d="M164 296q-38 0 -56 22.5t-18 49.5q0 28 18 50.5t56 22.5q36 0 54 -22.5t18 -50.5q0 -27 -17.5 -49.5t-54.5 -22.5z" />
    <glyph glyph-name="cedilla" unicode="&#xb8;" horiz-adv-x="442" 
d="M135 -181l62 137h116l-86 -137h-92z" />
    <glyph glyph-name="onesuperior" unicode="&#xb9;" horiz-adv-x="315" 
d="M162 337v218l-68 -36l-40 72l132 74h74v-328h-98z" />
    <glyph glyph-name="ordmasculine" unicode="&#xba;" horiz-adv-x="413" 
d="M128 311q-33 16 -55 42.5t-32.5 59.5t-10.5 67t11 67t33 59t55 42t77 16t77.5 -16t55.5 -42t33 -59t11 -67t-11 -67t-33 -59.5t-55 -42.5t-78 -16t-78 16zM152 411q18 -28 54 -28q37 0 54.5 28.5t17.5 68.5q0 41 -17.5 70t-53.5 29q-37 0 -54.5 -29t-17.5 -70
q0 -40 17 -69z" />
    <glyph glyph-name="guillemotright" unicode="&#xbb;" horiz-adv-x="574" 
d="M255 121l157 135l-143 138l86 68l207 -212l-228 -205zM21 121l157 135l-143 138l86 68l207 -212l-227 -205z" />
    <glyph glyph-name="onequarter" unicode="&#xbc;" horiz-adv-x="774" 
d="M96 337v218l-68 -36l-40 72l132 74h74v-328h-98zM461 72v73l161 184h89v-187h41v-70h-41v-71h-97v71h-153zM540 142h74v86zM90 -12l-65 70l655 610l68 -69z" />
    <glyph glyph-name="onehalf" unicode="&#xbd;" horiz-adv-x="774" 
d="M96 337v218l-68 -36l-40 72l132 74h74v-328h-98zM511 1v57q35 32 63 57t55 55q14 15 21.5 28t7.5 27t-7.5 22.5t-21.5 8.5q-12 0 -27 -10.5t-32 -45.5l-78 40q53 97 154 97q48 0 81.5 -25t33.5 -76q0 -29 -12 -53.5t-32 -45.5q-15 -17 -28.5 -29t-29.5 -24h110v-83h-258z
M83 -12l-65 70l655 610l68 -69z" />
    <glyph glyph-name="threequarters" unicode="&#xbe;" horiz-adv-x="774" 
d="M92 -12l-65 70l655 610l68 -69zM71 453q17 -26 34 -34.5t32 -8.5q20 0 29.5 9t9.5 23q0 4 -1.5 9.5t-7.5 10.5t-17.5 8.5t-32.5 3.5v65q20 1 31 5t16 8.5t6 9.5t1 8q0 11 -8 18t-25 7q-14 0 -29 -8t-32 -35l-77 41q29 45 67.5 62.5t82.5 17.5q22 0 43.5 -5.5t38.5 -17
t27 -28.5t10 -40q0 -28 -11 -44.5t-27 -26.5q15 -8 29.5 -26t14.5 -46q0 -29 -12 -49t-31 -33t-43 -19t-49 -6q-40 0 -78 16.5t-69 63.5zM456 72v73l161 184h89v-187h41v-70h-41v-71h-97v71h-153zM535 142h74v86z" />
    <glyph glyph-name="questiondown" unicode="&#xbf;" horiz-adv-x="422" 
d="M221 332q-36 0 -58.5 24.5t-22.5 56.5t22.5 56.5t58.5 24.5t59 -24.5t23 -56.5t-23 -56.5t-59 -24.5zM434 -73q-36 -55 -90 -90t-133 -35q-100 0 -152.5 50t-52.5 135q0 24 7.5 45t19.5 40t27 35.5t30 32.5q27 27 47.5 53t20.5 55v24h126v-42q0 -20 -6.5 -39t-16 -35.5
t-21 -30.5t-21.5 -24q-15 -15 -29.5 -28t-26 -27t-18.5 -29t-7 -34q0 -35 21 -54t59 -19q29 0 58.5 16.5t61.5 64.5z" />
    <glyph glyph-name="Agrave" unicode="&#xc0;" horiz-adv-x="648" 
d="M0 0l274 667h95l278 -667h-145l-54 134h-257l-55 -134h-136zM232 247h172l-86 219zM142 816l63 83l201 -141l-35 -54z" />
    <glyph glyph-name="Aacute" unicode="&#xc1;" horiz-adv-x="648" 
d="M0 0l274 667h95l278 -667h-145l-54 134h-257l-55 -134h-136zM232 247h172l-86 219zM248 704l-36 54l201 141l63 -83z" />
    <glyph glyph-name="Acircumflex" unicode="&#xc2;" horiz-adv-x="648" 
d="M0 0l274 667h95l278 -667h-145l-54 134h-257l-55 -134h-136zM232 247h172l-86 219zM149 755l121 130h96l121 -132l-69 -42l-101 96l-101 -97z" />
    <glyph glyph-name="Atilde" unicode="&#xc3;" horiz-adv-x="648" 
d="M0 0l274 667h95l278 -667h-145l-54 134h-257l-55 -134h-136zM232 247h172l-86 219zM113 742q17 51 49.5 83t77.5 32q20 0 39.5 -9t36.5 -20t32 -19.5t27 -8.5q10 0 27.5 11.5t34.5 51.5l68 -35q-18 -54 -50 -85t-77 -31q-21 0 -40.5 9.5t-36.5 20.5t-31.5 19t-26.5 8
q-11 0 -27.5 -11.5t-33.5 -51.5z" />
    <glyph glyph-name="Adieresis" unicode="&#xc4;" horiz-adv-x="648" 
d="M0 0l274 667h95l278 -667h-145l-54 134h-257l-55 -134h-136zM232 247h172l-86 219zM412 726q-28 0 -46.5 21.5t-18.5 49.5q0 29 18.5 50t46.5 21q29 0 47 -21t18 -50q0 -28 -18 -49.5t-47 -21.5zM224 726q-29 0 -47 21.5t-18 49.5q0 29 18 50t47 21q28 0 46.5 -21
t18.5 -50q0 -28 -18.5 -49.5t-46.5 -21.5z" />
    <glyph glyph-name="Aring" unicode="&#xc5;" horiz-adv-x="648" 
d="M0 0l274 666q-19 10 -31 25q-13 15 -19.5 34.5t-6.5 39.5t6.5 39.5t19.5 35t32.5 25t45.5 9.5t46 -9.5t33 -24.5t19.5 -34.5t6.5 -39.5t-6.5 -39.5t-19.5 -35t-32 -24.5h1l278 -667h-145l-54 134h-257l-55 -134h-136zM232 247h172l-86 219zM292 733q11 -13 29 -13
q19 0 29.5 13t10.5 33t-10.5 33t-29.5 13q-18 0 -28.5 -13t-10.5 -33t10 -33z" />
    <glyph glyph-name="AE" unicode="&#xc6;" horiz-adv-x="923" 
d="M0 0l406 667h466v-121h-274v-151h217v-120h-217v-154h297v-121h-432v176h-204l-107 -176h-152zM321 290h142v239z" />
    <glyph glyph-name="Ccedilla" unicode="&#xc7;" horiz-adv-x="608" 
d="M584 133q-45 -80 -102 -113.5t-139 -33.5q-66 0 -121 23t-94.5 67.5t-61 108.5t-21.5 146q0 90 24.5 155.5t65 109t94 64.5t110.5 21q46 0 83 -10.5t66.5 -30.5t52 -49t39.5 -66l-109 -61q-20 43 -49.5 71t-79.5 28q-31 0 -60 -14t-51 -43t-35.5 -72.5t-13.5 -102.5
q0 -52 13 -94t35.5 -71t52.5 -45t65 -16q19 0 36.5 4t33.5 14.5t31 28t30 45.5zM235 -181l62 137h116l-86 -137h-92z" />
    <glyph glyph-name="Egrave" unicode="&#xc8;" horiz-adv-x="586" 
d="M77 0v667h458v-121h-323v-152h267v-121h-267v-152h346v-121h-481zM138 816l63 83l201 -141l-35 -54z" />
    <glyph glyph-name="Eacute" unicode="&#xc9;" horiz-adv-x="586" 
d="M77 0v667h458v-121h-323v-152h267v-121h-267v-152h346v-121h-481zM238 704l-36 54l201 141l63 -83z" />
    <glyph glyph-name="Ecircumflex" unicode="&#xca;" horiz-adv-x="586" 
d="M77 0v667h458v-121h-323v-152h267v-121h-267v-152h346v-121h-481zM135 755l121 130h96l121 -132l-69 -42l-101 96l-101 -97z" />
    <glyph glyph-name="Edieresis" unicode="&#xcb;" horiz-adv-x="586" 
d="M77 0v667h458v-121h-323v-152h267v-121h-267v-152h346v-121h-481zM401 726q-28 0 -46.5 21.5t-18.5 49.5q0 29 18.5 50t46.5 21q29 0 47 -21t18 -50q0 -28 -18 -49.5t-47 -21.5zM213 726q-29 0 -47 21.5t-18 49.5q0 29 18 50t47 21q28 0 46.5 -21t18.5 -50
q0 -28 -18.5 -49.5t-46.5 -21.5z" />
    <glyph glyph-name="Igrave" unicode="&#xcc;" horiz-adv-x="289" 
d="M77 0v667h135v-667h-135zM-25 816l63 83l201 -141l-35 -54z" />
    <glyph glyph-name="Iacute" unicode="&#xcd;" horiz-adv-x="289" 
d="M77 0v667h135v-667h-135zM85 704l-36 54l201 141l63 -83z" />
    <glyph glyph-name="Icircumflex" unicode="&#xce;" horiz-adv-x="289" 
d="M77 0v667h135v-667h-135zM-24 755l121 130h96l121 -132l-69 -42l-101 96l-101 -97z" />
    <glyph glyph-name="Idieresis" unicode="&#xcf;" horiz-adv-x="289" 
d="M77 0v667h135v-667h-135zM240 726q-28 0 -46.5 21.5t-18.5 49.5q0 29 18.5 50t46.5 21q29 0 47 -21t18 -50q0 -28 -18 -49.5t-47 -21.5zM52 726q-29 0 -47 21.5t-18 49.5q0 29 18 50t47 21q28 0 46.5 -21t18.5 -50q0 -28 -18.5 -49.5t-46.5 -21.5z" />
    <glyph glyph-name="Eth" unicode="&#xd0;" horiz-adv-x="667" 
d="M83 0v291h-83v105h83v271h198q40 0 86.5 -6.5t85.5 -23.5q43 -20 75 -51.5t53.5 -71t32 -85t10.5 -92.5t-10.5 -92.5t-32 -86t-53.5 -72.5t-75 -52q-73 -34 -167 -34h-203zM218 120h55q71 0 121 25q48 25 70.5 76.5t22.5 109.5q0 57 -21 107.5t-64 78.5
q-23 15 -57.5 22.5t-69.5 7.5h-57v-151h152v-105h-152v-171z" />
    <glyph glyph-name="Ntilde" unicode="&#xd1;" horiz-adv-x="695" 
d="M77 0v667h138l270 -416v416h133v-667h-118l-290 441v-441h-133zM149 742q17 51 49.5 83t77.5 32q20 0 39.5 -9t36.5 -20t32 -19.5t27 -8.5q10 0 27.5 11.5t34.5 51.5l68 -35q-18 -54 -50 -85t-77 -31q-21 0 -40.5 9.5t-36.5 20.5t-31.5 19t-26.5 8q-11 0 -27.5 -11.5
t-33.5 -51.5z" />
    <glyph glyph-name="Ograve" unicode="&#xd2;" horiz-adv-x="707" 
d="M217 16q-58 31 -96 80t-57 111.5t-19 126.5t19 126.5t57 111.5t96 79t135 30q78 0 136 -30t97 -79t58 -111.5t19 -126.5t-19 -126.5t-58 -111.5t-97 -79.5t-136 -30.5q-77 0 -135 30zM225 175q22 -32 53.5 -51t73.5 -19t74.5 19t54.5 51t33 73.5t11 85.5t-11 85.5
t-33 73.5t-54.5 51t-74.5 19t-73.5 -19t-53.5 -51t-33 -73.5t-11 -85.5t11 -85.5t33 -73.5zM170 816l63 83l201 -141l-35 -54z" />
    <glyph glyph-name="Oacute" unicode="&#xd3;" horiz-adv-x="707" 
d="M217 16q-58 31 -96 80t-57 111.5t-19 126.5t19 126.5t57 111.5t96 79t135 30q78 0 136 -30t97 -79t58 -111.5t19 -126.5t-19 -126.5t-58 -111.5t-97 -79.5t-136 -30.5q-77 0 -135 30zM225 175q22 -32 53.5 -51t73.5 -19t74.5 19t54.5 51t33 73.5t11 85.5t-11 85.5
t-33 73.5t-54.5 51t-74.5 19t-73.5 -19t-53.5 -51t-33 -73.5t-11 -85.5t11 -85.5t33 -73.5zM279 704l-36 54l201 141l63 -83z" />
    <glyph glyph-name="Ocircumflex" unicode="&#xd4;" horiz-adv-x="707" 
d="M217 16q-58 31 -96 80t-57 111.5t-19 126.5t19 126.5t57 111.5t96 79t135 30q78 0 136 -30t97 -79t58 -111.5t19 -126.5t-19 -126.5t-58 -111.5t-97 -79.5t-136 -30.5q-77 0 -135 30zM225 175q22 -32 53.5 -51t73.5 -19t74.5 19t54.5 51t33 73.5t11 85.5t-11 85.5
t-33 73.5t-54.5 51t-74.5 19t-73.5 -19t-53.5 -51t-33 -73.5t-11 -85.5t11 -85.5t33 -73.5zM186 755l121 130h96l121 -132l-69 -42l-101 96l-101 -97z" />
    <glyph glyph-name="Otilde" unicode="&#xd5;" horiz-adv-x="707" 
d="M217 16q-58 31 -96 80t-57 111.5t-19 126.5t19 126.5t57 111.5t96 79t135 30q78 0 136 -30t97 -79t58 -111.5t19 -126.5t-19 -126.5t-58 -111.5t-97 -79.5t-136 -30.5q-77 0 -135 30zM225 175q22 -32 53.5 -51t73.5 -19t74.5 19t54.5 51t33 73.5t11 85.5t-11 85.5
t-33 73.5t-54.5 51t-74.5 19t-73.5 -19t-53.5 -51t-33 -73.5t-11 -85.5t11 -85.5t33 -73.5zM150 742q17 51 49.5 83t77.5 32q20 0 39.5 -9t36.5 -20t32 -19.5t27 -8.5q10 0 27.5 11.5t34.5 51.5l68 -35q-18 -54 -50 -85t-77 -31q-21 0 -40.5 9.5t-36.5 20.5t-31.5 19
t-26.5 8q-11 0 -27.5 -11.5t-33.5 -51.5z" />
    <glyph glyph-name="Odieresis" unicode="&#xd6;" horiz-adv-x="707" 
d="M217 16q-58 31 -96 80t-57 111.5t-19 126.5t19 126.5t57 111.5t96 79t135 30q78 0 136 -30t97 -79t58 -111.5t19 -126.5t-19 -126.5t-58 -111.5t-97 -79.5t-136 -30.5q-77 0 -135 30zM225 175q22 -32 53.5 -51t73.5 -19t74.5 19t54.5 51t33 73.5t11 85.5t-11 85.5
t-33 73.5t-54.5 51t-74.5 19t-73.5 -19t-53.5 -51t-33 -73.5t-11 -85.5t11 -85.5t33 -73.5zM440 726q-28 0 -46.5 21.5t-18.5 49.5q0 29 18.5 50t46.5 21q29 0 47 -21t18 -50q0 -28 -18 -49.5t-47 -21.5zM252 726q-29 0 -47 21.5t-18 49.5q0 29 18 50t47 21q28 0 46.5 -21
t18.5 -50q0 -28 -18.5 -49.5t-46.5 -21.5z" />
    <glyph glyph-name="multiply" unicode="&#xd7;" horiz-adv-x="542" 
d="M143 125l-77 77l127 128l-127 128l77 77l128 -127l128 127l77 -77l-127 -128l127 -128l-77 -77l-128 127z" />
    <glyph glyph-name="Oslash" unicode="&#xd8;" horiz-adv-x="707" 
d="M32 44l70 80q-29 46 -43 100t-14 110q0 64 19 126t57 111t96 79t135 30q56 0 101 -15.5t81 -42.5l63 73l86 -72l-76 -87q28 -45 41.5 -98t13.5 -104q0 -64 -19 -126.5t-58 -111.5t-97 -79t-136 -30q-101 0 -174 55l-61 -71zM451 527q-20 17 -44.5 26.5t-54.5 9.5
q-42 0 -73.5 -19t-53.5 -51t-33 -73.5t-11 -85.5q0 -55 16 -100zM257 136q17 -12 43.5 -21.5t51.5 -9.5q42 0 74.5 19t54.5 51t33 73.5t11 85.5q0 21 -4 48.5t-9 47.5z" />
    <glyph glyph-name="Ugrave" unicode="&#xd9;" horiz-adv-x="687" 
d="M208 242q0 -60 35 -98.5t101 -38.5t100.5 38.5t34.5 98.5v425h135v-438q0 -57 -21 -102t-58 -76.5t-86 -48t-106 -16.5q-56 0 -105.5 16.5t-86 48t-57.5 76.5t-21 102v438h135v-425zM140 816l63 83l201 -141l-35 -54z" />
    <glyph glyph-name="Uacute" unicode="&#xda;" horiz-adv-x="687" 
d="M208 242q0 -60 35 -98.5t101 -38.5t100.5 38.5t34.5 98.5v425h135v-438q0 -57 -21 -102t-58 -76.5t-86 -48t-106 -16.5q-56 0 -105.5 16.5t-86 48t-57.5 76.5t-21 102v438h135v-425zM289 704l-36 54l201 141l63 -83z" />
    <glyph glyph-name="Ucircumflex" unicode="&#xdb;" horiz-adv-x="687" 
d="M208 242q0 -60 35 -98.5t101 -38.5t100.5 38.5t34.5 98.5v425h135v-438q0 -57 -21 -102t-58 -76.5t-86 -48t-106 -16.5q-56 0 -105.5 16.5t-86 48t-57.5 76.5t-21 102v438h135v-425zM177 755l121 130h96l121 -132l-69 -42l-101 96l-101 -97z" />
    <glyph glyph-name="Udieresis" unicode="&#xdc;" horiz-adv-x="687" 
d="M208 242q0 -60 35 -98.5t101 -38.5t100.5 38.5t34.5 98.5v425h135v-438q0 -57 -21 -102t-58 -76.5t-86 -48t-106 -16.5q-56 0 -105.5 16.5t-86 48t-57.5 76.5t-21 102v438h135v-425zM433 726q-28 0 -46.5 21.5t-18.5 49.5q0 29 18.5 50t46.5 21q29 0 47 -21t18 -50
q0 -28 -18 -49.5t-47 -21.5zM245 726q-29 0 -47 21.5t-18 49.5q0 29 18 50t47 21q28 0 46.5 -21t18.5 -50q0 -28 -18.5 -49.5t-46.5 -21.5z" />
    <glyph glyph-name="Yacute" unicode="&#xdd;" horiz-adv-x="581" 
d="M225 0v268l-225 399h150l145 -265l138 265h148l-221 -399v-268h-135zM235 704l-36 54l201 141l63 -83z" />
    <glyph glyph-name="Thorn" unicode="&#xde;" horiz-adv-x="580" 
d="M77 0v667h135v-103h76q50 0 93.5 -6.5t82.5 -25.5q51 -24 75 -71t24 -101q0 -31 -7.5 -61t-22.5 -56.5t-37 -47.5t-51 -33q-35 -14 -70.5 -19.5t-73.5 -5.5h-89v-137h-135zM212 252h77q29 0 52 3t40 11q29 13 42.5 36t13.5 49q0 28 -15 52.5t-44 34.5q-17 6 -36 9t-49 3
h-81v-198z" />
    <glyph glyph-name="germandbls" unicode="&#xdf;" horiz-adv-x="606" 
d="M85 0v382h-69v100h70q1 50 20.5 87.5t52 62t73.5 36.5t84 12q42 0 82 -12t71 -36.5t49.5 -61t18.5 -85.5v-86h-86q-18 0 -32 -8.5t-14 -25.5q0 -11 8.5 -21t22.5 -19.5t32.5 -19.5t38.5 -22q16 -9 30 -21.5t25 -29t17.5 -38t6.5 -49.5q0 -36 -13.5 -65t-36 -49t-52.5 -31
t-62 -11q-52 0 -97.5 23t-71.5 81l108 52q11 -27 28 -38.5t32 -11.5q17 0 28 11t11 31q0 18 -10.5 31.5t-27 25t-36.5 22t-40 22.5q-27 17 -48 44.5t-21 77.5q0 26 8.5 50.5t25.5 44t42 31.5t59 13q-3 21 -13 35.5t-23.5 23t-29 12.5t-29.5 4q-16 0 -33.5 -5.5t-32.5 -19
t-25 -35.5t-10 -55v-459h-131z" />
    <glyph glyph-name="agrave" unicode="&#xe0;" horiz-adv-x="514" 
d="M332 0l-6 36q-21 -22 -53.5 -34.5t-71.5 -12.5q-32 0 -62.5 10.5t-53.5 30t-37 48t-14 64.5t15 63.5t40 46.5t57.5 31t68.5 18q25 5 55 7.5t50 4.5v16q0 29 -20 47t-47 18q-17 0 -43 -9t-50 -34l-89 62q19 24 43.5 40t50 25t50.5 12.5t46 3.5q42 0 77 -10.5t60.5 -33
t39.5 -57t14 -83.5v-310h-120zM321 225q-20 -1 -42.5 -3.5t-42.5 -6.5q-42 -8 -58.5 -27.5t-16.5 -42.5q0 -24 18 -38.5t53 -14.5q25 0 48.5 10t40.5 25v98zM112 650l63 83l201 -141l-35 -54z" />
    <glyph glyph-name="aacute" unicode="&#xe1;" horiz-adv-x="514" 
d="M332 0l-6 36q-21 -22 -53.5 -34.5t-71.5 -12.5q-32 0 -62.5 10.5t-53.5 30t-37 48t-14 64.5t15 63.5t40 46.5t57.5 31t68.5 18q25 5 55 7.5t50 4.5v16q0 29 -20 47t-47 18q-17 0 -43 -9t-50 -34l-89 62q19 24 43.5 40t50 25t50.5 12.5t46 3.5q42 0 77 -10.5t60.5 -33
t39.5 -57t14 -83.5v-310h-120zM321 225q-20 -1 -42.5 -3.5t-42.5 -6.5q-42 -8 -58.5 -27.5t-16.5 -42.5q0 -24 18 -38.5t53 -14.5q25 0 48.5 10t40.5 25v98zM175 538l-36 54l201 141l63 -83z" />
    <glyph glyph-name="acircumflex" unicode="&#xe2;" horiz-adv-x="514" 
d="M332 0l-6 36q-21 -22 -53.5 -34.5t-71.5 -12.5q-32 0 -62.5 10.5t-53.5 30t-37 48t-14 64.5t15 63.5t40 46.5t57.5 31t68.5 18q25 5 55 7.5t50 4.5v16q0 29 -20 47t-47 18q-17 0 -43 -9t-50 -34l-89 62q19 24 43.5 40t50 25t50.5 12.5t46 3.5q42 0 77 -10.5t60.5 -33
t39.5 -57t14 -83.5v-310h-120zM321 225q-20 -1 -42.5 -3.5t-42.5 -6.5q-42 -8 -58.5 -27.5t-16.5 -42.5q0 -24 18 -38.5t53 -14.5q25 0 48.5 10t40.5 25v98zM79 589l121 130h96l121 -132l-69 -42l-101 96l-101 -97z" />
    <glyph glyph-name="atilde" unicode="&#xe3;" horiz-adv-x="514" 
d="M332 0l-6 36q-21 -22 -53.5 -34.5t-71.5 -12.5q-32 0 -62.5 10.5t-53.5 30t-37 48t-14 64.5t15 63.5t40 46.5t57.5 31t68.5 18q25 5 55 7.5t50 4.5v16q0 29 -20 47t-47 18q-17 0 -43 -9t-50 -34l-89 62q19 24 43.5 40t50 25t50.5 12.5t46 3.5q42 0 77 -10.5t60.5 -33
t39.5 -57t14 -83.5v-310h-120zM321 225q-20 -1 -42.5 -3.5t-42.5 -6.5q-42 -8 -58.5 -27.5t-16.5 -42.5q0 -24 18 -38.5t53 -14.5q25 0 48.5 10t40.5 25v98zM55 576q17 51 49.5 83t77.5 32q20 0 39.5 -9t36.5 -20t32 -19.5t27 -8.5q10 0 27.5 11.5t34.5 51.5l68 -35
q-18 -54 -50 -85t-77 -31q-21 0 -40.5 9.5t-36.5 20.5t-31.5 19t-26.5 8q-11 0 -27.5 -11.5t-33.5 -51.5z" />
    <glyph glyph-name="adieresis" unicode="&#xe4;" horiz-adv-x="514" 
d="M332 0l-6 36q-21 -22 -53.5 -34.5t-71.5 -12.5q-32 0 -62.5 10.5t-53.5 30t-37 48t-14 64.5t15 63.5t40 46.5t57.5 31t68.5 18q25 5 55 7.5t50 4.5v16q0 29 -20 47t-47 18q-17 0 -43 -9t-50 -34l-89 62q19 24 43.5 40t50 25t50.5 12.5t46 3.5q42 0 77 -10.5t60.5 -33
t39.5 -57t14 -83.5v-310h-120zM321 225q-20 -1 -42.5 -3.5t-42.5 -6.5q-42 -8 -58.5 -27.5t-16.5 -42.5q0 -24 18 -38.5t53 -14.5q25 0 48.5 10t40.5 25v98zM349 560q-28 0 -46.5 21.5t-18.5 49.5q0 29 18.5 50t46.5 21q29 0 47 -21t18 -50q0 -28 -18 -49.5t-47 -21.5z
M161 560q-29 0 -47 21.5t-18 49.5q0 29 18 50t47 21q28 0 46.5 -21t18.5 -50q0 -28 -18.5 -49.5t-46.5 -21.5z" />
    <glyph glyph-name="aring" unicode="&#xe5;" horiz-adv-x="514" 
d="M332 0l-6 36q-21 -22 -53.5 -34.5t-71.5 -12.5q-32 0 -62.5 10.5t-53.5 30t-37 48t-14 64.5t15 63.5t40 46.5t57.5 31t68.5 18q25 5 55 7.5t50 4.5v16q0 29 -20 47t-47 18q-17 0 -43 -9t-50 -34l-89 62q19 24 43.5 40t50 25t50.5 12.5t46 3.5q42 0 77 -10.5t60.5 -33
t39.5 -57t14 -83.5v-310h-120zM321 225q-20 -1 -42.5 -3.5t-42.5 -6.5q-42 -8 -58.5 -27.5t-16.5 -42.5q0 -24 18 -38.5t53 -14.5q25 0 48.5 10t40.5 25v98zM211 538q-19 10 -32 25t-19.5 34.5t-6.5 39.5t6.5 39.5t19.5 35t32.5 25t45.5 9.5t46 -9.5t33 -24.5t19.5 -34.5
t6.5 -39.5t-6.5 -39.5t-19.5 -35t-33 -25t-46 -9.5t-46 9zM228 605q11 -13 29 -13q19 0 29.5 13t10.5 33t-10.5 33t-29.5 13q-18 0 -28.5 -13t-10.5 -33t10 -33z" />
    <glyph glyph-name="ae" unicode="&#xe6;" horiz-adv-x="795" 
d="M74 417q28 34 72.5 55.5t104.5 21.5q101 0 149 -61q23 27 58 44t95 17q94 0 152 -70.5t60 -213.5h-314q1 -29 10 -50.5t24 -35.5t34.5 -21t40.5 -7q34 0 61.5 13.5t49.5 48.5l92 -55q-74 -114 -201 -114q-60 0 -102.5 19t-68.5 52q-31 -34 -71.5 -52.5t-108.5 -18.5
q-36 0 -68 10t-56 30t-38.5 49.5t-14.5 69.5q0 49 28 80t70.5 49t92.5 25.5t94 9.5v24q0 28 -19.5 43t-52.5 15q-26 0 -50.5 -14.5t-40.5 -31.5zM633 300q-2 41 -25 67.5t-60 26.5q-40 0 -64 -26.5t-31 -67.5h180zM320 218q-32 -1 -60 -5t-49.5 -13t-34 -22.5t-12.5 -33.5
q0 -26 17 -40t47 -14q15 0 31 4.5t29.5 14t22.5 23.5t9 32v54z" />
    <glyph glyph-name="ccedilla" unicode="&#xe7;" horiz-adv-x="487" 
d="M476 116q-31 -65 -83.5 -96t-122.5 -31q-46 0 -88.5 16t-75 47.5t-52 78t-19.5 108.5q0 64 19 112t50.5 80t72.5 47.5t85 15.5t78.5 -12.5t60 -32.5t42 -45t25.5 -50l-103 -51q-17 48 -42.5 67.5t-57.5 19.5q-20 0 -38 -9t-32.5 -27t-23 -46t-8.5 -67q0 -69 30.5 -107
t79.5 -38q38 0 62 19t43 54zM157 -181l62 137h116l-86 -137h-92z" />
    <glyph glyph-name="egrave" unicode="&#xe8;" horiz-adv-x="525" 
d="M166 210q5 -61 37.5 -88t72.5 -27q35 0 63 12.5t58 54.5l97 -59q-41 -63 -95 -88.5t-127 -25.5q-48 0 -91 15t-75.5 46.5t-51.5 78.5t-19 112q0 61 18.5 108t50.5 79t74.5 49t90.5 17q101 0 162.5 -70.5t63.5 -213.5h-329zM362 299q-4 48 -32.5 72t-60.5 24
q-17 0 -33.5 -6.5t-30.5 -19t-23.5 -30.5t-12.5 -40h193zM111 650l63 83l201 -141l-35 -54z" />
    <glyph glyph-name="eacute" unicode="&#xe9;" horiz-adv-x="525" 
d="M166 210q5 -61 37.5 -88t72.5 -27q35 0 63 12.5t58 54.5l97 -59q-41 -63 -95 -88.5t-127 -25.5q-48 0 -91 15t-75.5 46.5t-51.5 78.5t-19 112q0 61 18.5 108t50.5 79t74.5 49t90.5 17q101 0 162.5 -70.5t63.5 -213.5h-329zM362 299q-4 48 -32.5 72t-60.5 24
q-17 0 -33.5 -6.5t-30.5 -19t-23.5 -30.5t-12.5 -40h193zM193 538l-36 54l201 141l63 -83z" />
    <glyph glyph-name="ecircumflex" unicode="&#xea;" horiz-adv-x="525" 
d="M166 210q5 -61 37.5 -88t72.5 -27q35 0 63 12.5t58 54.5l97 -59q-41 -63 -95 -88.5t-127 -25.5q-48 0 -91 15t-75.5 46.5t-51.5 78.5t-19 112q0 61 18.5 108t50.5 79t74.5 49t90.5 17q101 0 162.5 -70.5t63.5 -213.5h-329zM362 299q-4 48 -32.5 72t-60.5 24
q-17 0 -33.5 -6.5t-30.5 -19t-23.5 -30.5t-12.5 -40h193zM95 589l121 130h96l121 -132l-69 -42l-101 96l-101 -97z" />
    <glyph glyph-name="edieresis" unicode="&#xeb;" horiz-adv-x="525" 
d="M166 210q5 -61 37.5 -88t72.5 -27q35 0 63 12.5t58 54.5l97 -59q-41 -63 -95 -88.5t-127 -25.5q-48 0 -91 15t-75.5 46.5t-51.5 78.5t-19 112q0 61 18.5 108t50.5 79t74.5 49t90.5 17q101 0 162.5 -70.5t63.5 -213.5h-329zM362 299q-4 48 -32.5 72t-60.5 24
q-17 0 -33.5 -6.5t-30.5 -19t-23.5 -30.5t-12.5 -40h193zM364 560q-28 0 -46.5 21.5t-18.5 49.5q0 29 18.5 50t46.5 21q29 0 47 -21t18 -50q0 -28 -18 -49.5t-47 -21.5zM176 560q-29 0 -47 21.5t-18 49.5q0 29 18 50t47 21q28 0 46.5 -21t18.5 -50q0 -28 -18.5 -49.5
t-46.5 -21.5z" />
    <glyph glyph-name="igrave" unicode="&#xec;" horiz-adv-x="261" 
d="M65 0v477h131v-477h-131zM-38 650l63 83l201 -141l-35 -54z" />
    <glyph glyph-name="iacute" unicode="&#xed;" horiz-adv-x="261" 
d="M65 0v477h131v-477h-131zM72 538l-36 54l201 141l63 -83z" />
    <glyph glyph-name="icircumflex" unicode="&#xee;" horiz-adv-x="261" 
d="M65 0v477h131v-477h-131zM-37 589l121 130h96l121 -132l-69 -42l-101 96l-101 -97z" />
    <glyph glyph-name="idieresis" unicode="&#xef;" horiz-adv-x="261" 
d="M65 0v477h131v-477h-131zM225 560q-28 0 -46.5 21.5t-18.5 49.5q0 29 18.5 50t46.5 21q29 0 47 -21t18 -50q0 -28 -18 -49.5t-47 -21.5zM37 560q-29 0 -47 21.5t-18 49.5q0 29 18 50t47 21q28 0 46.5 -21t18.5 -50q0 -28 -18.5 -49.5t-46.5 -21.5z" />
    <glyph glyph-name="eth" unicode="&#xf0;" horiz-adv-x="569" 
d="M174 680q44 -7 76.5 -17t64.5 -27l58 74l76 -58l-55 -71q37 -32 63 -70.5t42.5 -81.5t24 -88.5t7.5 -91.5q0 -57 -16 -104.5t-47 -82t-77 -53.5t-106 -19q-49 0 -93.5 15.5t-78.5 47t-54 78.5t-20 109q0 51 14 96t41.5 79t68.5 54t94 20q26 0 49 -6t43 -19
q-12 25 -33.5 47t-48.5 39t-57.5 28.5t-60.5 16.5zM389 307q-6 33 -14 52q-47 25 -92 25q-51 0 -84 -35.5t-33 -107.5q0 -36 10 -63t26.5 -45.5t37 -27.5t42.5 -9q21 0 41.5 9t36.5 27.5t26 46.5t10 66q0 29 -7 62z" />
    <glyph glyph-name="ntilde" unicode="&#xf1;" horiz-adv-x="581" 
d="M65 0v482h119l6 -38q30 24 69 37t78 13q40 0 73.5 -11.5t57.5 -36.5t37.5 -65t13.5 -96v-285h-131v275q0 55 -24 85t-67 30q-30 0 -56 -15t-45 -33v-342h-131zM89 576q17 51 49.5 83t77.5 32q20 0 39.5 -9t36.5 -20t32 -19.5t27 -8.5q10 0 27.5 11.5t34.5 51.5l68 -35
q-18 -54 -50 -85t-77 -31q-21 0 -40.5 9.5t-36.5 20.5t-31.5 19t-26.5 8q-11 0 -27.5 -11.5t-33.5 -51.5z" />
    <glyph glyph-name="ograve" unicode="&#xf2;" horiz-adv-x="556" 
d="M171 11q-45 22 -75.5 58t-45.5 81.5t-15 92.5t15 92t45.5 80.5t76 57t106.5 21.5t106.5 -21.5t76 -57t45.5 -80.5t15 -92t-15 -92.5t-45.5 -81.5t-76 -58t-106.5 -22t-107 22zM192 139q14 -20 35.5 -31.5t50.5 -11.5q28 0 49.5 11.5t36 31.5t22 46.5t7.5 57.5
q0 30 -7.5 57t-22 46.5t-36 31t-49.5 11.5t-49.5 -11.5t-36 -31t-22 -46.5t-7.5 -57q0 -31 7.5 -57.5t21.5 -46.5zM99 650l63 83l201 -141l-35 -54z" />
    <glyph glyph-name="oacute" unicode="&#xf3;" horiz-adv-x="556" 
d="M171 11q-45 22 -75.5 58t-45.5 81.5t-15 92.5t15 92t45.5 80.5t76 57t106.5 21.5t106.5 -21.5t76 -57t45.5 -80.5t15 -92t-15 -92.5t-45.5 -81.5t-76 -58t-106.5 -22t-107 22zM192 139q14 -20 35.5 -31.5t50.5 -11.5q28 0 49.5 11.5t36 31.5t22 46.5t7.5 57.5
q0 30 -7.5 57t-22 46.5t-36 31t-49.5 11.5t-49.5 -11.5t-36 -31t-22 -46.5t-7.5 -57q0 -31 7.5 -57.5t21.5 -46.5zM194 538l-36 54l201 141l63 -83z" />
    <glyph glyph-name="ocircumflex" unicode="&#xf4;" horiz-adv-x="556" 
d="M171 11q-45 22 -75.5 58t-45.5 81.5t-15 92.5t15 92t45.5 80.5t76 57t106.5 21.5t106.5 -21.5t76 -57t45.5 -80.5t15 -92t-15 -92.5t-45.5 -81.5t-76 -58t-106.5 -22t-107 22zM192 139q14 -20 35.5 -31.5t50.5 -11.5q28 0 49.5 11.5t36 31.5t22 46.5t7.5 57.5
q0 30 -7.5 57t-22 46.5t-36 31t-49.5 11.5t-49.5 -11.5t-36 -31t-22 -46.5t-7.5 -57q0 -31 7.5 -57.5t21.5 -46.5zM105 589l121 130h96l121 -132l-69 -42l-101 96l-101 -97z" />
    <glyph glyph-name="otilde" unicode="&#xf5;" horiz-adv-x="556" 
d="M171 11q-45 22 -75.5 58t-45.5 81.5t-15 92.5t15 92t45.5 80.5t76 57t106.5 21.5t106.5 -21.5t76 -57t45.5 -80.5t15 -92t-15 -92.5t-45.5 -81.5t-76 -58t-106.5 -22t-107 22zM192 139q14 -20 35.5 -31.5t50.5 -11.5q28 0 49.5 11.5t36 31.5t22 46.5t7.5 57.5
q0 30 -7.5 57t-22 46.5t-36 31t-49.5 11.5t-49.5 -11.5t-36 -31t-22 -46.5t-7.5 -57q0 -31 7.5 -57.5t21.5 -46.5zM65 576q17 51 49.5 83t77.5 32q20 0 39.5 -9t36.5 -20t32 -19.5t27 -8.5q10 0 27.5 11.5t34.5 51.5l68 -35q-18 -54 -50 -85t-77 -31q-21 0 -40.5 9.5
t-36.5 20.5t-31.5 19t-26.5 8q-11 0 -27.5 -11.5t-33.5 -51.5z" />
    <glyph glyph-name="odieresis" unicode="&#xf6;" horiz-adv-x="556" 
d="M171 11q-45 22 -75.5 58t-45.5 81.5t-15 92.5t15 92t45.5 80.5t76 57t106.5 21.5t106.5 -21.5t76 -57t45.5 -80.5t15 -92t-15 -92.5t-45.5 -81.5t-76 -58t-106.5 -22t-107 22zM192 139q14 -20 35.5 -31.5t50.5 -11.5q28 0 49.5 11.5t36 31.5t22 46.5t7.5 57.5
q0 30 -7.5 57t-22 46.5t-36 31t-49.5 11.5t-49.5 -11.5t-36 -31t-22 -46.5t-7.5 -57q0 -31 7.5 -57.5t21.5 -46.5zM368 560q-28 0 -46.5 21.5t-18.5 49.5q0 29 18.5 50t46.5 21q29 0 47 -21t18 -50q0 -28 -18 -49.5t-47 -21.5zM180 560q-29 0 -47 21.5t-18 49.5q0 29 18 50
t47 21q28 0 46.5 -21t18.5 -50q0 -28 -18.5 -49.5t-46.5 -21.5z" />
    <glyph glyph-name="divide" unicode="&#xf7;" horiz-adv-x="540" 
d="M238 449q-14 7 -25 18t-17 25.5t-6 29.5t6 29.5t17 25.5t25.5 17.5t32.5 6.5q35 0 57.5 -24t22.5 -55t-22.5 -55t-57.5 -24q-18 0 -33 6zM23 275v110h493v-110h-493zM271 72q-35 0 -58 23.5t-23 55.5q0 31 23 54.5t58 23.5t57.5 -23.5t22.5 -54.5q0 -32 -22.5 -55.5
t-57.5 -23.5z" />
    <glyph glyph-name="oslash" unicode="&#xf8;" horiz-adv-x="556" 
d="M67 -6l41 61q-37 37 -55 86.5t-18 101.5q0 47 15 92t45.5 80.5t76 57t106.5 21.5q32 0 59 -6t50 -17l38 56l69 -47l-39 -58q33 -36 49.5 -82.5t16.5 -96.5q0 -47 -15 -92.5t-45.5 -81.5t-76 -58t-106.5 -22q-55 0 -101 19l-41 -61zM241 99q15 -5 37 -5q28 0 49.5 11.5
t36.5 32t22.5 47.5t7.5 58q0 19 -3 37.5t-7 33.5zM327 381h1q-11 5 -23.5 7.5t-26.5 2.5q-28 0 -49.5 -11.5t-36.5 -32t-22.5 -47.5t-7.5 -57q0 -49 15 -85z" />
    <glyph glyph-name="ugrave" unicode="&#xf9;" horiz-adv-x="579" 
d="M394 0l-5 38q-35 -28 -72 -38t-73 -10q-88 0 -135 51t-47 154v287h131v-274q0 -50 19 -81t65 -31q38 0 64 14.5t42 27.5v344h131v-482h-120zM103 650l63 83l201 -141l-35 -54z" />
    <glyph glyph-name="uacute" unicode="&#xfa;" horiz-adv-x="579" 
d="M394 0l-5 38q-35 -28 -72 -38t-73 -10q-88 0 -135 51t-47 154v287h131v-274q0 -50 19 -81t65 -31q38 0 64 14.5t42 27.5v344h131v-482h-120zM233 538l-36 54l201 141l63 -83z" />
    <glyph glyph-name="ucircumflex" unicode="&#xfb;" horiz-adv-x="579" 
d="M394 0l-5 38q-35 -28 -72 -38t-73 -10q-88 0 -135 51t-47 154v287h131v-274q0 -50 19 -81t65 -31q38 0 64 14.5t42 27.5v344h131v-482h-120zM118 589l121 130h96l121 -132l-69 -42l-101 96l-101 -97z" />
    <glyph glyph-name="udieresis" unicode="&#xfc;" horiz-adv-x="579" 
d="M394 0l-5 38q-35 -28 -72 -38t-73 -10q-88 0 -135 51t-47 154v287h131v-274q0 -50 19 -81t65 -31q38 0 64 14.5t42 27.5v344h131v-482h-120zM383 560q-28 0 -46.5 21.5t-18.5 49.5q0 29 18.5 50t46.5 21q29 0 47 -21t18 -50q0 -28 -18 -49.5t-47 -21.5zM195 560
q-29 0 -47 21.5t-18 49.5q0 29 18 50t47 21q28 0 46.5 -21t18.5 -50q0 -28 -18.5 -49.5t-46.5 -21.5z" />
    <glyph glyph-name="yacute" unicode="&#xfd;" horiz-adv-x="517" 
d="M48 -81q19 -9 37.5 -13t31.5 -4q12 0 24 7t22 28l37 83l-200 462h139l126 -329l120 329h132l-250 -596q-11 -25 -26 -42t-33 -27t-38.5 -14t-40.5 -4q-26 0 -57.5 6.5t-64.5 20.5zM197 538l-36 54l201 141l63 -83z" />
    <glyph glyph-name="thorn" unicode="&#xfe;" horiz-adv-x="581" 
d="M73 -189v856h130v-210q26 19 54.5 27.5t60.5 8.5q55 0 97 -21t70 -56t42.5 -81.5t14.5 -97.5q0 -59 -21.5 -105t-58 -78t-86 -48.5t-106.5 -16.5q-35 0 -66 9v-187h-131zM203 105q11 -4 24 -6.5t28 -2.5q32 0 61 8t50.5 24.5t34.5 43t13 63.5q0 73 -34.5 113.5
t-91.5 40.5q-24 0 -46 -7t-39 -17v-260z" />
    <glyph glyph-name="ydieresis" unicode="&#xff;" horiz-adv-x="517" 
d="M48 -81q19 -9 37.5 -13t31.5 -4q12 0 24 7t22 28l37 83l-200 462h139l126 -329l120 329h132l-250 -596q-11 -25 -26 -42t-33 -27t-38.5 -14t-40.5 -4q-26 0 -57.5 6.5t-64.5 20.5zM356 560q-28 0 -46.5 21.5t-18.5 49.5q0 29 18.5 50t46.5 21q29 0 47 -21t18 -50
q0 -28 -18 -49.5t-47 -21.5zM168 560q-29 0 -47 21.5t-18 49.5q0 29 18 50t47 21q28 0 46.5 -21t18.5 -50q0 -28 -18.5 -49.5t-46.5 -21.5z" />
    <glyph glyph-name="Amacron" unicode="&#x100;" horiz-adv-x="648" 
d="M0 0l274 667h95l278 -667h-145l-54 134h-257l-55 -134h-136zM232 247h172l-86 219zM137 744v89h363v-89h-363z" />
    <glyph glyph-name="amacron" unicode="&#x101;" horiz-adv-x="514" 
d="M332 0l-6 36q-21 -22 -53.5 -34.5t-71.5 -12.5q-32 0 -62.5 10.5t-53.5 30t-37 48t-14 64.5t15 63.5t40 46.5t57.5 31t68.5 18q25 5 55 7.5t50 4.5v16q0 29 -20 47t-47 18q-17 0 -43 -9t-50 -34l-89 62q19 24 43.5 40t50 25t50.5 12.5t46 3.5q42 0 77 -10.5t60.5 -33
t39.5 -57t14 -83.5v-310h-120zM321 225q-20 -1 -42.5 -3.5t-42.5 -6.5q-42 -8 -58.5 -27.5t-16.5 -42.5q0 -24 18 -38.5t53 -14.5q25 0 48.5 10t40.5 25v98zM75 578v89h363v-89h-363z" />
    <glyph glyph-name="Abreve" unicode="&#x102;" horiz-adv-x="648" 
d="M0 0l274 667h95l278 -667h-145l-54 134h-257l-55 -134h-136zM232 247h172l-86 219zM251 846q6 -28 22 -44.5t43 -16.5t44 16.5t23 44.5h100q-1 -34 -16 -60t-38.5 -44t-53 -27.5t-59.5 -9.5q-33 0 -62.5 9t-52.5 26.5t-37.5 44t-15.5 61.5h103z" />
    <glyph glyph-name="abreve" unicode="&#x103;" horiz-adv-x="514" 
d="M332 0l-6 36q-21 -22 -53.5 -34.5t-71.5 -12.5q-32 0 -62.5 10.5t-53.5 30t-37 48t-14 64.5t15 63.5t40 46.5t57.5 31t68.5 18q25 5 55 7.5t50 4.5v16q0 29 -20 47t-47 18q-17 0 -43 -9t-50 -34l-89 62q19 24 43.5 40t50 25t50.5 12.5t46 3.5q42 0 77 -10.5t60.5 -33
t39.5 -57t14 -83.5v-310h-120zM321 225q-20 -1 -42.5 -3.5t-42.5 -6.5q-42 -8 -58.5 -27.5t-16.5 -42.5q0 -24 18 -38.5t53 -14.5q25 0 48.5 10t40.5 25v98zM198 680q6 -28 22 -44.5t43 -16.5t44 16.5t23 44.5h100q-1 -34 -16 -60t-38.5 -44t-53 -27.5t-59.5 -9.5
q-33 0 -62.5 9t-52.5 26.5t-37.5 44t-15.5 61.5h103z" />
    <glyph glyph-name="Aogonek" unicode="&#x104;" horiz-adv-x="648" 
d="M655 -164q-20 -11 -38.5 -14.5t-38.5 -3.5q-50 0 -76.5 22t-26.5 62q0 19 7.5 37.5t19.5 34.5q11 14 26 26h-26l-54 134h-257l-55 -134h-136l274 667h95l278 -667h-26q-18 -13 -31 -31q-19 -26 -19 -48q0 -13 5 -20t19 -7q11 0 21 3t15 6zM232 247h172l-86 219z" />
    <glyph glyph-name="aogonek" unicode="&#x105;" horiz-adv-x="514" 
d="M459 -164q-20 -11 -38.5 -14.5t-38.5 -3.5q-50 0 -76.5 22t-26.5 62q0 19 7.5 37.5t19.5 34.5q11 14 26 26l-6 36q-21 -22 -53.5 -34.5t-71.5 -12.5q-32 0 -62.5 10.5t-53.5 30t-37 48t-14 64.5t15 63.5t40 46.5t57.5 31t68.5 18q25 5 55 7.5t50 4.5v16q0 29 -20 47
t-47 18q-17 0 -43 -9t-50 -34l-89 62q19 24 43.5 40t50 25t50.5 12.5t46 3.5q42 0 77 -10.5t60.5 -33t39.5 -57t14 -83.5v-310h-27q-18 -13 -31 -31q-19 -26 -19 -48q0 -13 5 -20t19 -7q11 0 21 3t15 6zM321 225q-20 -1 -42.5 -3.5t-42.5 -6.5q-42 -8 -58.5 -27.5
t-16.5 -42.5q0 -24 18 -38.5t53 -14.5q25 0 48.5 10t40.5 25v98z" />
    <glyph glyph-name="Cacute" unicode="&#x106;" horiz-adv-x="608" 
d="M584 133q-45 -80 -102 -113.5t-139 -33.5q-66 0 -121 23t-94.5 67.5t-61 108.5t-21.5 146q0 90 24.5 155.5t65 109t94 64.5t110.5 21q46 0 83 -10.5t66.5 -30.5t52 -49t39.5 -66l-109 -61q-20 43 -49.5 71t-79.5 28q-31 0 -60 -14t-51 -43t-35.5 -72.5t-13.5 -102.5
q0 -52 13 -94t35.5 -71t52.5 -45t65 -16q19 0 36.5 4t33.5 14.5t31 28t30 45.5zM227 704l-36 54l201 141l63 -83z" />
    <glyph glyph-name="cacute" unicode="&#x107;" horiz-adv-x="487" 
d="M476 116q-31 -65 -83.5 -96t-122.5 -31q-46 0 -88.5 16t-75 47.5t-52 78t-19.5 108.5q0 64 19 112t50.5 80t72.5 47.5t85 15.5t78.5 -12.5t60 -32.5t42 -45t25.5 -50l-103 -51q-17 48 -42.5 67.5t-57.5 19.5q-20 0 -38 -9t-32.5 -27t-23 -46t-8.5 -67q0 -69 30.5 -107
t79.5 -38q38 0 62 19t43 54zM158 538l-36 54l201 141l63 -83z" />
    <glyph glyph-name="Ccircumflex" unicode="&#x108;" horiz-adv-x="608" 
d="M584 133q-45 -80 -102 -113.5t-139 -33.5q-66 0 -121 23t-94.5 67.5t-61 108.5t-21.5 146q0 90 24.5 155.5t65 109t94 64.5t110.5 21q46 0 83 -10.5t66.5 -30.5t52 -49t39.5 -66l-109 -61q-20 43 -49.5 71t-79.5 28q-31 0 -60 -14t-51 -43t-35.5 -72.5t-13.5 -102.5
q0 -52 13 -94t35.5 -71t52.5 -45t65 -16q19 0 36.5 4t33.5 14.5t31 28t30 45.5zM161 755l121 130h96l121 -132l-69 -42l-101 96l-101 -97z" />
    <glyph glyph-name="ccircumflex" unicode="&#x109;" horiz-adv-x="487" 
d="M476 116q-31 -65 -83.5 -96t-122.5 -31q-46 0 -88.5 16t-75 47.5t-52 78t-19.5 108.5q0 64 19 112t50.5 80t72.5 47.5t85 15.5t78.5 -12.5t60 -32.5t42 -45t25.5 -50l-103 -51q-17 48 -42.5 67.5t-57.5 19.5q-20 0 -38 -9t-32.5 -27t-23 -46t-8.5 -67q0 -69 30.5 -107
t79.5 -38q38 0 62 19t43 54zM96 589l121 130h96l121 -132l-69 -42l-101 96l-101 -97z" />
    <glyph glyph-name="Cdotaccent" unicode="&#x10a;" horiz-adv-x="608" 
d="M584 133q-45 -80 -102 -113.5t-139 -33.5q-66 0 -121 23t-94.5 67.5t-61 108.5t-21.5 146q0 90 24.5 155.5t65 109t94 64.5t110.5 21q46 0 83 -10.5t66.5 -30.5t52 -49t39.5 -66l-109 -61q-20 43 -49.5 71t-79.5 28q-31 0 -60 -14t-51 -43t-35.5 -72.5t-13.5 -102.5
q0 -52 13 -94t35.5 -71t52.5 -45t65 -16q19 0 36.5 4t33.5 14.5t31 28t30 45.5zM348 720q-30 0 -50 23t-20 54t20 54t50 23q31 0 51 -23t20 -54t-20 -54t-51 -23z" />
    <glyph glyph-name="cdotaccent" unicode="&#x10b;" horiz-adv-x="487" 
d="M476 116q-31 -65 -83.5 -96t-122.5 -31q-46 0 -88.5 16t-75 47.5t-52 78t-19.5 108.5q0 64 19 112t50.5 80t72.5 47.5t85 15.5t78.5 -12.5t60 -32.5t42 -45t25.5 -50l-103 -51q-17 48 -42.5 67.5t-57.5 19.5q-20 0 -38 -9t-32.5 -27t-23 -46t-8.5 -67q0 -69 30.5 -107
t79.5 -38q38 0 62 19t43 54zM263 554q-30 0 -50 23t-20 54t20 54t50 23q31 0 51 -23t20 -54t-20 -54t-51 -23z" />
    <glyph glyph-name="Ccaron" unicode="&#x10c;" horiz-adv-x="608" 
d="M584 133q-45 -80 -102 -113.5t-139 -33.5q-66 0 -121 23t-94.5 67.5t-61 108.5t-21.5 146q0 90 24.5 155.5t65 109t94 64.5t110.5 21q46 0 83 -10.5t66.5 -30.5t52 -49t39.5 -66l-109 -61q-20 43 -49.5 71t-79.5 28q-31 0 -60 -14t-51 -43t-35.5 -72.5t-13.5 -102.5
q0 -52 13 -94t35.5 -71t52.5 -45t65 -16q19 0 36.5 4t33.5 14.5t31 28t30 45.5zM291 710l-121 130l67 45l101 -96l101 95l69 -41l-121 -133h-96z" />
    <glyph glyph-name="ccaron" unicode="&#x10d;" horiz-adv-x="487" 
d="M476 116q-31 -65 -83.5 -96t-122.5 -31q-46 0 -88.5 16t-75 47.5t-52 78t-19.5 108.5q0 64 19 112t50.5 80t72.5 47.5t85 15.5t78.5 -12.5t60 -32.5t42 -45t25.5 -50l-103 -51q-17 48 -42.5 67.5t-57.5 19.5q-20 0 -38 -9t-32.5 -27t-23 -46t-8.5 -67q0 -69 30.5 -107
t79.5 -38q38 0 62 19t43 54zM217 544l-121 130l67 45l101 -96l101 95l69 -41l-121 -133h-96z" />
    <glyph glyph-name="Dcaron" unicode="&#x10e;" horiz-adv-x="661" 
d="M77 0v667h198q38 0 84 -6t88 -24q43 -20 75.5 -51.5t53.5 -71t31.5 -85t10.5 -92.5t-10.5 -92.5t-32 -86t-54 -72.5t-75.5 -52q-73 -34 -166 -34h-203zM212 120h54q73 0 121 25t71 76.5t23 109.5q0 57 -21 107.5t-65 78.5q-23 15 -57 22.5t-69 7.5h-57v-427zM251 710
l-121 130l67 45l101 -96l101 95l69 -41l-121 -133h-96z" />
    <glyph glyph-name="dcaron" unicode="&#x10f;" horiz-adv-x="567" 
d="M540 497v170h107l-34 -170h-73zM373 0l-6 37q-18 -19 -47 -33.5t-69 -14.5q-52 0 -92.5 21t-68 56t-41.5 81t-14 96q0 47 15 92t45 80.5t75 57t106 21.5q41 0 86 -14v187h130v-667h-119zM362 375q-37 14 -70 14t-57.5 -12t-40.5 -32.5t-24 -46t-8 -52.5q0 -30 7 -57.5
t21 -48t35.5 -33t51.5 -12.5q24 0 49 12.5t36 29.5v238z" />
    <glyph glyph-name="Dcroat" unicode="&#x110;" horiz-adv-x="667" 
d="M83 0v291h-83v105h83v271h198q40 0 86.5 -6.5t85.5 -23.5q43 -20 75 -51.5t53.5 -71t32 -85t10.5 -92.5t-10.5 -92.5t-32 -86t-53.5 -72.5t-75 -52q-73 -34 -167 -34h-203zM218 120h55q71 0 121 25q48 25 70.5 76.5t22.5 109.5q0 57 -21 107.5t-64 78.5
q-23 15 -57.5 22.5t-69.5 7.5h-57v-151h152v-105h-152v-171z" />
    <glyph glyph-name="dcroat" unicode="&#x111;" horiz-adv-x="557" 
d="M373 0l-6 37q-18 -19 -47 -33.5t-69 -14.5q-52 0 -92.5 20.5t-68 55t-41.5 80t-14 95.5q0 47 15 91.5t45 79t75 55t106 20.5q41 0 86 -14v60h-120v83h120v52h130v-52h64v-83h-64v-532h-119zM362 367q-37 14 -70 14t-57.5 -11.5t-40.5 -30.5t-24 -44t-8 -52q0 -30 7 -57
t21 -47t35.5 -32t51.5 -12q24 0 49 12.5t36 29.5v230z" />
    <glyph glyph-name="Emacron" unicode="&#x112;" horiz-adv-x="586" 
d="M77 0v667h458v-121h-323v-152h267v-121h-267v-152h346v-121h-481zM121 744v89h363v-89h-363z" />
    <glyph glyph-name="emacron" unicode="&#x113;" horiz-adv-x="525" 
d="M166 210q5 -61 37.5 -88t72.5 -27q35 0 63 12.5t58 54.5l97 -59q-41 -63 -95 -88.5t-127 -25.5q-48 0 -91 15t-75.5 46.5t-51.5 78.5t-19 112q0 61 18.5 108t50.5 79t74.5 49t90.5 17q101 0 162.5 -70.5t63.5 -213.5h-329zM362 299q-4 48 -32.5 72t-60.5 24
q-17 0 -33.5 -6.5t-30.5 -19t-23.5 -30.5t-12.5 -40h193zM80 578v89h363v-89h-363z" />
    <glyph glyph-name="Ebreve" unicode="&#x114;" horiz-adv-x="586" 
d="M77 0v667h458v-121h-323v-152h267v-121h-267v-152h346v-121h-481zM244 846q6 -28 22 -44.5t43 -16.5t44 16.5t23 44.5h100q-1 -34 -16 -60t-38.5 -44t-53 -27.5t-59.5 -9.5q-33 0 -62.5 9t-52.5 26.5t-37.5 44t-15.5 61.5h103z" />
    <glyph glyph-name="ebreve" unicode="&#x115;" horiz-adv-x="525" 
d="M166 210q5 -61 37.5 -88t72.5 -27q35 0 63 12.5t58 54.5l97 -59q-41 -63 -95 -88.5t-127 -25.5q-48 0 -91 15t-75.5 46.5t-51.5 78.5t-19 112q0 61 18.5 108t50.5 79t74.5 49t90.5 17q101 0 162.5 -70.5t63.5 -213.5h-329zM362 299q-4 48 -32.5 72t-60.5 24
q-17 0 -33.5 -6.5t-30.5 -19t-23.5 -30.5t-12.5 -40h193zM214 680q6 -28 22 -44.5t43 -16.5t44 16.5t23 44.5h100q-1 -34 -16 -60t-38.5 -44t-53 -27.5t-59.5 -9.5q-33 0 -62.5 9t-52.5 26.5t-37.5 44t-15.5 61.5h103z" />
    <glyph glyph-name="Edotaccent" unicode="&#x116;" horiz-adv-x="586" 
d="M77 0v667h458v-121h-323v-152h267v-121h-267v-152h346v-121h-481zM307 720q-30 0 -50 23t-20 54t20 54t50 23q31 0 51 -23t20 -54t-20 -54t-51 -23z" />
    <glyph glyph-name="edotaccent" unicode="&#x117;" horiz-adv-x="525" 
d="M166 210q5 -61 37.5 -88t72.5 -27q35 0 63 12.5t58 54.5l97 -59q-41 -63 -95 -88.5t-127 -25.5q-48 0 -91 15t-75.5 46.5t-51.5 78.5t-19 112q0 61 18.5 108t50.5 79t74.5 49t90.5 17q101 0 162.5 -70.5t63.5 -213.5h-329zM362 299q-4 48 -32.5 72t-60.5 24
q-17 0 -33.5 -6.5t-30.5 -19t-23.5 -30.5t-12.5 -40h193zM267 554q-30 0 -50 23t-20 54t20 54t50 23q31 0 51 -23t20 -54t-20 -54t-51 -23z" />
    <glyph glyph-name="Eogonek" unicode="&#x118;" horiz-adv-x="586" 
d="M556 -164q-20 -11 -38.5 -14.5t-38.5 -3.5q-50 0 -76.5 22t-26.5 62q0 19 7.5 37.5t19.5 34.5q11 14 26 26h-352v667h458v-121h-323v-152h267v-121h-267v-152h346v-121h-36q-18 -13 -31 -31q-19 -26 -19 -48q0 -13 5 -20t19 -7q11 0 21 3t15 6z" />
    <glyph glyph-name="eogonek" unicode="&#x119;" horiz-adv-x="525" 
d="M405 -164q-20 -11 -38.5 -14.5t-38.5 -3.5q-50 0 -76.5 22t-26.5 62q0 19 7.5 37.5t19.5 34.5q6 8 13 15q-44 1 -84 15q-43 15 -75.5 46.5t-51.5 78.5t-19 112q0 61 18.5 108t50.5 79t74.5 49t90.5 17q101 0 162.5 -70.5t63.5 -213.5h-329q5 -61 37.5 -88t72.5 -27
q35 0 63 12.5t58 54.5l97 -59q-41 -63 -95 -89q-9 -4 -18 -7q-25 -16 -41 -38q-19 -26 -19 -48q0 -13 5 -20t19 -7q11 0 21 3t15 6zM362 299q-4 48 -32.5 72t-60.5 24q-17 0 -33.5 -6.5t-30.5 -19t-23.5 -30.5t-12.5 -40h193z" />
    <glyph glyph-name="Ecaron" unicode="&#x11a;" horiz-adv-x="586" 
d="M77 0v667h458v-121h-323v-152h267v-121h-267v-152h346v-121h-481zM264 710l-121 130l67 45l101 -96l101 95l69 -41l-121 -133h-96z" />
    <glyph glyph-name="ecaron" unicode="&#x11b;" horiz-adv-x="525" 
d="M166 210q5 -61 37.5 -88t72.5 -27q35 0 63 12.5t58 54.5l97 -59q-41 -63 -95 -88.5t-127 -25.5q-48 0 -91 15t-75.5 46.5t-51.5 78.5t-19 112q0 61 18.5 108t50.5 79t74.5 49t90.5 17q101 0 162.5 -70.5t63.5 -213.5h-329zM362 299q-4 48 -32.5 72t-60.5 24
q-17 0 -33.5 -6.5t-30.5 -19t-23.5 -30.5t-12.5 -40h193zM220 544l-121 130l67 45l101 -96l101 95l69 -41l-121 -133h-96z" />
    <glyph glyph-name="Gcircumflex" unicode="&#x11c;" horiz-adv-x="627" 
d="M352 236v115h235v-321q-41 -18 -98 -31t-145 -13q-64 0 -119 23t-95 67.5t-62.5 108.5t-22.5 146q0 90 24 155.5t64.5 109t93.5 64.5t112 21q90 0 146.5 -36t91.5 -110l-109 -61q-20 42 -50.5 65.5t-75.5 23.5q-30 0 -59 -14t-51.5 -43t-36 -72.5t-13.5 -102.5
q0 -52 14 -93.5t38 -71t56 -45.5t69 -16q32 0 58.5 3t43.5 8v120h-109zM173 755l121 130h96l121 -132l-69 -42l-101 96l-101 -97z" />
    <glyph glyph-name="gcircumflex" unicode="&#x11d;" horiz-adv-x="533" 
d="M445 421q19 -21 29.5 -49t10.5 -57q0 -45 -18.5 -78.5t-49.5 -55.5t-71 -33t-82 -11q-19 0 -37.5 2.5t-31.5 5.5q-5 -3 -10 -10t-5 -13q0 -7 5 -12t19.5 -9t40.5 -7t69 -4q52 -2 92 -9.5t66.5 -24t40 -43t13.5 -65.5q0 -43 -21 -71.5t-55 -46t-78.5 -24.5t-90.5 -7
t-90.5 7t-79.5 23.5t-56.5 44t-21.5 69.5q0 35 15 56.5t41 35.5q-14 11 -24.5 29t-10.5 40q0 26 15 46.5t40 34.5q-29 23 -46.5 56.5t-17.5 73.5q0 45 18.5 78.5t49 56t70 33.5t81.5 11q29 0 52 -5t49 -15l77 81l73 -60zM169 314q0 -39 26.5 -59.5t68.5 -20.5t69.5 20.5
t27.5 58.5t-27.5 61t-69.5 23t-68.5 -22.5t-26.5 -60.5zM217 -6q-21 2 -41 5q-9 -6 -18 -17.5t-9 -27.5q0 -62 135 -62q60 0 94 12t34 35q0 13 -5 22t-21.5 15t-46.5 9.5t-81 4.5q-20 1 -41 4zM91 589l121 130h96l121 -132l-69 -42l-101 96l-101 -97z" />
    <glyph glyph-name="Gbreve" unicode="&#x11e;" horiz-adv-x="627" 
d="M352 236v115h235v-321q-41 -18 -98 -31t-145 -13q-64 0 -119 23t-95 67.5t-62.5 108.5t-22.5 146q0 90 24 155.5t64.5 109t93.5 64.5t112 21q90 0 146.5 -36t91.5 -110l-109 -61q-20 42 -50.5 65.5t-75.5 23.5q-30 0 -59 -14t-51.5 -43t-36 -72.5t-13.5 -102.5
q0 -52 14 -93.5t38 -71t56 -45.5t69 -16q32 0 58.5 3t43.5 8v120h-109zM281 846q6 -28 22 -44.5t43 -16.5t44 16.5t23 44.5h100q-1 -34 -16 -60t-38.5 -44t-53 -27.5t-59.5 -9.5q-33 0 -62.5 9t-52.5 26.5t-37.5 44t-15.5 61.5h103z" />
    <glyph glyph-name="gbreve" unicode="&#x11f;" horiz-adv-x="533" 
d="M445 421q19 -21 29.5 -49t10.5 -57q0 -45 -18.5 -78.5t-49.5 -55.5t-71 -33t-82 -11q-19 0 -37.5 2.5t-31.5 5.5q-5 -3 -10 -10t-5 -13q0 -7 5 -12t19.5 -9t40.5 -7t69 -4q52 -2 92 -9.5t66.5 -24t40 -43t13.5 -65.5q0 -43 -21 -71.5t-55 -46t-78.5 -24.5t-90.5 -7
t-90.5 7t-79.5 23.5t-56.5 44t-21.5 69.5q0 35 15 56.5t41 35.5q-14 11 -24.5 29t-10.5 40q0 26 15 46.5t40 34.5q-29 23 -46.5 56.5t-17.5 73.5q0 45 18.5 78.5t49 56t70 33.5t81.5 11q29 0 52 -5t49 -15l77 81l73 -60zM169 314q0 -39 26.5 -59.5t68.5 -20.5t69.5 20.5
t27.5 58.5t-27.5 61t-69.5 23t-68.5 -22.5t-26.5 -60.5zM217 -6q-21 2 -41 5q-9 -6 -18 -17.5t-9 -27.5q0 -62 135 -62q60 0 94 12t34 35q0 13 -5 22t-21.5 15t-46.5 9.5t-81 4.5q-20 1 -41 4zM198 680q6 -28 22 -44.5t43 -16.5t44 16.5t23 44.5h100q-1 -34 -16 -60
t-38.5 -44t-53 -27.5t-59.5 -9.5q-33 0 -62.5 9t-52.5 26.5t-37.5 44t-15.5 61.5h103z" />
    <glyph glyph-name="Gdotaccent" unicode="&#x120;" horiz-adv-x="627" 
d="M352 236v115h235v-321q-41 -18 -98 -31t-145 -13q-64 0 -119 23t-95 67.5t-62.5 108.5t-22.5 146q0 90 24 155.5t64.5 109t93.5 64.5t112 21q90 0 146.5 -36t91.5 -110l-109 -61q-20 42 -50.5 65.5t-75.5 23.5q-30 0 -59 -14t-51.5 -43t-36 -72.5t-13.5 -102.5
q0 -52 14 -93.5t38 -71t56 -45.5t69 -16q32 0 58.5 3t43.5 8v120h-109zM337 720q-30 0 -50 23t-20 54t20 54t50 23q31 0 51 -23t20 -54t-20 -54t-51 -23z" />
    <glyph glyph-name="gdotaccent" unicode="&#x121;" horiz-adv-x="533" 
d="M445 421q19 -21 29.5 -49t10.5 -57q0 -45 -18.5 -78.5t-49.5 -55.5t-71 -33t-82 -11q-19 0 -37.5 2.5t-31.5 5.5q-5 -3 -10 -10t-5 -13q0 -7 5 -12t19.5 -9t40.5 -7t69 -4q52 -2 92 -9.5t66.5 -24t40 -43t13.5 -65.5q0 -43 -21 -71.5t-55 -46t-78.5 -24.5t-90.5 -7
t-90.5 7t-79.5 23.5t-56.5 44t-21.5 69.5q0 35 15 56.5t41 35.5q-14 11 -24.5 29t-10.5 40q0 26 15 46.5t40 34.5q-29 23 -46.5 56.5t-17.5 73.5q0 45 18.5 78.5t49 56t70 33.5t81.5 11q29 0 52 -5t49 -15l77 81l73 -60zM169 314q0 -39 26.5 -59.5t68.5 -20.5t69.5 20.5
t27.5 58.5t-27.5 61t-69.5 23t-68.5 -22.5t-26.5 -60.5zM217 -6q-21 2 -41 5q-9 -6 -18 -17.5t-9 -27.5q0 -62 135 -62q60 0 94 12t34 35q0 13 -5 22t-21.5 15t-46.5 9.5t-81 4.5q-20 1 -41 4zM264 554q-30 0 -50 23t-20 54t20 54t50 23q31 0 51 -23t20 -54t-20 -54t-51 -23
z" />
    <glyph glyph-name="Gcommaaccent" unicode="&#x122;" horiz-adv-x="627" 
d="M352 236v115h235v-321q-41 -18 -98 -31t-145 -13q-64 0 -119 23t-95 67.5t-62.5 108.5t-22.5 146q0 90 24 155.5t64.5 109t93.5 64.5t112 21q90 0 146.5 -36t91.5 -110l-109 -61q-20 42 -50.5 65.5t-75.5 23.5q-30 0 -59 -14t-51.5 -43t-36 -72.5t-13.5 -102.5
q0 -52 14 -93.5t38 -71t56 -45.5t69 -16q32 0 58.5 3t43.5 8v120h-109zM236 -181l62 137h116l-86 -137h-92z" />
    <glyph glyph-name="gcommaaccent" unicode="&#x123;" horiz-adv-x="533" 
d="M445 421q19 -21 29.5 -49t10.5 -57q0 -45 -18.5 -78.5t-49.5 -55.5t-71 -33t-82 -11q-19 0 -37.5 2.5t-31.5 5.5q-5 -3 -10 -10t-5 -13q0 -7 5 -12t19.5 -9t40.5 -7t69 -4q52 -2 92 -9.5t66.5 -24t40 -43t13.5 -65.5q0 -43 -21 -71.5t-55 -46t-78.5 -24.5t-90.5 -7
t-90.5 7t-79.5 23.5t-56.5 44t-21.5 69.5q0 35 15 56.5t41 35.5q-14 11 -24.5 29t-10.5 40q0 26 15 46.5t40 34.5q-29 23 -46.5 56.5t-17.5 73.5q0 45 18.5 78.5t49 56t70 33.5t81.5 11q29 0 52 -5t49 -15l77 81l73 -60zM169 314q0 -39 26.5 -59.5t68.5 -20.5t69.5 20.5
t27.5 58.5t-27.5 61t-69.5 23t-68.5 -22.5t-26.5 -60.5zM217 -6q-21 2 -41 5q-9 -6 -18 -17.5t-9 -27.5q0 -62 135 -62q60 0 94 12t34 35q0 13 -5 22t-21.5 15t-46.5 9.5t-81 4.5q-20 1 -41 4zM208 559l85 130h83l-59 -130h-109z" />
    <glyph glyph-name="Hcircumflex" unicode="&#x124;" horiz-adv-x="689" 
d="M77 0v667h135v-264h265v264h135v-667h-135v282h-265v-282h-135zM188 755l121 130h96l121 -132l-69 -42l-101 96l-101 -97z" />
    <glyph glyph-name="hcircumflex" unicode="&#x125;" horiz-adv-x="577" 
d="M65 0v667h131v-217q24 18 57.5 31t80.5 13q49 0 83 -15t56 -42t32 -65.5t10 -85.5v-286h-131v277q0 60 -24.5 86.5t-56.5 26.5t-61 -16.5t-46 -30.5v-343h-131zM73 755l121 130h96l121 -132l-69 -42l-101 96l-101 -97z" />
    <glyph glyph-name="Hbar" unicode="&#x126;" horiz-adv-x="689" 
d="M77 0v483h-70v97h70v87h135v-87h265v87h135v-87h67v-97h-67v-483h-135v282h-265v-282h-135zM212 403h265v80h-265v-80z" />
    <glyph glyph-name="hbar" unicode="&#x127;" horiz-adv-x="577" 
d="M65 0v534h-62v87h62v46h131v-46h149v-87h-149v-84q24 18 57.5 31t80.5 13q49 0 83 -15t56 -42t32 -65.5t10 -85.5v-286h-131v277q0 60 -24.5 86.5t-56.5 26.5t-61 -16.5t-46 -30.5v-343h-131z" />
    <glyph glyph-name="Itilde" unicode="&#x128;" horiz-adv-x="289" 
d="M77 0v667h135v-667h-135zM-51 742q17 51 49.5 83t77.5 32q20 0 39.5 -9t36.5 -20t32 -19.5t27 -8.5q10 0 27.5 11.5t34.5 51.5l68 -35q-18 -54 -50 -85t-77 -31q-21 0 -40.5 9.5t-36.5 20.5t-31.5 19t-26.5 8q-11 0 -27.5 -11.5t-33.5 -51.5z" />
    <glyph glyph-name="itilde" unicode="&#x129;" horiz-adv-x="261" 
d="M65 0v477h131v-477h-131zM-65 576q17 51 49.5 83t77.5 32q20 0 39.5 -9t36.5 -20t32 -19.5t27 -8.5q10 0 27.5 11.5t34.5 51.5l68 -35q-18 -54 -50 -85t-77 -31q-21 0 -40.5 9.5t-36.5 20.5t-31.5 19t-26.5 8q-11 0 -27.5 -11.5t-33.5 -51.5z" />
    <glyph glyph-name="Imacron" unicode="&#x12a;" horiz-adv-x="289" 
d="M77 0v667h135v-667h-135zM-33 744v89h363v-89h-363z" />
    <glyph glyph-name="imacron" unicode="&#x12b;" horiz-adv-x="261" 
d="M65 0v477h131v-477h-131zM-46 578v89h363v-89h-363z" />
    <glyph glyph-name="Ibreve" unicode="&#x12c;" horiz-adv-x="289" 
d="M77 0v667h135v-667h-135zM80 846q6 -28 22 -44.5t43 -16.5t44 16.5t23 44.5h100q-1 -34 -16 -60t-38.5 -44t-53 -27.5t-59.5 -9.5q-33 0 -62.5 9t-52.5 26.5t-37.5 44t-15.5 61.5h103z" />
    <glyph glyph-name="ibreve" unicode="&#x12d;" horiz-adv-x="261" 
d="M65 0v477h131v-477h-131zM68 680q6 -28 22 -44.5t43 -16.5t44 16.5t23 44.5h100q-1 -34 -16 -60t-38.5 -44t-53 -27.5t-59.5 -9.5q-33 0 -62.5 9t-52.5 26.5t-37.5 44t-15.5 61.5h103z" />
    <glyph glyph-name="Iogonek" unicode="&#x12e;" horiz-adv-x="289" 
d="M226 -164q-20 -11 -38.5 -14.5t-38.5 -3.5q-50 0 -76.5 22t-26.5 62q0 19 7.5 37.5t19.5 34.5q11 14 26 26h-22v667h135v-667h-20q-18 -13 -31 -31q-19 -26 -19 -48q0 -13 5 -20t19 -7q11 0 21 3t15 6z" />
    <glyph glyph-name="iogonek" unicode="&#x12f;" horiz-adv-x="260" 
d="M209 -164q-20 -11 -38.5 -14.5t-38.5 -3.5q-50 0 -76.5 22t-26.5 62q0 19 7.5 37.5t19.5 34.5q11 14 26 26h-17v482h130v-482h-20q-18 -13 -31 -31q-19 -26 -19 -48q0 -13 5 -20t19 -7q11 0 21 3t15 6zM130 537q-39 0 -58.5 22t-19.5 49q0 26 19.5 48t58.5 22t58.5 -22
t19.5 -48q0 -27 -19.5 -49t-58.5 -22z" />
    <glyph glyph-name="Idotaccent" unicode="&#x130;" horiz-adv-x="289" 
d="M77 0v667h135v-667h-135zM147 720q-30 0 -50 23t-20 54t20 54t50 23q31 0 51 -23t20 -54t-20 -54t-51 -23z" />
    <glyph glyph-name="dotlessi" unicode="&#x131;" horiz-adv-x="261" 
d="M65 0v477h131v-477h-131z" />
    <glyph glyph-name="IJ" unicode="&#x132;" horiz-adv-x="579" 
d="M77 0v667h135v-667h-135zM239 -29q70 14 99 43t29 75v578h135v-600q0 -47 -17 -82.5t-48.5 -61t-75 -41.5t-97.5 -25z" />
    <glyph glyph-name="ij" unicode="&#x133;" horiz-adv-x="521" 
d="M130 537q-39 0 -58.5 22t-19.5 49q0 26 19.5 48t58.5 22t58.5 -22t19.5 -48q0 -27 -19.5 -49t-58.5 -22zM65 0v482h130v-482h-130zM392 537q-39 0 -58.5 22t-19.5 49q0 26 19.5 48t58.5 22q38 0 57.5 -22t19.5 -48q0 -27 -19.5 -49t-57.5 -22zM243 -116q25 17 41.5 31.5
t25.5 30t12.5 33t3.5 40.5v463h130v-463q0 -39 -8.5 -70.5t-26 -57.5t-44 -47t-62.5 -40z" />
    <glyph glyph-name="Jcircumflex" unicode="&#x134;" horiz-adv-x="297" 
d="M-43 -29q70 14 99 43t29 75v578h135v-600q0 -47 -17 -82.5t-48.5 -61t-75 -41.5t-97.5 -25zM-16 755l121 130h96l121 -132l-69 -42l-101 96l-101 -97z" />
    <glyph glyph-name="jcircumflex" unicode="&#x135;" horiz-adv-x="270" 
d="M-8 -116q25 17 41.5 31.5t25.5 30t12.5 33t3.5 40.5v463h130v-463q0 -39 -8.5 -70.5t-26 -57.5t-44 -47t-62.5 -40zM-27 589l121 130h96l121 -132l-69 -42l-101 96l-101 -97z" />
    <glyph glyph-name="Kcommaaccent" unicode="&#x136;" horiz-adv-x="639" 
d="M77 0v667h135v-255l256 255h160l-262 -260l275 -407h-152l-215 316l-62 -62v-254h-135zM242 -181l62 137h116l-86 -137h-92z" />
    <glyph glyph-name="kcommaaccent" unicode="&#x137;" horiz-adv-x="522" 
d="M65 0v667h131v-321l151 136h157l-166 -149l190 -333h-147l-138 249l-47 -44v-205h-131zM184 -181l62 137h116l-86 -137h-92z" />
    <glyph glyph-name="kgreenlandic" unicode="&#x138;" horiz-adv-x="522" 
d="M65 0v482h131v-172l158 172h155l-173 -189l192 -293h-147l-138 206l-47 -53v-153h-131z" />
    <glyph glyph-name="Lacute" unicode="&#x139;" horiz-adv-x="553" 
d="M77 0v667h135v-546h336v-121h-471zM70 704l-36 54l201 141l63 -83z" />
    <glyph glyph-name="lacute" unicode="&#x13a;" horiz-adv-x="261" 
d="M65 0v667h131v-667h-131zM56 704l-36 54l201 141l63 -83z" />
    <glyph glyph-name="Lcommaaccent" unicode="&#x13b;" horiz-adv-x="553" 
d="M77 0v667h135v-546h336v-121h-471zM199 -181l62 137h116l-86 -137h-92z" />
    <glyph glyph-name="lcommaaccent" unicode="&#x13c;" horiz-adv-x="261" 
d="M65 0v667h131v-667h-131zM7 -181l62 137h116l-86 -137h-92z" />
    <glyph glyph-name="Lcaron" unicode="&#x13d;" horiz-adv-x="553" 
d="M77 0v667h135v-546h336v-121h-471zM272 497v170h107l-34 -170h-73z" />
    <glyph glyph-name="lcaron" unicode="&#x13e;" horiz-adv-x="323" 
d="M65 0v667h131v-667h-131zM246 497v170h107l-34 -170h-73z" />
    <glyph glyph-name="Ldot" unicode="&#x13f;" horiz-adv-x="553" 
d="M77 0v667h135v-546h336v-121h-471zM360 272q-30 0 -50 23t-20 54t20 54t50 23q31 0 51 -23t20 -54t-20 -54t-51 -23z" />
    <glyph glyph-name="ldot" unicode="&#x140;" horiz-adv-x="368" 
d="M65 0v667h131v-667h-131zM317 272q-30 0 -50 23t-20 54t20 54t50 23q31 0 51 -23t20 -54t-20 -54t-51 -23z" />
    <glyph glyph-name="Lslash" unicode="&#x141;" horiz-adv-x="554" 
d="M77 0v250l-59 -35l-53 82l112 69v301h135v-218l92 58l57 -83l-149 -92v-211h337v-121h-472z" />
    <glyph glyph-name="lslash" unicode="&#x142;" horiz-adv-x="310" 
d="M86 0v255l-60 -36l-46 78l106 63v307h131v-231l75 48l48 -76l-123 -76v-332h-131z" />
    <glyph glyph-name="Nacute" unicode="&#x143;" horiz-adv-x="695" 
d="M77 0v667h138l270 -416v416h133v-667h-118l-290 441v-441h-133zM277 704l-36 54l201 141l63 -83z" />
    <glyph glyph-name="nacute" unicode="&#x144;" horiz-adv-x="581" 
d="M65 0v482h119l6 -38q30 24 69 37t78 13q40 0 73.5 -11.5t57.5 -36.5t37.5 -65t13.5 -96v-285h-131v275q0 55 -24 85t-67 30q-30 0 -56 -15t-45 -33v-342h-131zM197 538l-36 54l201 141l63 -83z" />
    <glyph glyph-name="Ncommaaccent" unicode="&#x145;" horiz-adv-x="695" 
d="M77 0v667h138l270 -416v416h133v-667h-118l-290 441v-441h-133zM249 -181l62 137h116l-86 -137h-92z" />
    <glyph glyph-name="ncommaaccent" unicode="&#x146;" horiz-adv-x="581" 
d="M65 0v482h119l6 -38q30 24 69 37t78 13q40 0 73.5 -11.5t57.5 -36.5t37.5 -65t13.5 -96v-285h-131v275q0 55 -24 85t-67 30q-30 0 -56 -15t-45 -33v-342h-131zM176 -181l62 137h116l-86 -137h-92z" />
    <glyph glyph-name="Ncaron" unicode="&#x147;" horiz-adv-x="695" 
d="M77 0v667h138l270 -416v416h133v-667h-118l-290 441v-441h-133zM300 710l-121 130l67 45l101 -96l101 95l69 -41l-121 -133h-96z" />
    <glyph glyph-name="ncaron" unicode="&#x148;" horiz-adv-x="581" 
d="M65 0v482h119l6 -38q30 24 69 37t78 13q40 0 73.5 -11.5t57.5 -36.5t37.5 -65t13.5 -96v-285h-131v275q0 55 -24 85t-67 30q-30 0 -56 -15t-45 -33v-342h-131zM247 544l-121 130l67 45l101 -96l101 95l69 -41l-121 -133h-96z" />
    <glyph glyph-name="napostrophe" unicode="&#x149;" horiz-adv-x="597" 
d="M81 0v482h119l6 -38q30 24 69 37t78 13q40 0 73.5 -11.5t57.5 -36.5t37.5 -65t13.5 -96v-285h-131v275q0 55 -24 85t-67 30q-30 0 -56 -15t-45 -33v-342h-131zM50 552q17 4 34 13t25 18q-11 8 -17.5 21.5t-6.5 29.5q0 23 14 43t42 20q24 0 40.5 -17.5t16.5 -43.5
q0 -17 -7.5 -35t-24 -34.5t-42 -31t-61.5 -23.5z" />
    <glyph glyph-name="Eng" unicode="&#x14a;" horiz-adv-x="695" 
d="M77 0v667h138l270 -416v416h133v-648q0 -42 -9.5 -74t-27.5 -57.5t-44.5 -45.5t-59.5 -38l-72 80q25 17 41 31.5t25.5 30t13 32.5t3.5 40l-278 423v-441h-133z" />
    <glyph glyph-name="eng" unicode="&#x14b;" horiz-adv-x="581" 
d="M65 0v482h119l6 -38q30 24 69 37t78 13q40 0 73.5 -11.5t57.5 -36.5t37.5 -65t13.5 -96v-285q0 -37 -10 -66t-29 -52.5t-45 -42t-57 -35.5l-72 80q45 30 62.5 55t19.5 61v275q0 55 -24 85t-67 30q-30 0 -56 -15t-45 -33v-342h-131z" />
    <glyph glyph-name="Omacron" unicode="&#x14c;" horiz-adv-x="707" 
d="M217 16q-58 31 -96 80t-57 111.5t-19 126.5t19 126.5t57 111.5t96 79t135 30q78 0 136 -30t97 -79t58 -111.5t19 -126.5t-19 -126.5t-58 -111.5t-97 -79.5t-136 -30.5q-77 0 -135 30zM225 175q22 -32 53.5 -51t73.5 -19t74.5 19t54.5 51t33 73.5t11 85.5t-11 85.5
t-33 73.5t-54.5 51t-74.5 19t-73.5 -19t-53.5 -51t-33 -73.5t-11 -85.5t11 -85.5t33 -73.5zM174 744v89h363v-89h-363z" />
    <glyph glyph-name="omacron" unicode="&#x14d;" horiz-adv-x="556" 
d="M171 11q-45 22 -75.5 58t-45.5 81.5t-15 92.5t15 92t45.5 80.5t76 57t106.5 21.5t106.5 -21.5t76 -57t45.5 -80.5t15 -92t-15 -92.5t-45.5 -81.5t-76 -58t-106.5 -22t-107 22zM192 139q14 -20 35.5 -31.5t50.5 -11.5q28 0 49.5 11.5t36 31.5t22 46.5t7.5 57.5
q0 30 -7.5 57t-22 46.5t-36 31t-49.5 11.5t-49.5 -11.5t-36 -31t-22 -46.5t-7.5 -57q0 -31 7.5 -57.5t21.5 -46.5zM99 578v89h363v-89h-363z" />
    <glyph glyph-name="Obreve" unicode="&#x14e;" horiz-adv-x="707" 
d="M217 16q-58 31 -96 80t-57 111.5t-19 126.5t19 126.5t57 111.5t96 79t135 30q78 0 136 -30t97 -79t58 -111.5t19 -126.5t-19 -126.5t-58 -111.5t-97 -79.5t-136 -30.5q-77 0 -135 30zM225 175q22 -32 53.5 -51t73.5 -19t74.5 19t54.5 51t33 73.5t11 85.5t-11 85.5
t-33 73.5t-54.5 51t-74.5 19t-73.5 -19t-53.5 -51t-33 -73.5t-11 -85.5t11 -85.5t33 -73.5zM292 846q6 -28 22 -44.5t43 -16.5t44 16.5t23 44.5h100q-1 -34 -16 -60t-38.5 -44t-53 -27.5t-59.5 -9.5q-33 0 -62.5 9t-52.5 26.5t-37.5 44t-15.5 61.5h103z" />
    <glyph glyph-name="obreve" unicode="&#x14f;" horiz-adv-x="556" 
d="M171 11q-45 22 -75.5 58t-45.5 81.5t-15 92.5t15 92t45.5 80.5t76 57t106.5 21.5t106.5 -21.5t76 -57t45.5 -80.5t15 -92t-15 -92.5t-45.5 -81.5t-76 -58t-106.5 -22t-107 22zM192 139q14 -20 35.5 -31.5t50.5 -11.5q28 0 49.5 11.5t36 31.5t22 46.5t7.5 57.5
q0 30 -7.5 57t-22 46.5t-36 31t-49.5 11.5t-49.5 -11.5t-36 -31t-22 -46.5t-7.5 -57q0 -31 7.5 -57.5t21.5 -46.5zM219 680q6 -28 22 -44.5t43 -16.5t44 16.5t23 44.5h100q-1 -34 -16 -60t-38.5 -44t-53 -27.5t-59.5 -9.5q-33 0 -62.5 9t-52.5 26.5t-37.5 44t-15.5 61.5h103
z" />
    <glyph glyph-name="Ohungarumlaut" unicode="&#x150;" horiz-adv-x="707" 
d="M217 16q-58 31 -96 80t-57 111.5t-19 126.5t19 126.5t57 111.5t96 79t135 30q78 0 136 -30t97 -79t58 -111.5t19 -126.5t-19 -126.5t-58 -111.5t-97 -79.5t-136 -30.5q-77 0 -135 30zM225 175q22 -32 53.5 -51t73.5 -19t74.5 19t54.5 51t33 73.5t11 85.5t-11 85.5
t-33 73.5t-54.5 51t-74.5 19t-73.5 -19t-53.5 -51t-33 -73.5t-11 -85.5t11 -85.5t33 -73.5zM407 707l-40 43l163 151l66 -72zM222 707l-39 43l164 151l64 -72z" />
    <glyph glyph-name="ohungarumlaut" unicode="&#x151;" horiz-adv-x="556" 
d="M171 11q-45 22 -75.5 58t-45.5 81.5t-15 92.5t15 92t45.5 80.5t76 57t106.5 21.5t106.5 -21.5t76 -57t45.5 -80.5t15 -92t-15 -92.5t-45.5 -81.5t-76 -58t-106.5 -22t-107 22zM192 139q14 -20 35.5 -31.5t50.5 -11.5q28 0 49.5 11.5t36 31.5t22 46.5t7.5 57.5
q0 30 -7.5 57t-22 46.5t-36 31t-49.5 11.5t-49.5 -11.5t-36 -31t-22 -46.5t-7.5 -57q0 -31 7.5 -57.5t21.5 -46.5zM331 541l-40 43l163 151l66 -72zM146 541l-39 43l164 151l64 -72z" />
    <glyph glyph-name="OE" unicode="&#x152;" horiz-adv-x="946" 
d="M389 0q-75 0 -138 24t-108.5 67.5t-71.5 105t-26 137.5q0 78 26 139.5t71.5 104.5t108.5 66t138 23h506v-121h-301v-152h245v-121h-245v-152h324v-121h-529zM459 121v425h-77q-42 0 -79 -14.5t-64 -42t-42.5 -67t-15.5 -88.5q0 -47 16 -86t43 -67.5t63.5 -44t78.5 -15.5
h77z" />
    <glyph glyph-name="oe" unicode="&#x153;" horiz-adv-x="844" 
d="M499 210q7 -61 36 -87.5t74 -26.5q26 0 52 12t55 55l97 -59q-39 -64 -93.5 -89.5t-108.5 -25.5q-110 0 -177 71q-33 -35 -73.5 -53t-94.5 -18q-51 0 -93.5 19t-73 52.5t-47.5 80t-17 101.5t17 101.5t48 80t74 52t94 18.5q66 0 103.5 -19t61.5 -51q13 16 28 29t33.5 22
t42 14t54.5 5q59 0 101 -21.5t69 -59.5t40 -90t13 -113h-315zM683 300q-1 15 -6.5 31.5t-16 31t-27.5 23.5t-40 9q-20 0 -36.5 -8.5t-28.5 -22.5t-19.5 -31t-8.5 -33h183zM196 130q14 -18 32.5 -26.5t37.5 -8.5q28 0 47.5 13t31.5 34t17.5 48t5.5 55q0 38 -9 65t-23.5 44.5
t-32.5 26t-37 8.5t-37 -8.5t-32.5 -26t-23.5 -45t-9 -66.5t9 -67t23 -46z" />
    <glyph glyph-name="Racute" unicode="&#x154;" horiz-adv-x="623" 
d="M77 0v667h271q42 0 84 -9t75.5 -31.5t55 -60.5t21.5 -97q0 -36 -9 -69t-27.5 -60.5t-48 -48.5t-70.5 -33l171 -258h-153l-165 250h-73v-250h-132zM209 365h103q73 0 106 23t33 68q0 48 -31 71.5t-108 23.5h-103v-186zM233 704l-36 54l201 141l63 -83z" />
    <glyph glyph-name="racute" unicode="&#x155;" horiz-adv-x="371" 
d="M65 0v482h119l6 -42q27 29 54.5 40.5t57.5 11.5q17 0 36 -4t39 -11l-23 -113q-20 8 -37.5 12.5t-34.5 4.5q-28 0 -50.5 -13t-35.5 -30v-338h-131zM137 538l-36 54l201 141l63 -83z" />
    <glyph glyph-name="Rcommaaccent" unicode="&#x156;" horiz-adv-x="623" 
d="M77 0v667h271q42 0 84 -9t75.5 -31.5t55 -60.5t21.5 -97q0 -36 -9 -69t-27.5 -60.5t-48 -48.5t-70.5 -33l171 -258h-153l-165 250h-73v-250h-132zM209 365h103q73 0 106 23t33 68q0 48 -31 71.5t-108 23.5h-103v-186zM214 -181l62 137h116l-86 -137h-92z" />
    <glyph glyph-name="rcommaaccent" unicode="&#x157;" horiz-adv-x="371" 
d="M65 0v482h119l6 -42q27 29 54.5 40.5t57.5 11.5q17 0 36 -4t39 -11l-23 -113q-20 8 -37.5 12.5t-34.5 4.5q-28 0 -50.5 -13t-35.5 -30v-338h-131zM7 -181l62 137h116l-86 -137h-92z" />
    <glyph glyph-name="Rcaron" unicode="&#x158;" horiz-adv-x="623" 
d="M77 0v667h271q42 0 84 -9t75.5 -31.5t55 -60.5t21.5 -97q0 -36 -9 -69t-27.5 -60.5t-48 -48.5t-70.5 -33l171 -258h-153l-165 250h-73v-250h-132zM209 365h103q73 0 106 23t33 68q0 48 -31 71.5t-108 23.5h-103v-186zM266 710l-121 130l67 45l101 -96l101 95l69 -41
l-121 -133h-96z" />
    <glyph glyph-name="rcaron" unicode="&#x159;" horiz-adv-x="371" 
d="M65 0v482h119l6 -42q27 29 54.5 40.5t57.5 11.5q17 0 36 -4t39 -11l-23 -113q-20 8 -37.5 12.5t-34.5 4.5q-28 0 -50.5 -13t-35.5 -30v-338h-131zM173 544l-121 130l67 45l101 -96l101 95l69 -41l-121 -133h-96z" />
    <glyph glyph-name="Sacute" unicode="&#x15a;" horiz-adv-x="556" 
d="M129 177q23 -38 62 -57.5t88 -19.5q51 0 81.5 20t30.5 53q0 21 -7 37t-24 30t-47 27.5t-76 29.5q-43 15 -77.5 32t-59 40t-37.5 53.5t-13 72.5q0 41 14.5 75t44 59t73.5 38.5t103 13.5q49 0 86.5 -9.5t65 -25.5t47.5 -37t35 -44l-97 -69q-21 32 -53 53t-85 21
q-51 0 -77.5 -18t-26.5 -47q0 -35 34 -57.5t102 -47.5q51 -18 89.5 -38t64.5 -45.5t39.5 -58.5t13.5 -78q0 -49 -20.5 -85.5t-54 -60.5t-77.5 -36t-90 -12q-182 0 -255 123zM190 704l-36 54l201 141l63 -83z" />
    <glyph glyph-name="sacute" unicode="&#x15b;" horiz-adv-x="485" 
d="M126 162q17 -32 47.5 -53.5t76.5 -21.5q40 0 62.5 12.5t22.5 34.5q0 21 -24 37t-89 28q-38 7 -69.5 18.5t-53.5 29.5t-34 43t-12 60q0 64 53.5 104t144.5 40q82 0 130 -26.5t74 -64.5l-92 -63q-18 24 -46 40t-66 16q-42 0 -58 -12.5t-16 -32.5q0 -23 20 -33t74 -21
q44 -9 78.5 -21t58.5 -30.5t36.5 -44.5t12.5 -61q0 -39 -16 -67.5t-44 -47t-66 -27.5t-81 -9q-86 0 -139.5 32.5t-81.5 81.5zM162 538l-36 54l201 141l63 -83z" />
    </font>
</defs>
</svg>
